<svg width="2081" height="2029" viewBox="0 0 2081 2029" fill="none" xmlns="http://www.w3.org/2000/svg">
<mask id="path-1-inside-1_1460_281" fill="white">
<path fill-rule="evenodd" clip-rule="evenodd" d="M1171.35 83.2905C1174.49 129.099 1179.22 174.895 1181.87 185.054C1184.51 195.227 1167.81 215.741 1144.76 230.641C1098.27 260.716 1082.62 292.132 1087.58 345.365C1089.39 364.902 1081.67 394.039 1070.4 410.125C1041.5 451.388 1044.95 494.93 1079.88 529.863C1103.52 553.503 1107.56 566.724 1098.99 592.422C1081.85 643.87 1107.14 693.99 1150.53 694.537C1170.4 694.798 1201.33 703.199 1219.23 713.215L1251.8 731.424L1203.37 751.821C1176.73 763.048 1145.68 772.231 1134.38 772.231C1096.49 772.231 1005.98 661.037 932.243 523.898C821.596 318.091 765.811 289.866 496.351 303.334C372.927 309.507 367.626 310.927 395.33 330.556C429.637 354.86 421.301 368.458 372.067 368.458C352.673 368.458 318.326 372.157 295.754 376.664C263.127 383.189 256.289 389.858 262.436 409.213C271.528 437.881 254.335 445.917 112.116 479.457C58.3878 492.13 9.40108 506.965 3.26634 512.423C-12.1031 526.073 37.04 550.443 102.959 561.852C148.963 569.824 157.078 575.75 153.821 598.973C149.575 629.269 193.587 668.032 232.245 668.032C258.36 668.032 262.124 682.138 241.531 702.73C220.939 723.322 262.488 759.206 306.903 759.206C331.573 759.206 345.587 767.06 349.821 783.276C356.945 810.511 422.942 828.538 471.187 816.438C490.802 811.501 509.715 816.294 522.948 829.528C534.41 841.003 554.416 850.381 567.402 850.381C580.375 850.381 594.064 862.103 597.815 876.43C602.335 893.714 615.581 902.48 637.189 902.48C663.396 902.48 668.41 907.586 662.901 928.66C657.573 949.044 665.024 957.979 696.492 968.946C731.581 981.177 735.098 986.465 723.102 1008.91C703.617 1045.31 716.186 1067.96 761.395 1077.89C782.769 1082.58 803.778 1095.6 808.09 1106.83C814.003 1122.22 827.34 1125.39 862.43 1119.68C898.417 1113.85 907.392 1116.15 902.116 1129.91C898.378 1139.68 888.128 1194.58 879.349 1251.93C847.581 1459.4 916.144 1667.11 1036.89 1729.26C1133.1 1778.78 1282.42 1761.92 1390.24 1689.36L1456.86 1644.52L1484.58 1674.06C1499.82 1690.31 1531.38 1718.4 1554.7 1736.51C1581.57 1757.37 1606.43 1794.91 1622.56 1839.06C1636.57 1877.36 1649.72 1909.84 1651.79 1911.25C1694.25 1939.84 1782.33 1983.55 1797.5 1983.55C1808.55 1983.55 1839.74 1995.05 1866.82 2009.12C1908.7 2030.87 1924.2 2032.61 1970.4 2020.83C2053.94 1999.49 2086.2 1953.45 2080.33 1863.88C2079.53 1851.78 2044.94 1796.09 2003.47 1740.14C1949.2 1666.94 1919.62 1610.97 1898.02 1540.7C1881.5 1486.97 1846.89 1404.92 1821.12 1358.35C1784.44 1292.09 1772.16 1252.45 1764.64 1176C1759.35 1122.28 1751.04 1054.27 1746.17 1024.89C1738.82 980.526 1742.93 962.825 1770.37 920.689C1788.54 892.764 1809.84 845.366 1817.7 815.343C1827.67 777.285 1840.77 758.099 1861 751.938C1904.03 738.835 1935.59 706.65 1935.68 675.781C1935.74 659.513 1950.64 640.041 1972.58 627.55L2009.4 606.619L2008.32 449.434L2007.24 292.236L1965.89 248.941C1875.69 154.524 1864.92 147.074 1716.03 76.231C1638.98 39.5658 1517.58 32.4672 1492.13 63.1279C1483.42 73.626 1462.15 77.4163 1435.88 73.1571C1402.87 67.8039 1384.57 73.9256 1352.19 101.161L1310.76 136.028L1272.53 108.819C1251.51 93.8407 1218.87 63.2451 1199.98 40.8032L1165.65 -0.00390625L1171.35 83.2905ZM1268.65 144.677C1261.06 183.843 1233.12 173.736 1206.91 122.352C1170.91 51.7832 1172.67 48.8265 1226.32 89.7378C1251.71 109.106 1270.76 133.827 1268.65 144.677ZM1518.26 82.9258C1510.29 97.8133 1506.92 118.171 1510.75 128.161C1518.35 147.972 1465.17 218.125 1427.09 238.509C1396.16 255.05 1336.46 233.103 1336.46 205.204C1336.46 193.859 1330.6 188.193 1323.43 192.622C1316.27 197.05 1310.41 188.597 1310.41 173.853C1310.41 141.173 1319.72 140.262 1354.97 169.476C1369.87 181.824 1374.73 183.582 1365.76 173.384C1347.83 152.961 1343.6 107.96 1359.62 107.96C1365.19 107.96 1379.78 119.682 1392.05 134.01C1404.32 148.337 1421.73 159.747 1430.76 159.382C1439.79 159.004 1433.98 149.496 1417.86 138.256C1401.75 127.002 1388.56 108.559 1388.56 97.2532C1388.56 81.2716 1392.04 80.1775 1404.19 92.3298C1427.31 115.449 1459.6 111.359 1486.25 81.9099C1517.08 47.8366 1536.7 48.4618 1518.26 82.9258ZM1571.05 75.2281C1550.24 100.301 1563.5 134.439 1593.3 132.499C1615.04 131.079 1615.06 130.61 1593.7 125.035C1565.79 117.741 1563.98 96.7713 1590.37 86.6509C1601.07 82.5351 1606.6 73.9386 1602.62 67.5173C1583.2 36.0882 1667.58 59.9238 1753.26 110.07C1764 116.361 1790.38 129.829 1811.87 139.988C1833.36 150.147 1882.89 187.959 1921.96 224.012L1992.97 289.553L1995.47 374.88C1997.59 447.624 1994.22 462.199 1972.57 473.791C1958.61 481.254 1940.19 484.523 1931.63 481.046C1922.91 477.49 1925.73 474.26 1938.09 473.687C1950.21 473.127 1963.7 466.862 1968.08 459.776C1972.54 452.547 1967.62 450.138 1956.84 454.266C1932.05 463.788 1883.51 437.842 1883.51 415.087C1883.51 405.41 1898.16 387.904 1916.07 376.169C1933.98 364.434 1948.63 344.87 1948.63 332.692C1948.63 314.783 1944.76 316.085 1928.35 339.504C1887.4 397.973 1805.36 359.979 1805.36 282.546C1805.36 259.01 1799.49 236.125 1792.33 231.696C1784.57 226.903 1779.31 242.611 1779.31 270.589C1779.31 319.029 1733.28 381.939 1698.49 381.053C1688.85 380.806 1694.18 370.138 1710.93 356.163C1748.76 324.603 1749.04 308.713 1711.28 335.153C1663.58 368.575 1639.73 360.526 1675.05 322.923C1712.94 282.585 1701.72 268.492 1649.06 290.309C1593.15 313.467 1586.19 297.694 1634.39 257.121C1656.78 238.287 1674.98 216.067 1674.82 207.744C1674.66 199.421 1664.4 204.722 1652.03 219.505C1639.64 234.301 1613.39 256.418 1593.7 268.648C1574.01 280.892 1557.88 302.5 1557.88 316.658C1557.88 330.816 1551.34 342.408 1543.33 342.408C1534.52 342.408 1531.47 328.407 1535.6 306.837C1541.93 273.702 1541.15 272.972 1524.23 296.118C1514.22 309.781 1502.59 317.505 1498.35 313.272C1486.48 301.393 1514.85 256.248 1553.05 226.2C1571.96 211.312 1581.29 199.134 1573.77 199.134C1566.24 199.134 1543.49 216.718 1523.21 238.209C1502.93 259.7 1481.92 277.284 1476.52 277.284C1457.54 277.284 1466.99 235.435 1493.62 201.596C1514.73 174.765 1530.89 167.796 1568.51 169.333C1613.73 171.17 1614.24 170.766 1577.42 162.326C1530.15 151.502 1515.82 99.7801 1552.62 72.8706C1583.4 50.3635 1590.89 51.3273 1571.05 75.2281ZM1219.23 166.572C1232.52 182.58 1231.62 186.109 1214.31 186.109C1202.69 186.109 1193.18 177.317 1193.18 166.572C1193.18 155.826 1195.4 147.034 1198.11 147.034C1200.8 147.034 1210.31 155.826 1219.23 166.572ZM1297.38 178.594C1297.38 188.792 1279.8 214.712 1258.31 236.203C1218.21 276.307 1207.82 325.789 1234.03 351.995C1245.06 363.027 1243.41 372.183 1227.52 388.087C1207.73 407.859 1204.16 428.086 1198.76 550.807C1195.89 615.554 1178.96 681.056 1165.09 681.056C1158.59 681.056 1147.97 667.862 1141.49 651.75C1130.64 624.75 1129.61 624.489 1128.49 648.494C1127.36 672.681 1126.31 672.903 1113.82 651.464C1104.11 634.753 1105.64 617.833 1119.42 590.234C1137.33 554.324 1136.67 550.911 1108.2 532.247C1045.04 490.867 1057.65 407.533 1127.07 407.533C1161.46 407.533 1243.86 356.84 1211.05 355.863C1202.98 355.629 1189.08 364.225 1180.16 374.971C1163.47 395.081 1115.03 402.245 1115.03 384.622C1115.03 379.178 1126.76 367.403 1141.08 358.455C1168.02 341.627 1177.07 303.334 1154.11 303.334C1146.95 303.334 1141.08 309.195 1141.08 316.359C1141.08 332.535 1106.15 333.604 1096.33 317.713C1092.37 311.292 1100.82 292.249 1115.13 275.382C1138.08 248.329 1140.23 247.795 1133.41 270.771C1127.72 289.983 1135.41 286.023 1162.69 255.688C1183.05 233.064 1212.34 210.87 1227.8 206.35C1243.25 201.843 1259.19 189.574 1263.21 179.102C1272.58 154.68 1297.38 154.315 1297.38 178.594ZM1292.03 265.262C1273.48 287.3 1258.31 313.675 1258.31 323.874C1258.31 334.072 1252.45 342.408 1245.28 342.408C1221.77 342.408 1231.66 286.115 1260.58 255.324C1304.66 208.408 1332.47 217.187 1292.03 265.262ZM1450.44 274.054C1453.1 282.025 1443.99 294.581 1430.21 301.953C1416.43 309.325 1397.45 333.955 1388.04 356.684C1372.75 393.609 1373.51 399.887 1395.25 415.791C1415.09 430.301 1415.81 433.583 1399.16 433.583C1373.03 433.583 1353.59 409.76 1345.99 368.458C1340.22 337.081 1339.94 337.224 1338.23 372.483C1336.19 414.619 1311.19 407.754 1308.9 364.434C1307.71 342.161 1306.07 340.937 1301.4 358.846C1298.1 371.467 1290 378.448 1283.37 374.359C1262.54 361.49 1270.27 309.39 1297.32 280.345C1317.99 258.176 1335.85 253.188 1384.46 256.001C1418.09 257.955 1447.78 266.082 1450.44 274.054ZM1479.73 313.545C1479.73 319.172 1496.12 333.447 1516.14 345.274C1556.85 369.318 1589.25 358.39 1576.42 324.942C1570.13 308.557 1573.3 305.066 1589 311.096C1600.54 315.525 1609.98 324.46 1609.98 330.973C1609.98 345.469 1688.22 394.391 1711.51 394.456C1720.8 394.482 1742.81 380.089 1760.43 362.467L1792.47 330.425L1784.54 380.037C1775.48 436.683 1799.91 495.308 1848.47 533.51C1865.3 546.756 1876.33 566.32 1872.97 576.987C1858.9 621.624 1708.33 853.611 1682.39 870.608C1666.89 880.768 1636.53 892.607 1614.92 896.932C1581.33 903.652 1569.63 897.948 1534.19 857.596C1511.41 831.638 1492.76 802.292 1492.76 792.38C1492.76 770.277 1414.39 720.131 1379.86 720.131C1366.01 720.131 1348.21 726.618 1340.27 734.55C1306.87 767.959 1266.22 646.319 1289.76 583.37C1299.21 558.127 1298.88 558.088 1279.54 581.741C1242.43 627.12 1195.39 582.692 1211.69 517.685C1222.11 476.213 1243.94 486.855 1235.8 529.433C1229.56 562.087 1250.44 587.095 1264.69 564.041C1269.18 556.76 1266.66 550.807 1259.08 550.807C1224.6 550.807 1249.92 529.967 1287.62 527.323C1315.42 525.37 1341.12 511.589 1362.51 487.154C1380.42 466.705 1405.32 446.465 1417.86 442.192C1447.17 432.176 1447.35 386.524 1418.14 370.178C1396.97 358.338 1397.1 355.928 1420.16 330.451C1444.36 303.698 1479.73 293.669 1479.73 313.545ZM1655.57 316.359C1651.14 323.522 1640.54 329.292 1632.01 329.188C1622.68 329.058 1624.3 323.939 1636.03 316.359C1661.05 300.182 1665.56 300.182 1655.57 316.359ZM1831.41 319.615C1831.41 324.994 1845.71 329.383 1863.2 329.383C1880.69 329.383 1897.72 324.994 1901.02 319.615C1904.35 314.235 1890.04 309.846 1869.24 309.846C1848.43 309.846 1831.41 314.235 1831.41 319.615ZM757.384 340.845C825.751 371.897 866.571 421.834 940.371 564.731C981.047 643.506 1020.66 699.304 1062.14 736.347L1123.63 791.221L1061.48 854.366C1017.19 899.341 990.96 916.287 970.276 913.252C921.328 906.075 929.078 881.627 985.697 864.669C1015.24 855.825 1036.73 845.887 1033.45 842.605C1030.16 839.309 1011.63 842.657 992.262 850.016C945.841 867.665 845.38 867.17 834.296 849.247C815.983 819.603 855.969 807.138 964.271 808.727C1025.19 809.613 1078.16 805.249 1082 799.036C1085.85 792.823 1065.61 790.87 1037.02 794.712C988.836 801.172 945.711 784.735 945.711 759.909C945.711 754.882 967.697 744.358 994.554 736.517L1043.4 722.267L994.646 729.145C967.827 732.922 931.188 732.336 913.24 727.829C872.316 717.552 869.723 681.135 909.892 680.861C926.004 680.744 947.691 675.286 958.059 668.722C970.497 660.855 959.413 659.083 925.496 663.525C864.8 671.457 802.437 650.8 802.437 622.77C802.437 610.006 815.24 602.581 838.255 601.995C857.962 601.487 885.796 596.095 900.124 590.012C917.134 582.783 903.588 581.038 861.049 585.011C789.203 591.692 733.743 570.722 726.71 534.2C723.219 516.122 732.089 511.693 772.18 511.537C799.571 511.42 830.649 505.845 841.264 499.137C853.924 491.127 836.054 489.343 789.164 493.94C738.211 498.942 710.637 495.568 692.871 482.166C658.798 456.494 674.636 420.805 720.627 419.646C740.542 419.138 768.572 413.837 782.899 407.859C798.79 401.229 780.073 399.718 734.942 403.99C694.226 407.846 650.267 406.843 637.255 401.776C617.405 394.052 620.739 389.52 657.873 373.798C720.289 347.358 702.288 339.569 633.53 363.261C587.083 379.269 564.758 380.181 514.612 368.159C480.669 360.005 442.154 345.209 429.025 335.271C388.361 304.441 688.482 309.533 757.384 340.845ZM1870.48 408.028C1870.48 420.323 1879.55 437.92 1890.63 447.116C1906.16 460.01 1907.07 466.145 1894.56 473.869C1883.91 480.46 1891.5 486.816 1916.75 492.443C1980.22 506.562 1983.33 509.622 1935.61 510.899C1901.17 511.837 1894.8 515.223 1909.56 524.757C1925.29 534.93 1923.27 537.418 1899.16 537.587C1842.71 537.965 1769.33 416.221 1798.02 369.8C1810.53 349.559 1870.48 381.184 1870.48 408.028ZM590.782 403.065C647.297 420.467 659.163 429.311 659.163 454.032C659.163 472.488 669.127 487.089 685.212 492.195C701.754 497.444 711.262 511.902 711.262 531.817C711.262 553.451 723.336 569.407 750.246 583.317C771.685 594.402 788.565 607.739 787.771 612.962C783.186 642.998 793.489 657.781 827.184 669.529C847.959 676.771 868.03 694.485 871.807 708.891C875.572 723.296 890.811 738.275 905.672 742.156C937.583 750.505 941.387 779.134 912.081 790.375C877.903 803.491 779.799 799.271 744.437 783.159C700.295 763.048 701.819 733.495 747.081 731.854C766.788 731.137 797.552 725.419 815.462 719.141C839.102 710.858 831.274 709.62 786.859 714.622C704.867 723.856 620.088 700.75 620.088 669.152C620.088 645.056 664.763 628.957 731.659 628.957C748.253 628.957 764.56 624.554 767.908 619.188C771.255 613.809 726.176 611.021 667.733 612.975C555.458 616.739 519.991 605.851 533.12 571.66C538.969 556.408 558.519 550.807 605.891 550.807C641.501 550.807 673.386 546.418 676.733 541.039C680.081 535.659 640.863 533.145 589.583 535.438C428.556 542.641 360.709 488.327 507.604 469.818C548.438 464.673 591.902 454.162 604.223 446.465C621.234 435.81 615.672 434.924 581.013 442.792C505.716 459.854 370.087 452.925 315.252 429.193C287.301 417.093 267.164 404.446 270.512 401.086C283.758 387.839 421.145 370.725 470.301 376.195C498.956 379.386 553.166 391.473 590.782 403.065ZM1276.8 405.853C1280.66 412.092 1301.53 420.74 1323.16 425.065C1369.69 434.364 1374.23 455.764 1333.2 472.254C1307.13 482.739 1306.7 484.12 1329.29 484.862C1347.11 485.435 1350.59 489.785 1340.95 499.424C1321.64 518.74 1264.64 501.664 1236.82 468.229C1223.95 452.756 1221.76 447.428 1231.96 456.377C1261.46 482.283 1277.69 475.224 1252.54 447.428C1239.98 433.557 1233.56 415.973 1238.26 408.354C1248.63 391.59 1267.24 390.379 1276.8 405.853ZM1245.28 421.743C1245.28 437.008 1295.21 462.134 1315.76 457.197C1325.13 454.957 1313.09 443.599 1289.03 431.968C1264.98 420.35 1245.28 415.739 1245.28 421.743ZM367.834 460.063C410.412 471.863 420.351 479.991 415.401 498.968C410.465 517.828 420.624 526.386 463.046 539.098C497.953 549.557 514.677 561.227 510.457 572.207C502.837 592.07 550.496 628.957 583.761 628.957C599.847 628.957 605.825 637.762 603.65 658.263C601.28 680.614 612.13 693.235 649.394 711.431C676.264 724.56 698.237 743.277 698.237 753.032C698.237 762.775 710.22 779.147 724.873 789.411C749.699 806.799 749.933 808.675 728.286 816.985C685.46 833.409 545.885 841.25 537.51 827.691C532.977 820.371 564.172 801.941 608.391 785.816C651.83 769.978 685.356 755.012 682.894 752.55C680.432 750.089 646.242 759.18 606.92 772.752C522.726 801.811 354.171 808.193 362.754 782C365.698 773.052 391.097 758.346 419.204 749.32C505.195 721.733 582.81 691.542 578.551 687.334C576.324 685.133 533.472 697.325 483.326 714.426C350.394 759.74 239.604 754.009 259.245 702.821C263.908 690.669 291.352 679.572 329.528 674.401C404.734 664.215 474.039 643.988 482.922 629.621C486.478 623.864 467.501 626.964 440.761 636.511C380.221 658.12 241.623 660.047 197.39 639.885C133.646 610.852 159.605 589.908 286.337 568.13C335.597 559.664 382.487 546.079 390.536 537.926C401.464 526.88 396.906 526.216 372.614 535.347C308.701 559.339 207.68 565.356 121.259 550.312C73.1841 541.937 31.2178 530.84 28.0007 525.643C24.7965 520.459 64.3923 506.054 115.984 493.641C167.589 481.241 227.386 463.149 248.877 453.459C270.368 443.755 293.813 437.92 300.977 440.473C308.141 443.039 338.228 451.844 367.834 460.063ZM1570.91 490.437C1619.76 507.916 1641.01 505.025 1609.6 485.175C1599.07 478.506 1575.79 473.296 1557.88 473.595C1529.67 474.051 1531.42 476.305 1570.91 490.437ZM1994.22 551.511C1994.22 561.449 1979.56 577.56 1961.66 587.316C1931.48 603.767 1931.23 604.6 1958.4 598.687C1974.52 595.183 1987.71 597.15 1987.71 603.037C1987.71 620.425 1956.94 626.352 1932.35 613.718C1914.9 604.73 1909.56 607.283 1909.56 624.593C1909.56 641.357 1905.77 643.401 1894.88 632.513C1872.53 610.162 1892.27 550.807 1922.06 550.807C1935.83 550.807 1950.91 544.633 1955.57 537.092C1966.93 518.701 1994.22 528.873 1994.22 551.511ZM1492.76 560.941C1492.76 581.377 1545.01 615.059 1564.88 607.427C1580.85 601.305 1576.53 594.219 1545.25 575.19C1500.89 548.215 1492.76 546.001 1492.76 560.941ZM1766.28 582.914C1766.28 586.235 1779.46 595.991 1795.59 604.587C1822.16 618.745 1823.23 618.172 1807.02 598.531C1790.38 578.355 1766.28 569.12 1766.28 582.914ZM1252.5 630.09C1257.31 637.879 1254.73 650.774 1246.76 658.745C1224.98 680.522 1229.32 699.721 1251.8 681.056C1263.06 671.705 1271.33 670.441 1271.33 678.074C1271.33 700.32 1231.83 708.122 1223.88 687.426C1219.83 676.836 1211.26 671.418 1204.84 675.391C1191.45 683.661 1188.76 637.723 1201.87 624.619C1215.17 611.308 1242.73 614.291 1252.5 630.09ZM1219.23 655.775C1219.23 663.356 1225.1 665.948 1232.26 661.519C1239.42 657.091 1245.28 650.891 1245.28 647.726C1245.28 644.561 1239.42 641.982 1232.26 641.982C1225.1 641.982 1219.23 648.195 1219.23 655.775ZM1583.93 661.519C1583.93 672.265 1586.24 681.056 1589.05 681.056C1591.86 681.056 1597.54 672.265 1601.67 661.519C1605.79 650.774 1603.48 641.982 1596.55 641.982C1589.61 641.982 1583.93 650.774 1583.93 661.519ZM1907.69 653.574C1926.61 665.557 1917.06 720.131 1896.06 720.131C1889.6 720.131 1888.17 709.868 1892.87 697.338C1900.26 677.618 1898.52 676.889 1880.05 691.906C1868.32 701.44 1849.47 707.302 1838.19 704.931C1819.54 700.985 1819.54 697.924 1838.3 671.288C1860.2 640.171 1878.97 635.378 1907.69 653.574ZM1710.95 662.574C1699.06 674.466 1715.02 708.135 1728.57 699.747C1734.98 695.788 1740.23 698.757 1740.23 706.338C1740.23 727.386 1775.52 722.762 1784.02 700.594C1788.94 687.764 1783.6 681.056 1768.48 681.056C1755.81 681.056 1739.48 675.104 1732.2 667.81C1724.91 660.529 1715.35 658.172 1710.95 662.574ZM1671.6 706.064C1665.94 727.725 1667.63 732.818 1677.3 723.153C1684.88 715.573 1688.5 701.701 1685.37 692.297C1682.11 682.541 1676.21 688.455 1671.6 706.064ZM1323.15 795.441C1323.63 844.975 1356.56 908.185 1401.66 946.14C1443.54 981.372 1444.04 983.092 1428.34 1035.54L1412.3 1089.01L1389.12 1037.22C1365.66 984.824 1285.52 883.959 1275.4 894.079C1272.36 897.101 1285.48 916.352 1304.53 936.853C1346.97 982.505 1401.58 1087.51 1401.58 1123.47C1401.58 1174.54 1422.16 1149.29 1435.72 1081.57C1443.25 1043.96 1453.63 1003.71 1458.79 992.118C1465.64 976.748 1456.07 963.893 1423.47 944.668C1368.27 912.093 1327.58 819.056 1344.04 763.022C1353.83 729.718 1355.41 732.14 1362.63 791.768L1370.53 856.893L1376.29 799.297C1379.45 767.607 1388.86 739.46 1397.18 736.725C1407.69 733.273 1410.22 747.366 1405.46 782.859C1401.69 810.98 1404.07 837.356 1410.77 841.498C1417.62 845.731 1420.56 832.94 1417.51 812.165C1414.54 791.899 1418.53 771.345 1426.38 766.487C1435.53 760.847 1440.66 771.723 1440.66 796.744C1440.66 818.235 1446.75 839.583 1454.2 844.194C1463 849.625 1464.78 840.729 1459.31 818.912C1454.02 797.877 1456.27 785.256 1465.3 785.256C1473.23 785.256 1479.73 791.365 1479.73 798.841C1479.73 806.317 1502.98 843.217 1531.4 880.859C1619.79 997.927 1633.15 1157.55 1564.38 1274.9C1510.5 1366.84 1435.16 1368.24 1298.33 1279.8C1244.26 1244.84 1204.8 1206.61 1177.53 1162.73C1155.24 1126.9 1134.34 1100.26 1131.06 1103.55C1122.13 1112.46 1173.79 1191.53 1211.94 1227.37L1245.35 1258.76L1177.19 1296.04C1139.69 1316.54 1096.28 1336.51 1080.7 1340.43C1065.12 1344.34 1038.63 1362.79 1021.84 1381.43L991.298 1415.35L1028.88 1386.85C1086.12 1343.43 1093.4 1352.3 1056.27 1420.22C1037.67 1454.24 1030.1 1470.37 1039.44 1456.04C1048.78 1441.71 1085.86 1399.67 1121.82 1362.6C1194.11 1288.12 1246.74 1266.54 1289.58 1293.79C1395.59 1361.24 1487.47 1378.96 1530.32 1340.18C1553.92 1318.82 1556.24 1319.47 1580.92 1354.35C1595.15 1374.46 1639.52 1456.33 1679.54 1536.27C1751.35 1679.74 1826.74 1771.59 1985.27 1908.76C2008.1 1928.51 2026.78 1956.35 2026.78 1970.63C2026.78 2003.19 2005.89 2004.68 1997.53 1972.7C1994.09 1959.56 1981.82 1948.81 1970.25 1948.81C1954.57 1948.81 1950.95 1957.38 1956 1982.47C1962.31 2013.81 1961.43 2013.43 1943.21 1977.04L1923.65 1937.96L1930.51 1977.04C1937.06 2014.27 1936.43 2014.93 1916.95 1990.83C1905.73 1976.92 1896.53 1960.81 1896.53 1955.01C1896.53 1949.22 1889.5 1944.47 1880.9 1944.47C1868.75 1944.47 1868.75 1947.95 1880.9 1960.1C1911.93 1991.13 1899.28 2009.48 1860.71 1989.37C1841.02 1979.09 1814.1 1970.65 1800.9 1970.6C1787.69 1970.56 1762 1958.8 1743.79 1944.47C1725.57 1930.15 1702.99 1918.42 1693.63 1918.42C1669.28 1918.42 1636.03 1866.25 1636.03 1828.06C1636.03 1805.3 1613.12 1774.02 1559.45 1723.51C1478.1 1646.93 1461.2 1621.64 1434.17 1535.95C1424.83 1506.33 1416.6 1493.07 1415.9 1506.47C1414.78 1527.68 1411.78 1528.54 1392.93 1512.98C1373.45 1496.91 1372.72 1497.85 1385.72 1522.23C1393.66 1537.15 1409.27 1556.92 1420.4 1566.17C1454.99 1594.86 1443.8 1635.85 1391.54 1671.9C1317.57 1722.95 1265.93 1739.27 1175.69 1740.11C1020.5 1741.59 938.586 1663.16 898.938 1475.19C843.127 1210.56 979.589 879.491 1186.14 778.431C1224.74 759.545 1260.07 734.341 1264.64 722.424C1271.79 703.772 1276.41 705.27 1297.9 733.247C1311.62 751.105 1322.99 779.095 1323.15 795.441ZM1546.28 725.901C1570.24 749.854 1649.06 794.933 1649.06 784.67C1649.06 771.15 1572.84 720.262 1552.45 720.183C1545.89 720.157 1543.11 722.723 1546.28 725.901ZM1857.46 733.156C1857.46 740.32 1845.38 746.181 1830.64 746.181C1815.89 746.181 1807.44 752.042 1811.87 759.206C1816.3 766.37 1810.74 772.231 1799.51 772.231C1782.34 772.231 1781.69 768.076 1795.35 746.181C1812.08 719.415 1857.46 709.894 1857.46 733.156ZM1580.45 786.871C1589.3 795.78 1599.81 799.779 1603.81 795.767C1607.82 791.755 1600.59 784.474 1587.75 779.577C1569.19 772.518 1567.69 774.002 1580.45 786.871ZM1804.44 801.537C1803.94 810.498 1798.49 829.541 1792.33 843.868C1782.95 865.698 1780.99 863.067 1780.22 827.587C1779.72 804.311 1785.17 785.256 1792.33 785.256C1799.49 785.256 1804.94 792.589 1804.44 801.537ZM815.462 828.746C815.462 865.815 634.402 910.139 614.513 877.941C609.512 869.853 613.106 860.813 622.523 857.883C631.927 854.952 666.001 843.998 698.237 833.565C775.045 808.701 815.462 807.034 815.462 828.746ZM1754.42 874.268C1744.32 893.141 1744.49 901.725 1755.05 905.254C1763.09 907.925 1751.32 928.465 1728.9 950.881C1685.12 994.658 1677.76 1009.84 1705.48 999.203C1728.35 990.425 1760.13 1154.34 1749.02 1223.75C1739.81 1281.25 1700.56 1319.37 1650.87 1319.08C1584.04 1318.69 1575.41 1302.61 1602.15 1228.25C1619.41 1180.25 1624.32 1139.34 1619.84 1080.97C1612.24 981.88 1637.65 905.841 1682.13 894.678C1698.7 890.51 1722.43 875.883 1734.85 862.155C1762.39 831.729 1773.5 838.606 1754.42 874.268ZM922.722 894.691C944.005 926.498 929.247 940.422 858.73 955.062C788.93 969.546 692.585 966.289 675.144 948.849C661.989 935.707 701.624 904.499 756.876 884.506C812.583 864.33 906.258 870.087 922.722 894.691ZM1622.81 925.274C1622.55 937.739 1597.43 977.061 1597.15 965.417C1597.05 960.624 1593.4 947.442 1589.05 936.111C1583.87 922.591 1588.33 915.505 1602.08 915.505C1613.59 915.505 1622.92 919.908 1622.81 925.274ZM975.759 969.389C947.131 1019.08 867.275 1058.1 793.436 1058.49C685.825 1059.05 718.296 989.422 832.485 974.769C869.684 969.988 914.777 957.836 932.686 947.768C988.368 916.456 1002.23 923.411 975.759 969.389ZM919.739 1071.65C903.198 1102.57 845.367 1119.94 825.413 1099.99C815.175 1089.75 819.968 1082.55 842.645 1074.16C859.929 1067.75 882.866 1059.21 893.611 1055.17C928.57 1042 933.832 1045.32 919.739 1071.65ZM1816.34 1381.15C1844.03 1436.67 1879.03 1523.25 1894.11 1573.56C1910.78 1629.18 1938.61 1685.34 1965.11 1716.84C2055.33 1824.1 2071.52 1854.26 2053.95 1882.4C2045.12 1896.54 2042.71 1905.14 2048.61 1901.51C2054.51 1897.86 2060.19 1908.97 2061.22 1926.19C2062.26 1943.41 2061.39 1957.5 2059.3 1957.5C2057.22 1957.5 1991.9 1896.54 1914.15 1822.04C1778.24 1691.8 1769.15 1679.57 1678.21 1504.52L1583.61 1322.44L1640.86 1328.89C1687.01 1334.1 1702.82 1330.21 1722.43 1308.86C1735.8 1294.3 1751.07 1281.88 1756.37 1281.28C1761.66 1280.69 1788.65 1325.62 1816.34 1381.15ZM1649.06 1778.41C1649.06 1790.1 1655.31 1803.53 1662.95 1808.25C1685.29 1822.05 1687.48 1809.69 1667.53 1782.41C1652.08 1761.28 1649.06 1760.63 1649.06 1778.41Z"/>
</mask>
<path fill-rule="evenodd" clip-rule="evenodd" d="M1171.35 83.2905C1174.49 129.099 1179.22 174.895 1181.87 185.054C1184.51 195.227 1167.81 215.741 1144.76 230.641C1098.27 260.716 1082.62 292.132 1087.58 345.365C1089.39 364.902 1081.67 394.039 1070.4 410.125C1041.5 451.388 1044.95 494.93 1079.88 529.863C1103.52 553.503 1107.56 566.724 1098.99 592.422C1081.85 643.87 1107.14 693.99 1150.53 694.537C1170.4 694.798 1201.33 703.199 1219.23 713.215L1251.8 731.424L1203.37 751.821C1176.73 763.048 1145.68 772.231 1134.38 772.231C1096.49 772.231 1005.98 661.037 932.243 523.898C821.596 318.091 765.811 289.866 496.351 303.334C372.927 309.507 367.626 310.927 395.33 330.556C429.637 354.86 421.301 368.458 372.067 368.458C352.673 368.458 318.326 372.157 295.754 376.664C263.127 383.189 256.289 389.858 262.436 409.213C271.528 437.881 254.335 445.917 112.116 479.457C58.3878 492.13 9.40108 506.965 3.26634 512.423C-12.1031 526.073 37.04 550.443 102.959 561.852C148.963 569.824 157.078 575.75 153.821 598.973C149.575 629.269 193.587 668.032 232.245 668.032C258.36 668.032 262.124 682.138 241.531 702.73C220.939 723.322 262.488 759.206 306.903 759.206C331.573 759.206 345.587 767.06 349.821 783.276C356.945 810.511 422.942 828.538 471.187 816.438C490.802 811.501 509.715 816.294 522.948 829.528C534.41 841.003 554.416 850.381 567.402 850.381C580.375 850.381 594.064 862.103 597.815 876.43C602.335 893.714 615.581 902.48 637.189 902.48C663.396 902.48 668.41 907.586 662.901 928.66C657.573 949.044 665.024 957.979 696.492 968.946C731.581 981.177 735.098 986.465 723.102 1008.91C703.617 1045.31 716.186 1067.96 761.395 1077.89C782.769 1082.58 803.778 1095.6 808.09 1106.83C814.003 1122.22 827.34 1125.39 862.43 1119.68C898.417 1113.85 907.392 1116.15 902.116 1129.91C898.378 1139.68 888.128 1194.58 879.349 1251.93C847.581 1459.4 916.144 1667.11 1036.89 1729.26C1133.1 1778.78 1282.42 1761.92 1390.24 1689.36L1456.86 1644.52L1484.58 1674.06C1499.82 1690.31 1531.38 1718.4 1554.7 1736.51C1581.57 1757.37 1606.43 1794.91 1622.56 1839.06C1636.57 1877.36 1649.72 1909.84 1651.79 1911.25C1694.25 1939.84 1782.33 1983.55 1797.5 1983.55C1808.55 1983.55 1839.74 1995.05 1866.82 2009.12C1908.7 2030.87 1924.2 2032.61 1970.4 2020.83C2053.94 1999.49 2086.2 1953.45 2080.33 1863.88C2079.53 1851.78 2044.94 1796.09 2003.47 1740.14C1949.2 1666.94 1919.62 1610.97 1898.02 1540.7C1881.5 1486.97 1846.89 1404.92 1821.12 1358.35C1784.44 1292.09 1772.16 1252.45 1764.64 1176C1759.35 1122.28 1751.04 1054.27 1746.17 1024.89C1738.82 980.526 1742.93 962.825 1770.37 920.689C1788.54 892.764 1809.84 845.366 1817.7 815.343C1827.67 777.285 1840.77 758.099 1861 751.938C1904.03 738.835 1935.59 706.65 1935.68 675.781C1935.74 659.513 1950.64 640.041 1972.58 627.55L2009.4 606.619L2008.32 449.434L2007.24 292.236L1965.89 248.941C1875.69 154.524 1864.92 147.074 1716.03 76.231C1638.98 39.5658 1517.58 32.4672 1492.13 63.1279C1483.42 73.626 1462.15 77.4163 1435.88 73.1571C1402.87 67.8039 1384.57 73.9256 1352.19 101.161L1310.76 136.028L1272.53 108.819C1251.51 93.8407 1218.87 63.2451 1199.98 40.8032L1165.65 -0.00390625L1171.35 83.2905ZM1268.65 144.677C1261.06 183.843 1233.12 173.736 1206.91 122.352C1170.91 51.7832 1172.67 48.8265 1226.32 89.7378C1251.71 109.106 1270.76 133.827 1268.65 144.677ZM1518.26 82.9258C1510.29 97.8133 1506.92 118.171 1510.75 128.161C1518.35 147.972 1465.17 218.125 1427.09 238.509C1396.16 255.05 1336.46 233.103 1336.46 205.204C1336.46 193.859 1330.6 188.193 1323.43 192.622C1316.27 197.05 1310.41 188.597 1310.41 173.853C1310.41 141.173 1319.72 140.262 1354.97 169.476C1369.87 181.824 1374.73 183.582 1365.76 173.384C1347.83 152.961 1343.6 107.96 1359.62 107.96C1365.19 107.96 1379.78 119.682 1392.05 134.01C1404.32 148.337 1421.73 159.747 1430.76 159.382C1439.79 159.004 1433.98 149.496 1417.86 138.256C1401.75 127.002 1388.56 108.559 1388.56 97.2532C1388.56 81.2716 1392.04 80.1775 1404.19 92.3298C1427.31 115.449 1459.6 111.359 1486.25 81.9099C1517.08 47.8366 1536.7 48.4618 1518.26 82.9258ZM1571.05 75.2281C1550.24 100.301 1563.5 134.439 1593.3 132.499C1615.04 131.079 1615.06 130.61 1593.7 125.035C1565.79 117.741 1563.98 96.7713 1590.37 86.6509C1601.07 82.5351 1606.6 73.9386 1602.62 67.5173C1583.2 36.0882 1667.58 59.9238 1753.26 110.07C1764 116.361 1790.38 129.829 1811.87 139.988C1833.36 150.147 1882.89 187.959 1921.96 224.012L1992.97 289.553L1995.47 374.88C1997.59 447.624 1994.22 462.199 1972.57 473.791C1958.61 481.254 1940.19 484.523 1931.63 481.046C1922.91 477.49 1925.73 474.26 1938.09 473.687C1950.21 473.127 1963.7 466.862 1968.08 459.776C1972.54 452.547 1967.62 450.138 1956.84 454.266C1932.05 463.788 1883.51 437.842 1883.51 415.087C1883.51 405.41 1898.16 387.904 1916.07 376.169C1933.98 364.434 1948.63 344.87 1948.63 332.692C1948.63 314.783 1944.76 316.085 1928.35 339.504C1887.4 397.973 1805.36 359.979 1805.36 282.546C1805.36 259.01 1799.49 236.125 1792.33 231.696C1784.57 226.903 1779.31 242.611 1779.31 270.589C1779.31 319.029 1733.28 381.939 1698.49 381.053C1688.85 380.806 1694.18 370.138 1710.93 356.163C1748.76 324.603 1749.04 308.713 1711.28 335.153C1663.58 368.575 1639.73 360.526 1675.05 322.923C1712.94 282.585 1701.72 268.492 1649.06 290.309C1593.15 313.467 1586.19 297.694 1634.39 257.121C1656.78 238.287 1674.98 216.067 1674.82 207.744C1674.66 199.421 1664.4 204.722 1652.03 219.505C1639.64 234.301 1613.39 256.418 1593.7 268.648C1574.01 280.892 1557.88 302.5 1557.88 316.658C1557.88 330.816 1551.34 342.408 1543.33 342.408C1534.52 342.408 1531.47 328.407 1535.6 306.837C1541.93 273.702 1541.15 272.972 1524.23 296.118C1514.22 309.781 1502.59 317.505 1498.35 313.272C1486.48 301.393 1514.85 256.248 1553.05 226.2C1571.96 211.312 1581.29 199.134 1573.77 199.134C1566.24 199.134 1543.49 216.718 1523.21 238.209C1502.93 259.7 1481.92 277.284 1476.52 277.284C1457.54 277.284 1466.99 235.435 1493.62 201.596C1514.73 174.765 1530.89 167.796 1568.51 169.333C1613.73 171.17 1614.24 170.766 1577.42 162.326C1530.15 151.502 1515.82 99.7801 1552.62 72.8706C1583.4 50.3635 1590.89 51.3273 1571.05 75.2281ZM1219.23 166.572C1232.52 182.58 1231.62 186.109 1214.31 186.109C1202.69 186.109 1193.18 177.317 1193.18 166.572C1193.18 155.826 1195.4 147.034 1198.11 147.034C1200.8 147.034 1210.31 155.826 1219.23 166.572ZM1297.38 178.594C1297.38 188.792 1279.8 214.712 1258.31 236.203C1218.21 276.307 1207.82 325.789 1234.03 351.995C1245.06 363.027 1243.41 372.183 1227.52 388.087C1207.73 407.859 1204.16 428.086 1198.76 550.807C1195.89 615.554 1178.96 681.056 1165.09 681.056C1158.59 681.056 1147.97 667.862 1141.49 651.75C1130.64 624.75 1129.61 624.489 1128.49 648.494C1127.36 672.681 1126.31 672.903 1113.82 651.464C1104.11 634.753 1105.64 617.833 1119.42 590.234C1137.33 554.324 1136.67 550.911 1108.2 532.247C1045.04 490.867 1057.65 407.533 1127.07 407.533C1161.46 407.533 1243.86 356.84 1211.05 355.863C1202.98 355.629 1189.08 364.225 1180.16 374.971C1163.47 395.081 1115.03 402.245 1115.03 384.622C1115.03 379.178 1126.76 367.403 1141.08 358.455C1168.02 341.627 1177.07 303.334 1154.11 303.334C1146.95 303.334 1141.08 309.195 1141.08 316.359C1141.08 332.535 1106.15 333.604 1096.33 317.713C1092.37 311.292 1100.82 292.249 1115.13 275.382C1138.08 248.329 1140.23 247.795 1133.41 270.771C1127.72 289.983 1135.41 286.023 1162.69 255.688C1183.05 233.064 1212.34 210.87 1227.8 206.35C1243.25 201.843 1259.19 189.574 1263.21 179.102C1272.58 154.68 1297.38 154.315 1297.38 178.594ZM1292.03 265.262C1273.48 287.3 1258.31 313.675 1258.31 323.874C1258.31 334.072 1252.45 342.408 1245.28 342.408C1221.77 342.408 1231.66 286.115 1260.58 255.324C1304.66 208.408 1332.47 217.187 1292.03 265.262ZM1450.44 274.054C1453.1 282.025 1443.99 294.581 1430.21 301.953C1416.43 309.325 1397.45 333.955 1388.04 356.684C1372.75 393.609 1373.51 399.887 1395.25 415.791C1415.09 430.301 1415.81 433.583 1399.16 433.583C1373.03 433.583 1353.59 409.76 1345.99 368.458C1340.22 337.081 1339.94 337.224 1338.23 372.483C1336.19 414.619 1311.19 407.754 1308.9 364.434C1307.71 342.161 1306.07 340.937 1301.4 358.846C1298.1 371.467 1290 378.448 1283.37 374.359C1262.54 361.49 1270.27 309.39 1297.32 280.345C1317.99 258.176 1335.85 253.188 1384.46 256.001C1418.09 257.955 1447.78 266.082 1450.44 274.054ZM1479.73 313.545C1479.73 319.172 1496.12 333.447 1516.14 345.274C1556.85 369.318 1589.25 358.39 1576.42 324.942C1570.13 308.557 1573.3 305.066 1589 311.096C1600.54 315.525 1609.98 324.46 1609.98 330.973C1609.98 345.469 1688.22 394.391 1711.51 394.456C1720.8 394.482 1742.81 380.089 1760.43 362.467L1792.47 330.425L1784.54 380.037C1775.48 436.683 1799.91 495.308 1848.47 533.51C1865.3 546.756 1876.33 566.32 1872.97 576.987C1858.9 621.624 1708.33 853.611 1682.39 870.608C1666.89 880.768 1636.53 892.607 1614.92 896.932C1581.33 903.652 1569.63 897.948 1534.19 857.596C1511.41 831.638 1492.76 802.292 1492.76 792.38C1492.76 770.277 1414.39 720.131 1379.86 720.131C1366.01 720.131 1348.21 726.618 1340.27 734.55C1306.87 767.959 1266.22 646.319 1289.76 583.37C1299.21 558.127 1298.88 558.088 1279.54 581.741C1242.43 627.12 1195.39 582.692 1211.69 517.685C1222.11 476.213 1243.94 486.855 1235.8 529.433C1229.56 562.087 1250.44 587.095 1264.69 564.041C1269.18 556.76 1266.66 550.807 1259.08 550.807C1224.6 550.807 1249.92 529.967 1287.62 527.323C1315.42 525.37 1341.12 511.589 1362.51 487.154C1380.42 466.705 1405.32 446.465 1417.86 442.192C1447.17 432.176 1447.35 386.524 1418.14 370.178C1396.97 358.338 1397.1 355.928 1420.16 330.451C1444.36 303.698 1479.73 293.669 1479.73 313.545ZM1655.57 316.359C1651.14 323.522 1640.54 329.292 1632.01 329.188C1622.68 329.058 1624.3 323.939 1636.03 316.359C1661.05 300.182 1665.56 300.182 1655.57 316.359ZM1831.41 319.615C1831.41 324.994 1845.71 329.383 1863.2 329.383C1880.69 329.383 1897.72 324.994 1901.02 319.615C1904.35 314.235 1890.04 309.846 1869.24 309.846C1848.43 309.846 1831.41 314.235 1831.41 319.615ZM757.384 340.845C825.751 371.897 866.571 421.834 940.371 564.731C981.047 643.506 1020.66 699.304 1062.14 736.347L1123.63 791.221L1061.48 854.366C1017.19 899.341 990.96 916.287 970.276 913.252C921.328 906.075 929.078 881.627 985.697 864.669C1015.24 855.825 1036.73 845.887 1033.45 842.605C1030.16 839.309 1011.63 842.657 992.262 850.016C945.841 867.665 845.38 867.17 834.296 849.247C815.983 819.603 855.969 807.138 964.271 808.727C1025.19 809.613 1078.16 805.249 1082 799.036C1085.85 792.823 1065.61 790.87 1037.02 794.712C988.836 801.172 945.711 784.735 945.711 759.909C945.711 754.882 967.697 744.358 994.554 736.517L1043.4 722.267L994.646 729.145C967.827 732.922 931.188 732.336 913.24 727.829C872.316 717.552 869.723 681.135 909.892 680.861C926.004 680.744 947.691 675.286 958.059 668.722C970.497 660.855 959.413 659.083 925.496 663.525C864.8 671.457 802.437 650.8 802.437 622.77C802.437 610.006 815.24 602.581 838.255 601.995C857.962 601.487 885.796 596.095 900.124 590.012C917.134 582.783 903.588 581.038 861.049 585.011C789.203 591.692 733.743 570.722 726.71 534.2C723.219 516.122 732.089 511.693 772.18 511.537C799.571 511.42 830.649 505.845 841.264 499.137C853.924 491.127 836.054 489.343 789.164 493.94C738.211 498.942 710.637 495.568 692.871 482.166C658.798 456.494 674.636 420.805 720.627 419.646C740.542 419.138 768.572 413.837 782.899 407.859C798.79 401.229 780.073 399.718 734.942 403.99C694.226 407.846 650.267 406.843 637.255 401.776C617.405 394.052 620.739 389.52 657.873 373.798C720.289 347.358 702.288 339.569 633.53 363.261C587.083 379.269 564.758 380.181 514.612 368.159C480.669 360.005 442.154 345.209 429.025 335.271C388.361 304.441 688.482 309.533 757.384 340.845ZM1870.48 408.028C1870.48 420.323 1879.55 437.92 1890.63 447.116C1906.16 460.01 1907.07 466.145 1894.56 473.869C1883.91 480.46 1891.5 486.816 1916.75 492.443C1980.22 506.562 1983.33 509.622 1935.61 510.899C1901.17 511.837 1894.8 515.223 1909.56 524.757C1925.29 534.93 1923.27 537.418 1899.16 537.587C1842.71 537.965 1769.33 416.221 1798.02 369.8C1810.53 349.559 1870.48 381.184 1870.48 408.028ZM590.782 403.065C647.297 420.467 659.163 429.311 659.163 454.032C659.163 472.488 669.127 487.089 685.212 492.195C701.754 497.444 711.262 511.902 711.262 531.817C711.262 553.451 723.336 569.407 750.246 583.317C771.685 594.402 788.565 607.739 787.771 612.962C783.186 642.998 793.489 657.781 827.184 669.529C847.959 676.771 868.03 694.485 871.807 708.891C875.572 723.296 890.811 738.275 905.672 742.156C937.583 750.505 941.387 779.134 912.081 790.375C877.903 803.491 779.799 799.271 744.437 783.159C700.295 763.048 701.819 733.495 747.081 731.854C766.788 731.137 797.552 725.419 815.462 719.141C839.102 710.858 831.274 709.62 786.859 714.622C704.867 723.856 620.088 700.75 620.088 669.152C620.088 645.056 664.763 628.957 731.659 628.957C748.253 628.957 764.56 624.554 767.908 619.188C771.255 613.809 726.176 611.021 667.733 612.975C555.458 616.739 519.991 605.851 533.12 571.66C538.969 556.408 558.519 550.807 605.891 550.807C641.501 550.807 673.386 546.418 676.733 541.039C680.081 535.659 640.863 533.145 589.583 535.438C428.556 542.641 360.709 488.327 507.604 469.818C548.438 464.673 591.902 454.162 604.223 446.465C621.234 435.81 615.672 434.924 581.013 442.792C505.716 459.854 370.087 452.925 315.252 429.193C287.301 417.093 267.164 404.446 270.512 401.086C283.758 387.839 421.145 370.725 470.301 376.195C498.956 379.386 553.166 391.473 590.782 403.065ZM1276.8 405.853C1280.66 412.092 1301.53 420.74 1323.16 425.065C1369.69 434.364 1374.23 455.764 1333.2 472.254C1307.13 482.739 1306.7 484.12 1329.29 484.862C1347.11 485.435 1350.59 489.785 1340.95 499.424C1321.64 518.74 1264.64 501.664 1236.82 468.229C1223.95 452.756 1221.76 447.428 1231.96 456.377C1261.46 482.283 1277.69 475.224 1252.54 447.428C1239.98 433.557 1233.56 415.973 1238.26 408.354C1248.63 391.59 1267.24 390.379 1276.8 405.853ZM1245.28 421.743C1245.28 437.008 1295.21 462.134 1315.76 457.197C1325.13 454.957 1313.09 443.599 1289.03 431.968C1264.98 420.35 1245.28 415.739 1245.28 421.743ZM367.834 460.063C410.412 471.863 420.351 479.991 415.401 498.968C410.465 517.828 420.624 526.386 463.046 539.098C497.953 549.557 514.677 561.227 510.457 572.207C502.837 592.07 550.496 628.957 583.761 628.957C599.847 628.957 605.825 637.762 603.65 658.263C601.28 680.614 612.13 693.235 649.394 711.431C676.264 724.56 698.237 743.277 698.237 753.032C698.237 762.775 710.22 779.147 724.873 789.411C749.699 806.799 749.933 808.675 728.286 816.985C685.46 833.409 545.885 841.25 537.51 827.691C532.977 820.371 564.172 801.941 608.391 785.816C651.83 769.978 685.356 755.012 682.894 752.55C680.432 750.089 646.242 759.18 606.92 772.752C522.726 801.811 354.171 808.193 362.754 782C365.698 773.052 391.097 758.346 419.204 749.32C505.195 721.733 582.81 691.542 578.551 687.334C576.324 685.133 533.472 697.325 483.326 714.426C350.394 759.74 239.604 754.009 259.245 702.821C263.908 690.669 291.352 679.572 329.528 674.401C404.734 664.215 474.039 643.988 482.922 629.621C486.478 623.864 467.501 626.964 440.761 636.511C380.221 658.12 241.623 660.047 197.39 639.885C133.646 610.852 159.605 589.908 286.337 568.13C335.597 559.664 382.487 546.079 390.536 537.926C401.464 526.88 396.906 526.216 372.614 535.347C308.701 559.339 207.68 565.356 121.259 550.312C73.1841 541.937 31.2178 530.84 28.0007 525.643C24.7965 520.459 64.3923 506.054 115.984 493.641C167.589 481.241 227.386 463.149 248.877 453.459C270.368 443.755 293.813 437.92 300.977 440.473C308.141 443.039 338.228 451.844 367.834 460.063ZM1570.91 490.437C1619.76 507.916 1641.01 505.025 1609.6 485.175C1599.07 478.506 1575.79 473.296 1557.88 473.595C1529.67 474.051 1531.42 476.305 1570.91 490.437ZM1994.22 551.511C1994.22 561.449 1979.56 577.56 1961.66 587.316C1931.48 603.767 1931.23 604.6 1958.4 598.687C1974.52 595.183 1987.71 597.15 1987.71 603.037C1987.71 620.425 1956.94 626.352 1932.35 613.718C1914.9 604.73 1909.56 607.283 1909.56 624.593C1909.56 641.357 1905.77 643.401 1894.88 632.513C1872.53 610.162 1892.27 550.807 1922.06 550.807C1935.83 550.807 1950.91 544.633 1955.57 537.092C1966.93 518.701 1994.22 528.873 1994.22 551.511ZM1492.76 560.941C1492.76 581.377 1545.01 615.059 1564.88 607.427C1580.85 601.305 1576.53 594.219 1545.25 575.19C1500.89 548.215 1492.76 546.001 1492.76 560.941ZM1766.28 582.914C1766.28 586.235 1779.46 595.991 1795.59 604.587C1822.16 618.745 1823.23 618.172 1807.02 598.531C1790.38 578.355 1766.28 569.12 1766.28 582.914ZM1252.5 630.09C1257.31 637.879 1254.73 650.774 1246.76 658.745C1224.98 680.522 1229.32 699.721 1251.8 681.056C1263.06 671.705 1271.33 670.441 1271.33 678.074C1271.33 700.32 1231.83 708.122 1223.88 687.426C1219.83 676.836 1211.26 671.418 1204.84 675.391C1191.45 683.661 1188.76 637.723 1201.87 624.619C1215.17 611.308 1242.73 614.291 1252.5 630.09ZM1219.23 655.775C1219.23 663.356 1225.1 665.948 1232.26 661.519C1239.42 657.091 1245.28 650.891 1245.28 647.726C1245.28 644.561 1239.42 641.982 1232.26 641.982C1225.1 641.982 1219.23 648.195 1219.23 655.775ZM1583.93 661.519C1583.93 672.265 1586.24 681.056 1589.05 681.056C1591.86 681.056 1597.54 672.265 1601.67 661.519C1605.79 650.774 1603.48 641.982 1596.55 641.982C1589.61 641.982 1583.93 650.774 1583.93 661.519ZM1907.69 653.574C1926.61 665.557 1917.06 720.131 1896.06 720.131C1889.6 720.131 1888.17 709.868 1892.87 697.338C1900.26 677.618 1898.52 676.889 1880.05 691.906C1868.32 701.44 1849.47 707.302 1838.19 704.931C1819.54 700.985 1819.54 697.924 1838.3 671.288C1860.2 640.171 1878.97 635.378 1907.69 653.574ZM1710.95 662.574C1699.06 674.466 1715.02 708.135 1728.57 699.747C1734.98 695.788 1740.23 698.757 1740.23 706.338C1740.23 727.386 1775.52 722.762 1784.02 700.594C1788.94 687.764 1783.6 681.056 1768.48 681.056C1755.81 681.056 1739.48 675.104 1732.2 667.81C1724.91 660.529 1715.35 658.172 1710.95 662.574ZM1671.6 706.064C1665.94 727.725 1667.63 732.818 1677.3 723.153C1684.88 715.573 1688.5 701.701 1685.37 692.297C1682.11 682.541 1676.21 688.455 1671.6 706.064ZM1323.15 795.441C1323.63 844.975 1356.56 908.185 1401.66 946.14C1443.54 981.372 1444.04 983.092 1428.34 1035.54L1412.3 1089.01L1389.12 1037.22C1365.66 984.824 1285.52 883.959 1275.4 894.079C1272.36 897.101 1285.48 916.352 1304.53 936.853C1346.97 982.505 1401.58 1087.51 1401.58 1123.47C1401.58 1174.54 1422.16 1149.29 1435.72 1081.57C1443.25 1043.96 1453.63 1003.71 1458.79 992.118C1465.64 976.748 1456.07 963.893 1423.47 944.668C1368.27 912.093 1327.58 819.056 1344.04 763.022C1353.83 729.718 1355.41 732.14 1362.63 791.768L1370.53 856.893L1376.29 799.297C1379.45 767.607 1388.86 739.46 1397.18 736.725C1407.69 733.273 1410.22 747.366 1405.46 782.859C1401.69 810.98 1404.07 837.356 1410.77 841.498C1417.62 845.731 1420.56 832.94 1417.51 812.165C1414.54 791.899 1418.53 771.345 1426.38 766.487C1435.53 760.847 1440.66 771.723 1440.66 796.744C1440.66 818.235 1446.75 839.583 1454.2 844.194C1463 849.625 1464.78 840.729 1459.31 818.912C1454.02 797.877 1456.27 785.256 1465.3 785.256C1473.23 785.256 1479.73 791.365 1479.73 798.841C1479.73 806.317 1502.98 843.217 1531.4 880.859C1619.79 997.927 1633.15 1157.55 1564.38 1274.9C1510.5 1366.84 1435.16 1368.24 1298.33 1279.8C1244.26 1244.84 1204.8 1206.61 1177.53 1162.73C1155.24 1126.9 1134.34 1100.26 1131.06 1103.55C1122.13 1112.46 1173.79 1191.53 1211.94 1227.37L1245.35 1258.76L1177.19 1296.04C1139.69 1316.54 1096.28 1336.51 1080.7 1340.43C1065.12 1344.34 1038.63 1362.79 1021.84 1381.43L991.298 1415.35L1028.88 1386.85C1086.12 1343.43 1093.4 1352.3 1056.27 1420.22C1037.67 1454.24 1030.1 1470.37 1039.44 1456.04C1048.78 1441.71 1085.86 1399.67 1121.82 1362.6C1194.11 1288.12 1246.74 1266.54 1289.58 1293.79C1395.59 1361.24 1487.47 1378.96 1530.32 1340.18C1553.92 1318.82 1556.24 1319.47 1580.92 1354.35C1595.15 1374.46 1639.52 1456.33 1679.54 1536.27C1751.35 1679.74 1826.74 1771.59 1985.27 1908.76C2008.1 1928.51 2026.78 1956.35 2026.78 1970.63C2026.78 2003.19 2005.89 2004.68 1997.53 1972.7C1994.09 1959.56 1981.82 1948.81 1970.25 1948.81C1954.57 1948.81 1950.95 1957.38 1956 1982.47C1962.31 2013.81 1961.43 2013.43 1943.21 1977.04L1923.65 1937.96L1930.51 1977.04C1937.06 2014.27 1936.43 2014.93 1916.95 1990.83C1905.73 1976.92 1896.53 1960.81 1896.53 1955.01C1896.53 1949.22 1889.5 1944.47 1880.9 1944.47C1868.75 1944.47 1868.75 1947.95 1880.9 1960.1C1911.93 1991.13 1899.28 2009.48 1860.71 1989.37C1841.02 1979.09 1814.1 1970.65 1800.9 1970.6C1787.69 1970.56 1762 1958.8 1743.79 1944.47C1725.57 1930.15 1702.99 1918.42 1693.63 1918.42C1669.28 1918.42 1636.03 1866.25 1636.03 1828.06C1636.03 1805.3 1613.12 1774.02 1559.45 1723.51C1478.1 1646.93 1461.2 1621.64 1434.17 1535.95C1424.83 1506.33 1416.6 1493.07 1415.9 1506.47C1414.78 1527.68 1411.78 1528.54 1392.93 1512.98C1373.45 1496.91 1372.72 1497.85 1385.72 1522.23C1393.66 1537.15 1409.27 1556.92 1420.4 1566.17C1454.99 1594.86 1443.8 1635.85 1391.54 1671.9C1317.57 1722.95 1265.93 1739.27 1175.69 1740.11C1020.5 1741.59 938.586 1663.16 898.938 1475.19C843.127 1210.56 979.589 879.491 1186.14 778.431C1224.74 759.545 1260.07 734.341 1264.64 722.424C1271.79 703.772 1276.41 705.27 1297.9 733.247C1311.62 751.105 1322.99 779.095 1323.15 795.441ZM1546.28 725.901C1570.24 749.854 1649.06 794.933 1649.06 784.67C1649.06 771.15 1572.84 720.262 1552.45 720.183C1545.89 720.157 1543.11 722.723 1546.28 725.901ZM1857.46 733.156C1857.46 740.32 1845.38 746.181 1830.64 746.181C1815.89 746.181 1807.44 752.042 1811.87 759.206C1816.3 766.37 1810.74 772.231 1799.51 772.231C1782.34 772.231 1781.69 768.076 1795.35 746.181C1812.08 719.415 1857.46 709.894 1857.46 733.156ZM1580.45 786.871C1589.3 795.78 1599.81 799.779 1603.81 795.767C1607.82 791.755 1600.59 784.474 1587.75 779.577C1569.19 772.518 1567.69 774.002 1580.45 786.871ZM1804.44 801.537C1803.94 810.498 1798.49 829.541 1792.33 843.868C1782.95 865.698 1780.99 863.067 1780.22 827.587C1779.72 804.311 1785.17 785.256 1792.33 785.256C1799.49 785.256 1804.94 792.589 1804.44 801.537ZM815.462 828.746C815.462 865.815 634.402 910.139 614.513 877.941C609.512 869.853 613.106 860.813 622.523 857.883C631.927 854.952 666.001 843.998 698.237 833.565C775.045 808.701 815.462 807.034 815.462 828.746ZM1754.42 874.268C1744.32 893.141 1744.49 901.725 1755.05 905.254C1763.09 907.925 1751.32 928.465 1728.9 950.881C1685.12 994.658 1677.76 1009.84 1705.48 999.203C1728.35 990.425 1760.13 1154.34 1749.02 1223.75C1739.81 1281.25 1700.56 1319.37 1650.87 1319.08C1584.04 1318.69 1575.41 1302.61 1602.15 1228.25C1619.41 1180.25 1624.32 1139.34 1619.84 1080.97C1612.24 981.88 1637.65 905.841 1682.13 894.678C1698.7 890.51 1722.43 875.883 1734.85 862.155C1762.39 831.729 1773.5 838.606 1754.42 874.268ZM922.722 894.691C944.005 926.498 929.247 940.422 858.73 955.062C788.93 969.546 692.585 966.289 675.144 948.849C661.989 935.707 701.624 904.499 756.876 884.506C812.583 864.33 906.258 870.087 922.722 894.691ZM1622.81 925.274C1622.55 937.739 1597.43 977.061 1597.15 965.417C1597.05 960.624 1593.4 947.442 1589.05 936.111C1583.87 922.591 1588.33 915.505 1602.08 915.505C1613.59 915.505 1622.92 919.908 1622.81 925.274ZM975.759 969.389C947.131 1019.08 867.275 1058.1 793.436 1058.49C685.825 1059.05 718.296 989.422 832.485 974.769C869.684 969.988 914.777 957.836 932.686 947.768C988.368 916.456 1002.23 923.411 975.759 969.389ZM919.739 1071.65C903.198 1102.57 845.367 1119.94 825.413 1099.99C815.175 1089.75 819.968 1082.55 842.645 1074.16C859.929 1067.75 882.866 1059.21 893.611 1055.17C928.57 1042 933.832 1045.32 919.739 1071.65ZM1816.34 1381.15C1844.03 1436.67 1879.03 1523.25 1894.11 1573.56C1910.78 1629.18 1938.61 1685.34 1965.11 1716.84C2055.33 1824.1 2071.52 1854.26 2053.95 1882.4C2045.12 1896.54 2042.71 1905.14 2048.61 1901.51C2054.51 1897.86 2060.19 1908.97 2061.22 1926.19C2062.26 1943.41 2061.39 1957.5 2059.3 1957.5C2057.22 1957.5 1991.9 1896.54 1914.15 1822.04C1778.24 1691.8 1769.15 1679.57 1678.21 1504.52L1583.61 1322.44L1640.86 1328.89C1687.01 1334.1 1702.82 1330.21 1722.43 1308.86C1735.8 1294.3 1751.07 1281.88 1756.37 1281.28C1761.66 1280.69 1788.65 1325.62 1816.34 1381.15ZM1649.06 1778.41C1649.06 1790.1 1655.31 1803.53 1662.95 1808.25C1685.29 1822.05 1687.48 1809.69 1667.53 1782.41C1652.08 1761.28 1649.06 1760.63 1649.06 1778.41Z" stroke="white" stroke-width="26.0499" mask="url(#path-1-inside-1_1460_281)"/>
</svg>
