<svg width="2579" height="1747" viewBox="0 0 2579 1747" fill="none" xmlns="http://www.w3.org/2000/svg">
<mask id="path-1-inside-1_1460_280" fill="white">
<path fill-rule="evenodd" clip-rule="evenodd" d="M2129.13 25.0917C2086.15 40.6174 2032.55 56.8465 2010.03 61.1577C1972.74 68.2954 1969.73 66.4197 1976.46 40.2917C1982 18.7485 1963.99 29.9109 1904.28 85.0194C1860.52 125.397 1808.23 166.204 1788.06 175.686C1767.9 185.181 1707.45 240.85 1653.72 299.423C1600 357.983 1552.3 406.566 1547.71 407.373C1543.14 408.181 1535.59 388.5 1530.92 363.636C1514.85 277.984 1401.17 184.504 1318.44 188.906C1298.68 189.961 1254.68 182.98 1220.64 173.394C1135.92 149.532 1055.02 171.7 982.366 238.661C952.513 266.183 915.536 295.411 900.205 303.617C868.75 320.445 820.128 407.399 820.128 446.787C820.128 461.062 813.498 487.281 805.41 505.06C790.874 536.932 790.236 537.05 756.566 513.956C737.797 501.088 691.559 471.495 653.813 448.18C616.067 424.879 573.814 391.353 559.903 373.678C546.005 356.003 528.93 345.049 521.974 349.347C515.019 353.659 505.602 351.132 501.031 343.746C496.472 336.361 469.432 318.426 440.933 303.89C412.448 289.354 365.949 256.532 337.62 230.925C298.154 195.275 286.106 189.649 286.106 206.855C286.106 223.513 278.539 227.538 256.8 222.406C240.675 218.616 176.215 211.426 113.526 206.438C-9.93738 196.604 -25.1504 205.174 33.6441 251.426C62.2338 273.907 64.3308 279.547 46.669 286.32C7.6333 301.311 23.1069 341.91 78.6713 370.265C120.703 391.704 128.687 401.004 117.082 414.993C99.4719 436.21 143.574 483.413 192.496 495.695C214.743 501.283 221.359 510.179 216.657 528.179C212.229 545.112 222.336 561.966 248.49 581.308C269.565 596.886 283.996 616.996 280.544 625.984C273.706 643.789 331.511 695.393 358.277 695.393C368.593 695.393 372.188 705.527 367.825 722.212C362.745 741.658 368.124 750.945 387.375 755.985C401.989 759.802 416.785 773.777 420.25 787.05C425.017 805.246 417.463 813.165 389.446 819.326C348.118 828.391 273.081 905.798 273.081 939.35C273.081 951.242 258.845 975.95 241.444 994.25C194.58 1043.55 188.068 1086.92 221.19 1129.03C237.732 1150.05 261.684 1164.29 280.544 1164.29C329.818 1164.29 318.981 1201.97 263.313 1224.15C177.153 1258.47 154.229 1273.27 126.186 1312.64C41.1464 1432.07 185.541 1609.65 351.687 1589.97C396.024 1584.72 427.479 1588.63 456.199 1602.96C484.815 1617.25 516.387 1621.21 560.216 1616.01C617.512 1609.22 623.491 1611.07 627.203 1636.7C629.43 1652.19 651.781 1678.81 676.854 1695.88C716.723 1722.99 733.46 1726.13 810.164 1720.87C858.421 1717.55 906.132 1708.02 916.187 1699.65C930.423 1687.85 944.217 1690.15 978.251 1709.98C1083.6 1771.36 1219.39 1754.92 1303.76 1670.56C1331.47 1642.84 1364.7 1620.16 1377.59 1620.16C1390.49 1620.16 1408.07 1613.13 1416.68 1604.52C1428.65 1592.55 1442.22 1592.39 1474.64 1603.91C1638.93 1662.19 1911.93 1605.71 2003.64 1494.45C2036.86 1454.12 2042.36 1452.05 2084.13 1464.03C2299.45 1525.78 2578.49 1379.74 2578.49 1205.29C2578.49 1154.5 2571.97 1141.03 2526.39 1097.67C2497.74 1070.41 2474.29 1036.06 2474.29 1021.34C2474.29 1006.62 2454.7 973.202 2430.76 947.074C2381.44 893.255 2309.7 875.216 2220.56 894.219C2187.45 901.279 2167.13 900.536 2164.33 892.161C2154.41 862.399 2104.72 810.768 2067.46 791.491C2021.16 767.552 1901.64 765.415 1859.86 787.779C1836.89 800.062 1823.26 798.616 1789.14 780.238C1740.05 753.81 1743.18 729.128 1798.04 710.007C1822.34 701.528 1836.07 687.683 1836.07 671.61C1836.07 657.79 1844.86 639.191 1855.61 630.269C1866.36 621.347 1875.15 606.55 1875.15 597.381C1875.15 588.224 1893.38 574.353 1915.68 566.59C1945.61 556.157 1954.05 546.818 1947.93 530.863C1943.28 518.762 1948.92 499.03 1960.77 485.927C1972.39 473.097 1978.45 456.998 1974.23 450.16C1969.99 443.335 1981.14 428.174 1999 416.478C2016.85 404.781 2031.45 383.095 2031.45 368.272C2031.45 353.45 2043.17 326.41 2057.5 308.201C2071.82 289.98 2083.55 266.847 2083.55 256.779C2083.55 246.711 2096.06 221.547 2111.35 200.863C2127.54 178.955 2135.7 154.26 2130.89 141.704C2125.54 127.767 2139.37 99.7376 2170.04 62.291C2196.13 30.458 2215.18 2.71492 2212.38 0.643961C2209.58 -1.44003 2172.12 9.56602 2129.13 25.0917ZM2135.65 76.7095C2111.34 101.782 2070.12 137.093 2044.02 155.172C2001.51 184.634 1993.1 186.262 1963.31 170.802C1932.93 155.041 1931.52 150.795 1947.04 121.645C1959.82 97.6275 1987.68 82.8312 2059.61 61.8611C2187.08 24.6749 2186.23 24.5186 2135.65 76.7095ZM1920.98 134.84C1902.96 170.398 1869.27 221.677 1846.1 248.808C1809.55 291.621 1813.02 289.875 1872.29 235.601C1936.31 176.962 1966.32 167.259 1966.32 205.174C1966.32 225.063 1893.49 295.398 1849.1 318.374C1831.19 327.648 1797.34 335.892 1773.88 336.7C1740.5 337.846 1732.9 333.809 1738.97 318.153C1743.23 307.146 1750 281.839 1754.03 261.937C1758.91 237.75 1792.1 200.017 1854.06 148.216C1905.05 105.586 1948.35 70.5877 1950.26 70.4444C1952.18 70.3142 1939 99.2816 1920.98 134.84ZM2122.62 153.843C2122.62 179.255 2017.48 267.303 1992.8 262.549C1954.59 255.19 1973.24 220.088 2037.82 177.835C2110.25 130.437 2122.62 126.947 2122.62 153.843ZM1300.12 221.573C1353.82 252.676 1357.86 253.471 1335.85 228.541C1313.92 203.715 1313.54 200.446 1332.59 200.446C1344.45 200.446 1354.15 206.307 1354.15 213.471C1354.15 220.635 1366.08 226.496 1380.66 226.496C1442.37 226.496 1508.8 306.196 1527.2 402.333C1531.3 423.824 1538.91 452.348 1544.08 465.712C1552.39 487.216 1550.23 488.284 1525.45 475.025C1510.03 466.78 1497.42 448.858 1497.42 435.208C1497.42 421.557 1490.94 406.37 1483.01 401.473C1473.6 395.664 1471.23 401.069 1476.19 416.986C1480.37 430.414 1478.17 450.199 1471.27 460.945C1461.16 476.705 1458.71 474.816 1458.55 451.176C1458.44 435.051 1452.49 421.87 1445.32 421.87C1438.16 421.87 1432.3 431.665 1432.3 443.635C1432.3 466.233 1396.57 513.044 1379.33 513.044C1373.9 513.044 1365.51 489.6 1360.66 460.945C1355.82 432.29 1346.7 408.845 1340.38 408.845C1334.08 408.845 1332.11 417.181 1336.02 427.366C1344.28 448.871 1320.04 500.02 1301.59 500.02C1294.68 500.02 1289.03 485.848 1289.03 468.525C1289.03 432.069 1276.96 395.82 1264.84 395.82C1260.23 395.82 1256.98 428.317 1257.61 468.03C1258.7 536.763 1256.35 542.155 1208.77 579.836C1181.27 601.614 1158.78 628.445 1158.78 639.464C1158.78 655.811 1155.17 656.514 1139.24 643.294C1110.58 619.51 1115.43 569.612 1148.66 546.349C1164.57 535.2 1171.72 526.069 1164.55 526.069C1157.36 526.069 1132.61 546.076 1109.54 570.537C1058.5 624.655 1050.11 695.393 1094.73 695.393C1110.66 695.393 1119.62 702.127 1116.45 711.675C1113.46 720.636 1096.86 727.956 1079.55 727.956C1051.92 727.956 1048.06 722.042 1048.06 679.738C1048.06 634.307 1033.79 626.882 1028.07 669.344C1021.9 715.204 1030.44 735.836 1060.29 747.194C1096.33 760.896 1125.34 805.975 1112 827.557C1106.78 836.011 1096.04 825.148 1085.98 801.234C1075.22 775.653 1059.54 760.518 1043.78 760.518C1006.78 760.518 985.206 727.539 994.91 685.794C1001.11 659.119 999.846 654.86 990.051 669.344C982.77 680.089 975.958 700.603 974.916 714.931C973.861 729.284 968.469 720.505 962.907 695.393L952.826 649.806L954.858 701.906C956.017 731.759 963.376 754.006 972.09 754.006C980.439 754.006 992.161 759.346 998.14 765.858C1004.44 772.749 1002.16 773.79 992.708 768.346C983.76 763.201 976.427 764.556 976.427 771.381C976.427 788.678 1014.76 801.586 1041.21 793.185C1056.07 788.47 1068.11 796.871 1078.18 818.948C1086.38 836.961 1100.26 851.693 1109.01 851.693C1119.99 851.693 1120.73 855.873 1111.4 865.199C1102.2 874.408 1086.87 874.512 1063.21 865.525C1044.13 858.27 1028.53 857.098 1028.53 862.907C1028.53 868.716 1065.02 883.617 1109.62 896.017C1219.41 926.547 1372.32 1007.97 1453.86 1079.34C1517.3 1134.85 1520.79 1141.17 1516.95 1193.53C1514.71 1224.01 1512.08 1251.88 1511.09 1255.47C1510.1 1259.05 1497.7 1240 1483.51 1213.13C1451.04 1151.62 1440.56 1149.7 1465.7 1209.88C1490.26 1268.65 1471.18 1268.23 1426.02 1209.02C1385.19 1155.49 1370.86 1156.32 1399.01 1210.61C1422.54 1255.95 1412.11 1271.64 1382.19 1235.93C1370.18 1221.6 1332.12 1187.12 1297.62 1159.32C1239.66 1112.62 1228.24 1108.62 1147.98 1106.98C1075.48 1105.51 1045.92 1097.34 969.498 1057.72C919.131 1031.61 856.624 1006.25 830.6 1001.36C784.857 992.779 783.71 991.216 796.54 954.446C803.821 933.528 822.212 907.713 837.399 897.072C858.682 882.171 860.232 877.742 844.159 877.742C832.697 877.742 816.025 886.534 807.103 897.28C789.233 918.823 715.929 924.32 715.929 904.131C715.929 897.15 733.135 882.535 754.183 871.66C817.028 839.162 812.665 824.653 748.569 852.995C683.249 881.897 637.779 876.258 637.779 839.267C637.779 821.279 651.468 813.516 694.633 807.056C725.906 802.367 762.532 789.499 776.039 778.453C799.9 758.955 799.848 758.642 774.541 767.473C683.223 799.293 592.192 795.751 592.192 760.388C592.192 745.487 612.628 740.082 680.11 737.125C728.472 735.015 768.028 728.998 768.028 723.762C768.028 718.526 745.222 716.416 717.335 719.073C685.385 722.12 644.474 714.097 606.624 697.36C503.922 651.929 539.714 612.907 650.374 649.663C686.492 661.659 723.34 668.523 732.262 664.928C741.197 661.32 736.769 657.778 722.441 657.061C654.816 653.649 520.555 568.765 520.555 529.43C520.555 504.018 567.874 519.882 624.754 564.35C673.415 602.395 720.943 630.269 737.159 630.269C742.617 630.269 719.472 612.763 685.737 591.363C622.019 550.96 546.605 449.327 546.605 403.857C546.605 379.878 549.301 380.464 582.423 411.763C602.117 430.362 654.399 466.637 698.606 492.361C769.865 533.819 781.184 546.128 798.546 600.976C809.317 634.997 817.536 674.554 816.807 688.881C812.821 767.161 822.29 802.914 855.751 835.997C875.341 855.379 891.466 877.013 891.57 884.072C891.882 904.548 937.965 907.869 971.621 889.855C988.592 880.764 1002.48 862.79 1002.48 849.895C1002.48 819.26 968.248 831.751 959.391 865.616C940.739 936.954 905.168 847.824 917.802 761.417C922.973 726.067 921.67 721.17 912.357 740.981C900.961 765.207 900.036 764.751 898.994 734.468C898.382 716.559 891.752 693.114 884.263 682.369C874.142 667.846 872.606 674.528 878.297 708.418L885.956 754.006L853.967 695.393C812.378 619.185 800.317 549.775 821.886 510.765C831.082 494.106 837.047 472.797 835.133 463.42C823.006 403.987 908.046 291.621 965.174 291.621C979.788 291.621 987.342 285.72 982.588 278.023C970.227 258.029 1001.92 225.689 1061.09 197.893C1129.26 165.878 1219.38 174.8 1300.12 221.573ZM261.619 241.462C290.808 252.442 306.568 272.305 336.07 335.319C338.935 341.441 328.841 342.509 313.628 337.677C271.375 324.261 263.352 364.248 300.395 403.687C325.728 430.636 327.786 438.255 312.338 447.816C296.617 457.519 297.711 463.928 319.189 488.128L344.718 516.9L288.164 508.108C226.908 498.6 129.807 454.393 129.807 436.028C129.807 420.372 161.406 409.64 190.425 415.423C272.013 431.691 299.743 433.397 292.501 421.675C288.138 414.615 271.323 408.845 255.133 408.845C207.409 408.845 95.7599 371.529 62.7156 344.528C37.7338 324.105 35.194 316.394 48.8572 302.51C62.5985 288.534 80.4426 290.696 148.98 314.61C269.721 356.758 283.462 349.425 168.882 304.008C115.154 282.712 56.5418 253.796 38.6326 239.768L6.07026 214.24L116.782 221.442C177.674 225.389 242.85 234.402 261.619 241.462ZM446.209 322.92C497.058 351.9 514.589 371.971 540.808 431.261C558.509 471.273 571.313 505.698 569.255 507.756C564.149 512.862 425.551 466.637 388.065 447.334C350.241 427.848 286.106 368.78 286.106 353.437C286.106 333.561 341.996 358.595 419.377 413.13C460.445 442.072 497.344 462.443 501.369 458.418C505.407 454.38 483.538 436.289 452.76 418.21C395.06 384.306 358.863 343.304 319.567 267.316L296.891 223.461L340.342 255.411C364.243 272.982 411.875 303.356 446.209 322.92ZM1724.76 315.639C1713.73 352.773 1686.77 403.596 1664.83 428.565C1642.91 453.534 1631.16 473.97 1638.74 473.97C1646.31 473.97 1663.04 458.6 1675.9 439.818C1735.22 353.281 1783.97 320.367 1783.97 366.866C1783.97 400.392 1749.72 444.273 1689.46 487.919C1660.5 508.903 1642.48 526.069 1649.45 526.069C1656.41 526.069 1685.13 508.655 1713.27 487.359C1772.46 442.567 1797 438.06 1797 471.951C1797 505.542 1753.29 541.777 1681.9 567.384C1648.49 579.367 1631.61 589.631 1644.37 590.178C1657.14 590.738 1688.94 582.272 1715.06 571.357C1746.68 558.137 1766.88 555.87 1775.55 564.532C1796.28 585.268 1748.4 627.755 1687.93 642.278C1634.54 655.107 1634.63 655.146 1701.16 648.217C1746.73 643.463 1771.3 646.355 1778.05 657.269C1795.9 686.159 1743.65 708.418 1658 708.418C1581.36 708.418 1575.53 706.308 1567.85 675.687C1563.16 657.009 1566.48 634.71 1575.56 623.769C1585.71 611.552 1588.42 586.753 1583.04 555.558C1556.08 399.35 1551.05 417.142 1648.36 324.509C1697.06 278.14 1738.69 241.983 1740.86 244.158C1743.04 246.333 1735.78 278.505 1724.76 315.639ZM2057.5 272.005C2057.5 290.878 1961.01 369.77 1937.93 369.77C1918.72 369.77 1983.68 290.357 2018.42 271.38C2059.41 248.99 2057.5 248.964 2057.5 272.005ZM1966.32 282.673C1966.32 306.665 1903.32 364.313 1842.1 396.341C1788.31 424.475 1812.15 423.316 1884.42 394.27C1907.42 385.022 1929.54 380.75 1933.56 384.775C1948.03 399.233 1923.86 434.856 1882.09 460.684C1831.76 491.788 1810.02 494.028 1810.02 468.109C1810.02 457.715 1802.13 444.533 1792.49 438.802C1777.8 430.076 1777.8 421.518 1792.53 386.051C1802.19 362.776 1817.82 343.72 1827.28 343.72C1836.72 343.72 1867.48 326.306 1895.62 305.01C1952.61 261.885 1966.32 257.561 1966.32 282.673ZM1081.58 365.016C1062.16 389.698 1055.12 416.204 1056.53 459.447C1057.85 500.215 1060.05 506.988 1063.36 480.482C1072.51 407.074 1081.29 382.131 1107 356.42C1121.15 342.275 1127.29 330.696 1120.65 330.696C1114 330.696 1096.41 346.143 1081.58 365.016ZM1379.07 380.555C1387.96 397.24 1391.92 419.513 1387.86 430.076C1383.73 440.86 1386.14 445.784 1393.37 441.316C1413.45 428.903 1408.52 387.862 1384.58 368.103C1364.86 351.848 1364.36 352.968 1379.07 380.555ZM2018.42 365.485C2018.42 378.627 1976.91 421.87 1964.3 421.87C1943.02 421.87 1953.57 371.607 1976.09 365.719C2012.4 356.237 2018.42 356.198 2018.42 365.485ZM1207.03 430.844C1194.91 453.69 1171.92 481.537 1155.95 492.713C1139.99 503.901 1132.31 513.044 1138.89 513.044C1145.46 513.044 1167.28 497.297 1187.37 478.047C1221.84 445.015 1241.63 451.033 1208.27 484.39C1196.39 496.268 1196.34 500.02 1208.02 500.02C1225.87 500.02 1241.55 447.868 1234.16 413.13C1230.1 393.971 1224.79 397.435 1207.03 430.844ZM1953.3 466.064C1953.3 476.041 1943.84 487.828 1932.29 492.27C1915.77 498.613 1914.56 504.266 1926.62 518.802C1938.8 533.481 1936.6 540.136 1915.92 551.207C1901.6 558.879 1883.64 565.144 1876.01 565.144C1852 565.144 1860.92 541.23 1888.16 532.582C1909.02 525.965 1911.6 519.453 1901.11 499.837C1891 480.964 1893.24 472.302 1910.87 462.039C1942.33 443.726 1953.3 444.768 1953.3 466.064ZM435.372 483.165C495.703 501.739 507.53 510.322 507.53 535.513C507.53 561.719 502.867 564.558 471.711 557.277C422.125 545.711 334.715 496.92 328.307 477.226C321.13 455.175 349.603 456.751 435.372 483.165ZM957.554 477.226C946.196 513.982 940.166 606.55 949.817 596.026C960.693 584.174 977.196 460.945 967.909 460.945C964.978 460.945 960.315 468.278 957.554 477.226ZM1394.16 518.658C1426.67 487.516 1432.3 485.666 1432.3 506.115C1432.3 528.583 1433.82 528.726 1456.25 508.434C1479.1 487.763 1481.85 490.967 1516.14 578.391C1562.73 697.152 1570.74 759.02 1545.76 807.239C1511.15 874.03 1462.57 916.817 1421.35 916.817C1400.3 916.817 1369.34 927.953 1352.52 941.564C1323.06 965.413 1320.3 965.478 1276.18 943.323C1251.01 930.689 1207.87 913.04 1180.31 904.131C1133.89 889.113 1130.66 884.893 1136.5 847.004C1140.41 821.631 1135.55 797.86 1123.7 784.393C1109.13 767.825 1107.94 756.454 1118.66 736.409C1139.36 697.751 1135.94 682.369 1106.68 682.369C1087.74 682.369 1080.63 673.681 1080.63 650.575C1080.63 606.016 1100.1 598.957 1117.51 637.185C1135.8 677.315 1191.09 683.554 1178.56 644.088C1172.84 626.036 1179.09 614.378 1200.48 603.216C1216.95 594.633 1256.79 561.067 1289.03 528.635L1347.64 469.671L1351.83 512.432L1356.03 555.193L1394.16 518.658ZM1562.25 525.509C1579.27 557.329 1579.38 600.338 1562.44 610.797C1550.61 618.117 1497.42 515.61 1497.42 485.458C1497.42 466.376 1547 497.011 1562.25 525.509ZM863.905 506.558C853.823 532.816 866.366 578.859 892.26 610.731L913.426 636.781L903.501 610.731C898.03 596.404 893.771 568.739 894.031 549.267C894.305 528.297 889.043 517.213 881.15 522.097C873.048 527.098 871.068 521.836 876.122 508.668C880.694 496.75 881.501 486.995 877.92 486.995C874.338 486.995 868.034 495.799 863.905 506.558ZM1880.75 498.548C1890.33 514.06 1863.39 535.018 1819.71 545.971C1772.64 557.785 1772.68 533.025 1819.79 507.47C1862.16 484.481 1871.24 483.152 1880.75 498.548ZM383.077 537.935C385.721 542.22 377.137 559.022 363.995 575.252C340.668 604.063 338.844 604.258 287.057 583.535C207.761 551.82 216.983 524.845 306.126 527.763C345.786 529.065 380.42 533.637 383.077 537.935ZM1216.62 545.19C1202.72 555.714 1197.94 564.506 1206.03 564.727C1214.11 564.962 1228 556.352 1236.93 545.607C1257.52 520.794 1249.1 520.625 1216.62 545.19ZM546.891 591.35C594.276 616.71 557.09 634.163 469.237 627.807C387.193 621.868 354.187 605 371.081 577.661C382.816 558.684 503.388 568.062 546.891 591.35ZM1859.73 587.495C1854.97 612.177 1790.29 653.961 1777.16 640.819C1772.6 636.26 1778.8 617.361 1790.94 598.84C1816.21 560.286 1866.56 551.976 1859.73 587.495ZM1405.99 598.019C1380.99 628.146 1395.8 631.207 1430.49 603.099C1451.43 586.114 1455.05 578.169 1441.85 578.169C1431.19 578.169 1415.05 587.104 1405.99 598.019ZM387.049 627.976C400.022 636.221 399.918 642.981 386.515 661.307C372.071 681.066 364.751 682.043 334.416 668.21C288.19 647.149 288.503 617.179 334.95 617.439C354.643 617.556 378.088 622.298 387.049 627.976ZM1447.14 657.439C1426.19 674.423 1422.57 682.369 1435.78 682.369C1455.28 682.369 1492.53 647.045 1483.01 637.589C1480.19 634.801 1464.05 643.724 1447.14 657.439ZM543.348 672.105C577.773 700.551 559.421 712.026 492.252 704.068C416.147 695.055 385.825 675.622 416.46 655.498C438.354 641.119 518.562 651.617 543.348 672.105ZM1823.05 668.575C1823.05 675.322 1817.19 684.453 1810.02 688.881C1802.86 693.309 1797 687.787 1797 676.625C1797 665.462 1802.86 656.319 1810.02 656.319C1817.19 656.319 1823.05 661.828 1823.05 668.575ZM1191.34 708.418C1177.97 723.189 1174.28 734.468 1182.81 734.468C1191.08 734.468 1197.85 729.102 1197.85 722.524C1197.85 715.96 1213.98 704.706 1233.67 697.504C1263.55 686.602 1264.96 684.257 1242.2 683.397C1227.2 682.837 1204.3 694.091 1191.34 708.418ZM852.521 733.726C858.708 761.86 866.471 769.935 881.71 764.087C897.574 758.004 900.844 762.341 895.569 782.517C891.765 797.04 894.044 818.544 900.622 830.306C918.596 862.412 893.888 856.043 859.828 819.794C841.71 800.505 833.062 779.534 837.972 766.744C842.44 755.126 840.043 734.312 832.645 720.505C824.478 705.227 824.088 695.393 831.655 695.393C838.506 695.393 847.897 712.638 852.521 733.726ZM466.501 719.958C476.335 726.184 507.282 725.898 536.601 719.307C601.257 704.784 612.133 713.251 572.746 747.415C539.115 776.578 481.48 782.582 481.48 756.923C481.48 745.383 465.551 741.814 429.38 745.266C381.501 749.825 364.36 738.714 385.968 717.106C398.121 704.954 445.466 706.634 466.501 719.958ZM1775.08 791.257C1887.64 854.219 1939.72 899.312 1962.32 953.378C1989.95 1019.49 1974.48 1069.42 1923.14 1079.85C1900.32 1084.49 1863.54 1094.5 1841.4 1102.1C1809.54 1113.04 1788.62 1111.15 1741.13 1093.02C1696.59 1076 1656.65 1071.61 1586.02 1075.96C1492.44 1081.71 1489.71 1080.97 1416.02 1029.99C1374.82 1001.49 1341.13 973.359 1341.13 967.484C1341.13 932.278 1495.86 918.654 1507.27 952.857C1509.41 959.278 1544.7 947.478 1585.69 926.625C1651.46 893.19 1671.24 889.256 1753.75 893.216C1805.19 895.678 1840.36 893.294 1831.9 887.915C1823.45 882.536 1777.97 878.055 1730.82 877.938C1665.68 877.795 1630.16 885.31 1582.76 909.315C1529.36 936.342 1484.4 941.773 1484.4 921.168C1484.4 917.938 1501.62 893.659 1522.65 867.205C1543.7 840.765 1565.02 801.547 1570.04 780.055C1575.07 758.564 1581.17 737.347 1583.61 732.905C1593.3 715.257 1694.09 745.969 1775.08 791.257ZM1731.87 734.468C1731.87 741.632 1729.29 747.493 1726.13 747.493C1722.96 747.493 1716.76 741.632 1712.34 734.468C1707.91 727.305 1710.5 721.443 1718.08 721.443C1725.66 721.443 1731.87 727.305 1731.87 734.468ZM1282.64 747.285C1278.28 754.331 1255.96 765.533 1233.03 772.162C1202.89 780.876 1199.06 784.549 1219.2 785.396C1234.53 786.034 1260.9 775.041 1277.81 760.948C1294.73 746.868 1304.51 735.146 1299.56 734.898C1294.61 734.664 1286.99 740.238 1282.64 747.285ZM1424.61 771.641C1430.24 780.759 1421.96 791.609 1403.83 798.877C1383.99 806.835 1380.93 811.25 1394.89 811.797C1424.86 812.956 1451.68 779 1430.92 766.184C1420.94 760.01 1418.65 762.003 1424.61 771.641ZM487.992 786.568C492.564 793.953 481.61 799.593 462.711 799.593C444.385 799.593 429.38 793.732 429.38 786.568C429.38 779.404 440.751 773.543 454.662 773.543C468.572 773.543 483.564 779.404 487.992 786.568ZM624.754 813.321C624.754 828.013 588.285 838.668 537.943 838.668C486.286 838.668 484.007 815.692 533.215 790.957C563.303 775.822 624.754 790.84 624.754 813.321ZM1341.13 799.593C1341.13 806.757 1347.34 812.618 1354.92 812.618C1362.5 812.618 1365.09 806.757 1360.66 799.593C1356.23 792.429 1350.03 786.568 1346.87 786.568C1343.7 786.568 1341.13 792.429 1341.13 799.593ZM1445.32 812.631C1398.33 836.571 1340.71 890.767 1362.26 890.767C1368.95 890.767 1384.8 878.641 1397.48 863.819C1410.18 848.996 1437.86 830.84 1459 823.467C1480.13 816.095 1497.42 804.777 1497.42 798.316C1497.42 791.856 1495.95 787.206 1494.17 787.988C1492.38 788.769 1470.4 799.853 1445.32 812.631ZM2104.75 842.458C2155.14 897.449 2158.57 911.92 2123.79 922.952C2110.12 927.302 2091.11 940.262 2081.58 951.75C2069.01 966.885 2080.11 964.553 2121.79 943.297C2192.86 907.035 2315.02 894.011 2370.08 916.817C2392.07 925.922 2421.58 948.012 2435.66 965.921C2468.24 1007.34 2469.81 1060.07 2438.48 1060.17C2409.01 1060.26 2314.06 1086.56 2320.38 1092.88C2323.04 1095.53 2350.73 1091.96 2381.92 1084.96C2487.11 1061.33 2565.47 1110.6 2565.47 1200.4C2565.47 1285.02 2489.86 1375.67 2376.61 1426.82C2325.26 1450.01 2287.13 1456.35 2196.38 1456.79C2090.77 1457.3 2079.21 1454.81 2056.36 1426.6C2037.54 1403.38 2031.45 1400.98 2031.45 1416.79C2031.45 1428.32 2010.48 1460.95 1984.84 1489.31C1902.98 1579.93 1694.79 1635.62 1550.59 1605.47C1467.34 1588.07 1424.76 1586.73 1384.37 1600.21C1360.53 1608.18 1351.87 1601.67 1330.29 1559.57C1316.16 1532.01 1289.36 1495.24 1270.75 1477.88C1252.15 1460.5 1236.93 1439.31 1236.93 1430.79C1236.93 1371.93 1109.14 1301.47 1059.47 1332.94C1037.25 1347.03 1037.88 1347.83 1066.4 1341.7C1113.54 1331.6 1182.55 1366.33 1207.92 1412.95C1220.29 1435.69 1252.4 1480.25 1279.26 1511.98C1306.13 1543.69 1328.1 1583.34 1328.1 1600.07C1328.1 1641 1251.67 1706.36 1181.82 1725.17C1084.48 1751.39 930.397 1700.06 974.369 1656.09C1006.87 1623.59 987.303 1617.35 953.634 1649.46C873.218 1726.17 727.729 1734.3 659.335 1665.91C633.859 1640.43 631.045 1581.01 654.06 1554.58C663.021 1544.31 654.803 1549.48 635.799 1566.07C572.511 1621.36 426.137 1614.48 449.152 1557.29C453.985 1545.31 461.148 1527.59 465.082 1517.92C469.015 1508.25 457.241 1515.34 438.902 1533.66C399.254 1573.33 353.445 1586.87 295.784 1575.97C198.279 1557.54 116.925 1472.63 116.834 1389.18C116.769 1334.9 171.07 1273.45 240.519 1249.21C286.289 1233.23 294.494 1233.45 308.04 1251.06C320.844 1267.72 324.152 1262.85 327.578 1222.28C333.152 1156.1 402.51 1099 489.152 1089.23C540.9 1083.39 549.639 1085.49 543.231 1102.19C538.308 1115.02 560.906 1106.86 606.78 1079.24C708.739 1017.84 784.349 1002.21 863.514 1026.14C939.632 1049.14 1003.36 1091.1 1036.06 1139.76C1063.63 1180.79 1077.19 1180.51 1055.18 1139.36C1032.45 1096.9 1062.76 1105.47 1108.84 1154.52C1135.81 1183.24 1143.95 1187.7 1134.16 1168.41C1113.08 1126.92 1114.61 1125.22 1172.67 1125.22C1226.49 1125.22 1273.32 1151.51 1360.66 1230.78C1393.15 1260.26 1410.59 1265.89 1464.04 1264.11C1524.99 1262.09 1528.92 1259.78 1539.3 1219.7C1547.08 1189.65 1544.64 1166.57 1530.87 1139.95C1520.2 1119.33 1515.16 1098.8 1519.66 1094.31C1535.76 1078.21 1694.58 1086.53 1740.96 1105.91C1786.37 1124.89 1787.28 1126.52 1763.34 1145.81C1733.81 1169.6 1742.96 1166.75 1829.56 1125.18C1884.59 1098.75 1913.87 1094 2018.42 1094.45C2086.48 1094.75 2158.61 1101.77 2178.72 1110.07C2198.83 1118.35 2211.97 1119.77 2207.91 1113.21C2198.86 1098.55 2084.39 1073.12 2027.55 1073.12C1986.29 1073.12 1985.86 1072.45 1985.86 1008.94C1985.86 936.654 1957.53 887.824 1890.84 845.18C1868.44 830.853 1849.88 815.158 1849.61 810.312C1848.71 794.682 1892.72 788.196 1977.76 791.4C2055.1 794.305 2063.85 797.834 2104.75 842.458ZM483.082 884.242C506.866 886.091 513.092 893.177 509.953 914.837C507.322 933.007 514.264 945.745 529.49 950.643C542.489 954.837 565.921 964.371 581.564 971.834C597.22 979.311 622.123 982.267 636.906 978.399C651.703 974.531 667.489 977.318 671.983 984.599C676.489 991.88 699.934 994.628 724.095 990.708C748.257 986.787 768.028 989.066 768.028 995.787C768.028 1002.49 757.778 1008.04 745.235 1008.12C732.692 1008.19 690.204 1023.47 650.804 1042.06C603.524 1064.38 554.485 1076.52 506.579 1077.75C451.262 1079.19 421.096 1088.16 379.86 1115.45C302.478 1166.66 242.408 1162.05 220.031 1103.16C206.394 1067.31 232.548 1003.32 266.087 990.447C277.093 986.214 286.106 969.229 286.106 952.688C286.106 910.748 321.104 865.225 369.179 844.646C406.274 828.769 411.706 829.641 430.982 854.545C442.614 869.563 466.059 882.926 483.082 884.242ZM507.53 851.693C522.756 861.526 519.161 864.366 491.249 864.522C471.555 864.626 455.43 858.856 455.43 851.693C455.43 835.229 482.04 835.229 507.53 851.693ZM624.754 871.23C624.754 884.88 611 890.767 579.167 890.767C508.585 890.767 523.785 855.235 595.448 852.722C613.266 852.096 624.754 859.351 624.754 871.23ZM1430.63 873.366C1414.43 893.008 1415.5 893.581 1442.07 879.423C1472.38 863.272 1479.84 851.693 1459.94 851.693C1453.66 851.693 1440.47 861.448 1430.63 873.366ZM702.904 909.966C702.904 930.428 639.538 968.917 605.868 968.917C576.106 968.917 581.329 934.362 614.634 911.047C651.586 885.154 702.904 884.528 702.904 909.966ZM572.655 915.424C572.655 931.405 535.963 944.235 527.836 931.093C524.228 925.244 525.009 916.7 529.594 912.115C542.007 899.703 572.655 902.06 572.655 915.424ZM781.053 940.77C781.053 953.769 722.702 981.942 695.779 981.942C669.768 981.942 671.996 960.021 699.648 943.909C727.391 927.758 781.053 925.687 781.053 940.77ZM1490.91 1164.29C1495.34 1171.45 1501.54 1177.32 1504.71 1177.32C1507.87 1177.32 1510.45 1171.45 1510.45 1164.29C1510.45 1157.13 1504.24 1151.27 1496.66 1151.27C1489.08 1151.27 1486.48 1157.13 1490.91 1164.29Z"/>
</mask>
<path fill-rule="evenodd" clip-rule="evenodd" d="M2129.13 25.0917C2086.15 40.6174 2032.55 56.8465 2010.03 61.1577C1972.74 68.2954 1969.73 66.4197 1976.46 40.2917C1982 18.7485 1963.99 29.9109 1904.28 85.0194C1860.52 125.397 1808.23 166.204 1788.06 175.686C1767.9 185.181 1707.45 240.85 1653.72 299.423C1600 357.983 1552.3 406.566 1547.71 407.373C1543.14 408.181 1535.59 388.5 1530.92 363.636C1514.85 277.984 1401.17 184.504 1318.44 188.906C1298.68 189.961 1254.68 182.98 1220.64 173.394C1135.92 149.532 1055.02 171.7 982.366 238.661C952.513 266.183 915.536 295.411 900.205 303.617C868.75 320.445 820.128 407.399 820.128 446.787C820.128 461.062 813.498 487.281 805.41 505.06C790.874 536.932 790.236 537.05 756.566 513.956C737.797 501.088 691.559 471.495 653.813 448.18C616.067 424.879 573.814 391.353 559.903 373.678C546.005 356.003 528.93 345.049 521.974 349.347C515.019 353.659 505.602 351.132 501.031 343.746C496.472 336.361 469.432 318.426 440.933 303.89C412.448 289.354 365.949 256.532 337.62 230.925C298.154 195.275 286.106 189.649 286.106 206.855C286.106 223.513 278.539 227.538 256.8 222.406C240.675 218.616 176.215 211.426 113.526 206.438C-9.93738 196.604 -25.1504 205.174 33.6441 251.426C62.2338 273.907 64.3308 279.547 46.669 286.32C7.6333 301.311 23.1069 341.91 78.6713 370.265C120.703 391.704 128.687 401.004 117.082 414.993C99.4719 436.21 143.574 483.413 192.496 495.695C214.743 501.283 221.359 510.179 216.657 528.179C212.229 545.112 222.336 561.966 248.49 581.308C269.565 596.886 283.996 616.996 280.544 625.984C273.706 643.789 331.511 695.393 358.277 695.393C368.593 695.393 372.188 705.527 367.825 722.212C362.745 741.658 368.124 750.945 387.375 755.985C401.989 759.802 416.785 773.777 420.25 787.05C425.017 805.246 417.463 813.165 389.446 819.326C348.118 828.391 273.081 905.798 273.081 939.35C273.081 951.242 258.845 975.95 241.444 994.25C194.58 1043.55 188.068 1086.92 221.19 1129.03C237.732 1150.05 261.684 1164.29 280.544 1164.29C329.818 1164.29 318.981 1201.97 263.313 1224.15C177.153 1258.47 154.229 1273.27 126.186 1312.64C41.1464 1432.07 185.541 1609.65 351.687 1589.97C396.024 1584.72 427.479 1588.63 456.199 1602.96C484.815 1617.25 516.387 1621.21 560.216 1616.01C617.512 1609.22 623.491 1611.07 627.203 1636.7C629.43 1652.19 651.781 1678.81 676.854 1695.88C716.723 1722.99 733.46 1726.13 810.164 1720.87C858.421 1717.55 906.132 1708.02 916.187 1699.65C930.423 1687.85 944.217 1690.15 978.251 1709.98C1083.6 1771.36 1219.39 1754.92 1303.76 1670.56C1331.47 1642.84 1364.7 1620.16 1377.59 1620.16C1390.49 1620.16 1408.07 1613.13 1416.68 1604.52C1428.65 1592.55 1442.22 1592.39 1474.64 1603.91C1638.93 1662.19 1911.93 1605.71 2003.64 1494.45C2036.86 1454.12 2042.36 1452.05 2084.13 1464.03C2299.45 1525.78 2578.49 1379.74 2578.49 1205.29C2578.49 1154.5 2571.97 1141.03 2526.39 1097.67C2497.74 1070.41 2474.29 1036.06 2474.29 1021.34C2474.29 1006.62 2454.7 973.202 2430.76 947.074C2381.44 893.255 2309.7 875.216 2220.56 894.219C2187.45 901.279 2167.13 900.536 2164.33 892.161C2154.41 862.399 2104.72 810.768 2067.46 791.491C2021.16 767.552 1901.64 765.415 1859.86 787.779C1836.89 800.062 1823.26 798.616 1789.14 780.238C1740.05 753.81 1743.18 729.128 1798.04 710.007C1822.34 701.528 1836.07 687.683 1836.07 671.61C1836.07 657.79 1844.86 639.191 1855.61 630.269C1866.36 621.347 1875.15 606.55 1875.15 597.381C1875.15 588.224 1893.38 574.353 1915.68 566.59C1945.61 556.157 1954.05 546.818 1947.93 530.863C1943.28 518.762 1948.92 499.03 1960.77 485.927C1972.39 473.097 1978.45 456.998 1974.23 450.16C1969.99 443.335 1981.14 428.174 1999 416.478C2016.85 404.781 2031.45 383.095 2031.45 368.272C2031.45 353.45 2043.17 326.41 2057.5 308.201C2071.82 289.98 2083.55 266.847 2083.55 256.779C2083.55 246.711 2096.06 221.547 2111.35 200.863C2127.54 178.955 2135.7 154.26 2130.89 141.704C2125.54 127.767 2139.37 99.7376 2170.04 62.291C2196.13 30.458 2215.18 2.71492 2212.38 0.643961C2209.58 -1.44003 2172.12 9.56602 2129.13 25.0917ZM2135.65 76.7095C2111.34 101.782 2070.12 137.093 2044.02 155.172C2001.51 184.634 1993.1 186.262 1963.31 170.802C1932.93 155.041 1931.52 150.795 1947.04 121.645C1959.82 97.6275 1987.68 82.8312 2059.61 61.8611C2187.08 24.6749 2186.23 24.5186 2135.65 76.7095ZM1920.98 134.84C1902.96 170.398 1869.27 221.677 1846.1 248.808C1809.55 291.621 1813.02 289.875 1872.29 235.601C1936.31 176.962 1966.32 167.259 1966.32 205.174C1966.32 225.063 1893.49 295.398 1849.1 318.374C1831.19 327.648 1797.34 335.892 1773.88 336.7C1740.5 337.846 1732.9 333.809 1738.97 318.153C1743.23 307.146 1750 281.839 1754.03 261.937C1758.91 237.75 1792.1 200.017 1854.06 148.216C1905.05 105.586 1948.35 70.5877 1950.26 70.4444C1952.18 70.3142 1939 99.2816 1920.98 134.84ZM2122.62 153.843C2122.62 179.255 2017.48 267.303 1992.8 262.549C1954.59 255.19 1973.24 220.088 2037.82 177.835C2110.25 130.437 2122.62 126.947 2122.62 153.843ZM1300.12 221.573C1353.82 252.676 1357.86 253.471 1335.85 228.541C1313.92 203.715 1313.54 200.446 1332.59 200.446C1344.45 200.446 1354.15 206.307 1354.15 213.471C1354.15 220.635 1366.08 226.496 1380.66 226.496C1442.37 226.496 1508.8 306.196 1527.2 402.333C1531.3 423.824 1538.91 452.348 1544.08 465.712C1552.39 487.216 1550.23 488.284 1525.45 475.025C1510.03 466.78 1497.42 448.858 1497.42 435.208C1497.42 421.557 1490.94 406.37 1483.01 401.473C1473.6 395.664 1471.23 401.069 1476.19 416.986C1480.37 430.414 1478.17 450.199 1471.27 460.945C1461.16 476.705 1458.71 474.816 1458.55 451.176C1458.44 435.051 1452.49 421.87 1445.32 421.87C1438.16 421.87 1432.3 431.665 1432.3 443.635C1432.3 466.233 1396.57 513.044 1379.33 513.044C1373.9 513.044 1365.51 489.6 1360.66 460.945C1355.82 432.29 1346.7 408.845 1340.38 408.845C1334.08 408.845 1332.11 417.181 1336.02 427.366C1344.28 448.871 1320.04 500.02 1301.59 500.02C1294.68 500.02 1289.03 485.848 1289.03 468.525C1289.03 432.069 1276.96 395.82 1264.84 395.82C1260.23 395.82 1256.98 428.317 1257.61 468.03C1258.7 536.763 1256.35 542.155 1208.77 579.836C1181.27 601.614 1158.78 628.445 1158.78 639.464C1158.78 655.811 1155.17 656.514 1139.24 643.294C1110.58 619.51 1115.43 569.612 1148.66 546.349C1164.57 535.2 1171.72 526.069 1164.55 526.069C1157.36 526.069 1132.61 546.076 1109.54 570.537C1058.5 624.655 1050.11 695.393 1094.73 695.393C1110.66 695.393 1119.62 702.127 1116.45 711.675C1113.46 720.636 1096.86 727.956 1079.55 727.956C1051.92 727.956 1048.06 722.042 1048.06 679.738C1048.06 634.307 1033.79 626.882 1028.07 669.344C1021.9 715.204 1030.44 735.836 1060.29 747.194C1096.33 760.896 1125.34 805.975 1112 827.557C1106.78 836.011 1096.04 825.148 1085.98 801.234C1075.22 775.653 1059.54 760.518 1043.78 760.518C1006.78 760.518 985.206 727.539 994.91 685.794C1001.11 659.119 999.846 654.86 990.051 669.344C982.77 680.089 975.958 700.603 974.916 714.931C973.861 729.284 968.469 720.505 962.907 695.393L952.826 649.806L954.858 701.906C956.017 731.759 963.376 754.006 972.09 754.006C980.439 754.006 992.161 759.346 998.14 765.858C1004.44 772.749 1002.16 773.79 992.708 768.346C983.76 763.201 976.427 764.556 976.427 771.381C976.427 788.678 1014.76 801.586 1041.21 793.185C1056.07 788.47 1068.11 796.871 1078.18 818.948C1086.38 836.961 1100.26 851.693 1109.01 851.693C1119.99 851.693 1120.73 855.873 1111.4 865.199C1102.2 874.408 1086.87 874.512 1063.21 865.525C1044.13 858.27 1028.53 857.098 1028.53 862.907C1028.53 868.716 1065.02 883.617 1109.62 896.017C1219.41 926.547 1372.32 1007.97 1453.86 1079.34C1517.3 1134.85 1520.79 1141.17 1516.95 1193.53C1514.71 1224.01 1512.08 1251.88 1511.09 1255.47C1510.1 1259.05 1497.7 1240 1483.51 1213.13C1451.04 1151.62 1440.56 1149.7 1465.7 1209.88C1490.26 1268.65 1471.18 1268.23 1426.02 1209.02C1385.19 1155.49 1370.86 1156.32 1399.01 1210.61C1422.54 1255.95 1412.11 1271.64 1382.19 1235.93C1370.18 1221.6 1332.12 1187.12 1297.62 1159.32C1239.66 1112.62 1228.24 1108.62 1147.98 1106.98C1075.48 1105.51 1045.92 1097.34 969.498 1057.72C919.131 1031.61 856.624 1006.25 830.6 1001.36C784.857 992.779 783.71 991.216 796.54 954.446C803.821 933.528 822.212 907.713 837.399 897.072C858.682 882.171 860.232 877.742 844.159 877.742C832.697 877.742 816.025 886.534 807.103 897.28C789.233 918.823 715.929 924.32 715.929 904.131C715.929 897.15 733.135 882.535 754.183 871.66C817.028 839.162 812.665 824.653 748.569 852.995C683.249 881.897 637.779 876.258 637.779 839.267C637.779 821.279 651.468 813.516 694.633 807.056C725.906 802.367 762.532 789.499 776.039 778.453C799.9 758.955 799.848 758.642 774.541 767.473C683.223 799.293 592.192 795.751 592.192 760.388C592.192 745.487 612.628 740.082 680.11 737.125C728.472 735.015 768.028 728.998 768.028 723.762C768.028 718.526 745.222 716.416 717.335 719.073C685.385 722.12 644.474 714.097 606.624 697.36C503.922 651.929 539.714 612.907 650.374 649.663C686.492 661.659 723.34 668.523 732.262 664.928C741.197 661.32 736.769 657.778 722.441 657.061C654.816 653.649 520.555 568.765 520.555 529.43C520.555 504.018 567.874 519.882 624.754 564.35C673.415 602.395 720.943 630.269 737.159 630.269C742.617 630.269 719.472 612.763 685.737 591.363C622.019 550.96 546.605 449.327 546.605 403.857C546.605 379.878 549.301 380.464 582.423 411.763C602.117 430.362 654.399 466.637 698.606 492.361C769.865 533.819 781.184 546.128 798.546 600.976C809.317 634.997 817.536 674.554 816.807 688.881C812.821 767.161 822.29 802.914 855.751 835.997C875.341 855.379 891.466 877.013 891.57 884.072C891.882 904.548 937.965 907.869 971.621 889.855C988.592 880.764 1002.48 862.79 1002.48 849.895C1002.48 819.26 968.248 831.751 959.391 865.616C940.739 936.954 905.168 847.824 917.802 761.417C922.973 726.067 921.67 721.17 912.357 740.981C900.961 765.207 900.036 764.751 898.994 734.468C898.382 716.559 891.752 693.114 884.263 682.369C874.142 667.846 872.606 674.528 878.297 708.418L885.956 754.006L853.967 695.393C812.378 619.185 800.317 549.775 821.886 510.765C831.082 494.106 837.047 472.797 835.133 463.42C823.006 403.987 908.046 291.621 965.174 291.621C979.788 291.621 987.342 285.72 982.588 278.023C970.227 258.029 1001.92 225.689 1061.09 197.893C1129.26 165.878 1219.38 174.8 1300.12 221.573ZM261.619 241.462C290.808 252.442 306.568 272.305 336.07 335.319C338.935 341.441 328.841 342.509 313.628 337.677C271.375 324.261 263.352 364.248 300.395 403.687C325.728 430.636 327.786 438.255 312.338 447.816C296.617 457.519 297.711 463.928 319.189 488.128L344.718 516.9L288.164 508.108C226.908 498.6 129.807 454.393 129.807 436.028C129.807 420.372 161.406 409.64 190.425 415.423C272.013 431.691 299.743 433.397 292.501 421.675C288.138 414.615 271.323 408.845 255.133 408.845C207.409 408.845 95.7599 371.529 62.7156 344.528C37.7338 324.105 35.194 316.394 48.8572 302.51C62.5985 288.534 80.4426 290.696 148.98 314.61C269.721 356.758 283.462 349.425 168.882 304.008C115.154 282.712 56.5418 253.796 38.6326 239.768L6.07026 214.24L116.782 221.442C177.674 225.389 242.85 234.402 261.619 241.462ZM446.209 322.92C497.058 351.9 514.589 371.971 540.808 431.261C558.509 471.273 571.313 505.698 569.255 507.756C564.149 512.862 425.551 466.637 388.065 447.334C350.241 427.848 286.106 368.78 286.106 353.437C286.106 333.561 341.996 358.595 419.377 413.13C460.445 442.072 497.344 462.443 501.369 458.418C505.407 454.38 483.538 436.289 452.76 418.21C395.06 384.306 358.863 343.304 319.567 267.316L296.891 223.461L340.342 255.411C364.243 272.982 411.875 303.356 446.209 322.92ZM1724.76 315.639C1713.73 352.773 1686.77 403.596 1664.83 428.565C1642.91 453.534 1631.16 473.97 1638.74 473.97C1646.31 473.97 1663.04 458.6 1675.9 439.818C1735.22 353.281 1783.97 320.367 1783.97 366.866C1783.97 400.392 1749.72 444.273 1689.46 487.919C1660.5 508.903 1642.48 526.069 1649.45 526.069C1656.41 526.069 1685.13 508.655 1713.27 487.359C1772.46 442.567 1797 438.06 1797 471.951C1797 505.542 1753.29 541.777 1681.9 567.384C1648.49 579.367 1631.61 589.631 1644.37 590.178C1657.14 590.738 1688.94 582.272 1715.06 571.357C1746.68 558.137 1766.88 555.87 1775.55 564.532C1796.28 585.268 1748.4 627.755 1687.93 642.278C1634.54 655.107 1634.63 655.146 1701.16 648.217C1746.73 643.463 1771.3 646.355 1778.05 657.269C1795.9 686.159 1743.65 708.418 1658 708.418C1581.36 708.418 1575.53 706.308 1567.85 675.687C1563.16 657.009 1566.48 634.71 1575.56 623.769C1585.71 611.552 1588.42 586.753 1583.04 555.558C1556.08 399.35 1551.05 417.142 1648.36 324.509C1697.06 278.14 1738.69 241.983 1740.86 244.158C1743.04 246.333 1735.78 278.505 1724.76 315.639ZM2057.5 272.005C2057.5 290.878 1961.01 369.77 1937.93 369.77C1918.72 369.77 1983.68 290.357 2018.42 271.38C2059.41 248.99 2057.5 248.964 2057.5 272.005ZM1966.32 282.673C1966.32 306.665 1903.32 364.313 1842.1 396.341C1788.31 424.475 1812.15 423.316 1884.42 394.27C1907.42 385.022 1929.54 380.75 1933.56 384.775C1948.03 399.233 1923.86 434.856 1882.09 460.684C1831.76 491.788 1810.02 494.028 1810.02 468.109C1810.02 457.715 1802.13 444.533 1792.49 438.802C1777.8 430.076 1777.8 421.518 1792.53 386.051C1802.19 362.776 1817.82 343.72 1827.28 343.72C1836.72 343.72 1867.48 326.306 1895.62 305.01C1952.61 261.885 1966.32 257.561 1966.32 282.673ZM1081.58 365.016C1062.16 389.698 1055.12 416.204 1056.53 459.447C1057.85 500.215 1060.05 506.988 1063.36 480.482C1072.51 407.074 1081.29 382.131 1107 356.42C1121.15 342.275 1127.29 330.696 1120.65 330.696C1114 330.696 1096.41 346.143 1081.58 365.016ZM1379.07 380.555C1387.96 397.24 1391.92 419.513 1387.86 430.076C1383.73 440.86 1386.14 445.784 1393.37 441.316C1413.45 428.903 1408.52 387.862 1384.58 368.103C1364.86 351.848 1364.36 352.968 1379.07 380.555ZM2018.42 365.485C2018.42 378.627 1976.91 421.87 1964.3 421.87C1943.02 421.87 1953.57 371.607 1976.09 365.719C2012.4 356.237 2018.42 356.198 2018.42 365.485ZM1207.03 430.844C1194.91 453.69 1171.92 481.537 1155.95 492.713C1139.99 503.901 1132.31 513.044 1138.89 513.044C1145.46 513.044 1167.28 497.297 1187.37 478.047C1221.84 445.015 1241.63 451.033 1208.27 484.39C1196.39 496.268 1196.34 500.02 1208.02 500.02C1225.87 500.02 1241.55 447.868 1234.16 413.13C1230.1 393.971 1224.79 397.435 1207.03 430.844ZM1953.3 466.064C1953.3 476.041 1943.84 487.828 1932.29 492.27C1915.77 498.613 1914.56 504.266 1926.62 518.802C1938.8 533.481 1936.6 540.136 1915.92 551.207C1901.6 558.879 1883.64 565.144 1876.01 565.144C1852 565.144 1860.92 541.23 1888.16 532.582C1909.02 525.965 1911.6 519.453 1901.11 499.837C1891 480.964 1893.24 472.302 1910.87 462.039C1942.33 443.726 1953.3 444.768 1953.3 466.064ZM435.372 483.165C495.703 501.739 507.53 510.322 507.53 535.513C507.53 561.719 502.867 564.558 471.711 557.277C422.125 545.711 334.715 496.92 328.307 477.226C321.13 455.175 349.603 456.751 435.372 483.165ZM957.554 477.226C946.196 513.982 940.166 606.55 949.817 596.026C960.693 584.174 977.196 460.945 967.909 460.945C964.978 460.945 960.315 468.278 957.554 477.226ZM1394.16 518.658C1426.67 487.516 1432.3 485.666 1432.3 506.115C1432.3 528.583 1433.82 528.726 1456.25 508.434C1479.1 487.763 1481.85 490.967 1516.14 578.391C1562.73 697.152 1570.74 759.02 1545.76 807.239C1511.15 874.03 1462.57 916.817 1421.35 916.817C1400.3 916.817 1369.34 927.953 1352.52 941.564C1323.06 965.413 1320.3 965.478 1276.18 943.323C1251.01 930.689 1207.87 913.04 1180.31 904.131C1133.89 889.113 1130.66 884.893 1136.5 847.004C1140.41 821.631 1135.55 797.86 1123.7 784.393C1109.13 767.825 1107.94 756.454 1118.66 736.409C1139.36 697.751 1135.94 682.369 1106.68 682.369C1087.74 682.369 1080.63 673.681 1080.63 650.575C1080.63 606.016 1100.1 598.957 1117.51 637.185C1135.8 677.315 1191.09 683.554 1178.56 644.088C1172.84 626.036 1179.09 614.378 1200.48 603.216C1216.95 594.633 1256.79 561.067 1289.03 528.635L1347.64 469.671L1351.83 512.432L1356.03 555.193L1394.16 518.658ZM1562.25 525.509C1579.27 557.329 1579.38 600.338 1562.44 610.797C1550.61 618.117 1497.42 515.61 1497.42 485.458C1497.42 466.376 1547 497.011 1562.25 525.509ZM863.905 506.558C853.823 532.816 866.366 578.859 892.26 610.731L913.426 636.781L903.501 610.731C898.03 596.404 893.771 568.739 894.031 549.267C894.305 528.297 889.043 517.213 881.15 522.097C873.048 527.098 871.068 521.836 876.122 508.668C880.694 496.75 881.501 486.995 877.92 486.995C874.338 486.995 868.034 495.799 863.905 506.558ZM1880.75 498.548C1890.33 514.06 1863.39 535.018 1819.71 545.971C1772.64 557.785 1772.68 533.025 1819.79 507.47C1862.16 484.481 1871.24 483.152 1880.75 498.548ZM383.077 537.935C385.721 542.22 377.137 559.022 363.995 575.252C340.668 604.063 338.844 604.258 287.057 583.535C207.761 551.82 216.983 524.845 306.126 527.763C345.786 529.065 380.42 533.637 383.077 537.935ZM1216.62 545.19C1202.72 555.714 1197.94 564.506 1206.03 564.727C1214.11 564.962 1228 556.352 1236.93 545.607C1257.52 520.794 1249.1 520.625 1216.62 545.19ZM546.891 591.35C594.276 616.71 557.09 634.163 469.237 627.807C387.193 621.868 354.187 605 371.081 577.661C382.816 558.684 503.388 568.062 546.891 591.35ZM1859.73 587.495C1854.97 612.177 1790.29 653.961 1777.16 640.819C1772.6 636.26 1778.8 617.361 1790.94 598.84C1816.21 560.286 1866.56 551.976 1859.73 587.495ZM1405.99 598.019C1380.99 628.146 1395.8 631.207 1430.49 603.099C1451.43 586.114 1455.05 578.169 1441.85 578.169C1431.19 578.169 1415.05 587.104 1405.99 598.019ZM387.049 627.976C400.022 636.221 399.918 642.981 386.515 661.307C372.071 681.066 364.751 682.043 334.416 668.21C288.19 647.149 288.503 617.179 334.95 617.439C354.643 617.556 378.088 622.298 387.049 627.976ZM1447.14 657.439C1426.19 674.423 1422.57 682.369 1435.78 682.369C1455.28 682.369 1492.53 647.045 1483.01 637.589C1480.19 634.801 1464.05 643.724 1447.14 657.439ZM543.348 672.105C577.773 700.551 559.421 712.026 492.252 704.068C416.147 695.055 385.825 675.622 416.46 655.498C438.354 641.119 518.562 651.617 543.348 672.105ZM1823.05 668.575C1823.05 675.322 1817.19 684.453 1810.02 688.881C1802.86 693.309 1797 687.787 1797 676.625C1797 665.462 1802.86 656.319 1810.02 656.319C1817.19 656.319 1823.05 661.828 1823.05 668.575ZM1191.34 708.418C1177.97 723.189 1174.28 734.468 1182.81 734.468C1191.08 734.468 1197.85 729.102 1197.85 722.524C1197.85 715.96 1213.98 704.706 1233.67 697.504C1263.55 686.602 1264.96 684.257 1242.2 683.397C1227.2 682.837 1204.3 694.091 1191.34 708.418ZM852.521 733.726C858.708 761.86 866.471 769.935 881.71 764.087C897.574 758.004 900.844 762.341 895.569 782.517C891.765 797.04 894.044 818.544 900.622 830.306C918.596 862.412 893.888 856.043 859.828 819.794C841.71 800.505 833.062 779.534 837.972 766.744C842.44 755.126 840.043 734.312 832.645 720.505C824.478 705.227 824.088 695.393 831.655 695.393C838.506 695.393 847.897 712.638 852.521 733.726ZM466.501 719.958C476.335 726.184 507.282 725.898 536.601 719.307C601.257 704.784 612.133 713.251 572.746 747.415C539.115 776.578 481.48 782.582 481.48 756.923C481.48 745.383 465.551 741.814 429.38 745.266C381.501 749.825 364.36 738.714 385.968 717.106C398.121 704.954 445.466 706.634 466.501 719.958ZM1775.08 791.257C1887.64 854.219 1939.72 899.312 1962.32 953.378C1989.95 1019.49 1974.48 1069.42 1923.14 1079.85C1900.32 1084.49 1863.54 1094.5 1841.4 1102.1C1809.54 1113.04 1788.62 1111.15 1741.13 1093.02C1696.59 1076 1656.65 1071.61 1586.02 1075.96C1492.44 1081.71 1489.71 1080.97 1416.02 1029.99C1374.82 1001.49 1341.13 973.359 1341.13 967.484C1341.13 932.278 1495.86 918.654 1507.27 952.857C1509.41 959.278 1544.7 947.478 1585.69 926.625C1651.46 893.19 1671.24 889.256 1753.75 893.216C1805.19 895.678 1840.36 893.294 1831.9 887.915C1823.45 882.536 1777.97 878.055 1730.82 877.938C1665.68 877.795 1630.16 885.31 1582.76 909.315C1529.36 936.342 1484.4 941.773 1484.4 921.168C1484.4 917.938 1501.62 893.659 1522.65 867.205C1543.7 840.765 1565.02 801.547 1570.04 780.055C1575.07 758.564 1581.17 737.347 1583.61 732.905C1593.3 715.257 1694.09 745.969 1775.08 791.257ZM1731.87 734.468C1731.87 741.632 1729.29 747.493 1726.13 747.493C1722.96 747.493 1716.76 741.632 1712.34 734.468C1707.91 727.305 1710.5 721.443 1718.08 721.443C1725.66 721.443 1731.87 727.305 1731.87 734.468ZM1282.64 747.285C1278.28 754.331 1255.96 765.533 1233.03 772.162C1202.89 780.876 1199.06 784.549 1219.2 785.396C1234.53 786.034 1260.9 775.041 1277.81 760.948C1294.73 746.868 1304.51 735.146 1299.56 734.898C1294.61 734.664 1286.99 740.238 1282.64 747.285ZM1424.61 771.641C1430.24 780.759 1421.96 791.609 1403.83 798.877C1383.99 806.835 1380.93 811.25 1394.89 811.797C1424.86 812.956 1451.68 779 1430.92 766.184C1420.94 760.01 1418.65 762.003 1424.61 771.641ZM487.992 786.568C492.564 793.953 481.61 799.593 462.711 799.593C444.385 799.593 429.38 793.732 429.38 786.568C429.38 779.404 440.751 773.543 454.662 773.543C468.572 773.543 483.564 779.404 487.992 786.568ZM624.754 813.321C624.754 828.013 588.285 838.668 537.943 838.668C486.286 838.668 484.007 815.692 533.215 790.957C563.303 775.822 624.754 790.84 624.754 813.321ZM1341.13 799.593C1341.13 806.757 1347.34 812.618 1354.92 812.618C1362.5 812.618 1365.09 806.757 1360.66 799.593C1356.23 792.429 1350.03 786.568 1346.87 786.568C1343.7 786.568 1341.13 792.429 1341.13 799.593ZM1445.32 812.631C1398.33 836.571 1340.71 890.767 1362.26 890.767C1368.95 890.767 1384.8 878.641 1397.48 863.819C1410.18 848.996 1437.86 830.84 1459 823.467C1480.13 816.095 1497.42 804.777 1497.42 798.316C1497.42 791.856 1495.95 787.206 1494.17 787.988C1492.38 788.769 1470.4 799.853 1445.32 812.631ZM2104.75 842.458C2155.14 897.449 2158.57 911.92 2123.79 922.952C2110.12 927.302 2091.11 940.262 2081.58 951.75C2069.01 966.885 2080.11 964.553 2121.79 943.297C2192.86 907.035 2315.02 894.011 2370.08 916.817C2392.07 925.922 2421.58 948.012 2435.66 965.921C2468.24 1007.34 2469.81 1060.07 2438.48 1060.17C2409.01 1060.26 2314.06 1086.56 2320.38 1092.88C2323.04 1095.53 2350.73 1091.96 2381.92 1084.96C2487.11 1061.33 2565.47 1110.6 2565.47 1200.4C2565.47 1285.02 2489.86 1375.67 2376.61 1426.82C2325.26 1450.01 2287.13 1456.35 2196.38 1456.79C2090.77 1457.3 2079.21 1454.81 2056.36 1426.6C2037.54 1403.38 2031.45 1400.98 2031.45 1416.79C2031.45 1428.32 2010.48 1460.95 1984.84 1489.31C1902.98 1579.93 1694.79 1635.62 1550.59 1605.47C1467.34 1588.07 1424.76 1586.73 1384.37 1600.21C1360.53 1608.18 1351.87 1601.67 1330.29 1559.57C1316.16 1532.01 1289.36 1495.24 1270.75 1477.88C1252.15 1460.5 1236.93 1439.31 1236.93 1430.79C1236.93 1371.93 1109.14 1301.47 1059.47 1332.94C1037.25 1347.03 1037.88 1347.83 1066.4 1341.7C1113.54 1331.6 1182.55 1366.33 1207.92 1412.95C1220.29 1435.69 1252.4 1480.25 1279.26 1511.98C1306.13 1543.69 1328.1 1583.34 1328.1 1600.07C1328.1 1641 1251.67 1706.36 1181.82 1725.17C1084.48 1751.39 930.397 1700.06 974.369 1656.09C1006.87 1623.59 987.303 1617.35 953.634 1649.46C873.218 1726.17 727.729 1734.3 659.335 1665.91C633.859 1640.43 631.045 1581.01 654.06 1554.58C663.021 1544.31 654.803 1549.48 635.799 1566.07C572.511 1621.36 426.137 1614.48 449.152 1557.29C453.985 1545.31 461.148 1527.59 465.082 1517.92C469.015 1508.25 457.241 1515.34 438.902 1533.66C399.254 1573.33 353.445 1586.87 295.784 1575.97C198.279 1557.54 116.925 1472.63 116.834 1389.18C116.769 1334.9 171.07 1273.45 240.519 1249.21C286.289 1233.23 294.494 1233.45 308.04 1251.06C320.844 1267.72 324.152 1262.85 327.578 1222.28C333.152 1156.1 402.51 1099 489.152 1089.23C540.9 1083.39 549.639 1085.49 543.231 1102.19C538.308 1115.02 560.906 1106.86 606.78 1079.24C708.739 1017.84 784.349 1002.21 863.514 1026.14C939.632 1049.14 1003.36 1091.1 1036.06 1139.76C1063.63 1180.79 1077.19 1180.51 1055.18 1139.36C1032.45 1096.9 1062.76 1105.47 1108.84 1154.52C1135.81 1183.24 1143.95 1187.7 1134.16 1168.41C1113.08 1126.92 1114.61 1125.22 1172.67 1125.22C1226.49 1125.22 1273.32 1151.51 1360.66 1230.78C1393.15 1260.26 1410.59 1265.89 1464.04 1264.11C1524.99 1262.09 1528.92 1259.78 1539.3 1219.7C1547.08 1189.65 1544.64 1166.57 1530.87 1139.95C1520.2 1119.33 1515.16 1098.8 1519.66 1094.31C1535.76 1078.21 1694.58 1086.53 1740.96 1105.91C1786.37 1124.89 1787.28 1126.52 1763.34 1145.81C1733.81 1169.6 1742.96 1166.75 1829.56 1125.18C1884.59 1098.75 1913.87 1094 2018.42 1094.45C2086.48 1094.75 2158.61 1101.77 2178.72 1110.07C2198.83 1118.35 2211.97 1119.77 2207.91 1113.21C2198.86 1098.55 2084.39 1073.12 2027.55 1073.12C1986.29 1073.12 1985.86 1072.45 1985.86 1008.94C1985.86 936.654 1957.53 887.824 1890.84 845.18C1868.44 830.853 1849.88 815.158 1849.61 810.312C1848.71 794.682 1892.72 788.196 1977.76 791.4C2055.1 794.305 2063.85 797.834 2104.75 842.458ZM483.082 884.242C506.866 886.091 513.092 893.177 509.953 914.837C507.322 933.007 514.264 945.745 529.49 950.643C542.489 954.837 565.921 964.371 581.564 971.834C597.22 979.311 622.123 982.267 636.906 978.399C651.703 974.531 667.489 977.318 671.983 984.599C676.489 991.88 699.934 994.628 724.095 990.708C748.257 986.787 768.028 989.066 768.028 995.787C768.028 1002.49 757.778 1008.04 745.235 1008.12C732.692 1008.19 690.204 1023.47 650.804 1042.06C603.524 1064.38 554.485 1076.52 506.579 1077.75C451.262 1079.19 421.096 1088.16 379.86 1115.45C302.478 1166.66 242.408 1162.05 220.031 1103.16C206.394 1067.31 232.548 1003.32 266.087 990.447C277.093 986.214 286.106 969.229 286.106 952.688C286.106 910.748 321.104 865.225 369.179 844.646C406.274 828.769 411.706 829.641 430.982 854.545C442.614 869.563 466.059 882.926 483.082 884.242ZM507.53 851.693C522.756 861.526 519.161 864.366 491.249 864.522C471.555 864.626 455.43 858.856 455.43 851.693C455.43 835.229 482.04 835.229 507.53 851.693ZM624.754 871.23C624.754 884.88 611 890.767 579.167 890.767C508.585 890.767 523.785 855.235 595.448 852.722C613.266 852.096 624.754 859.351 624.754 871.23ZM1430.63 873.366C1414.43 893.008 1415.5 893.581 1442.07 879.423C1472.38 863.272 1479.84 851.693 1459.94 851.693C1453.66 851.693 1440.47 861.448 1430.63 873.366ZM702.904 909.966C702.904 930.428 639.538 968.917 605.868 968.917C576.106 968.917 581.329 934.362 614.634 911.047C651.586 885.154 702.904 884.528 702.904 909.966ZM572.655 915.424C572.655 931.405 535.963 944.235 527.836 931.093C524.228 925.244 525.009 916.7 529.594 912.115C542.007 899.703 572.655 902.06 572.655 915.424ZM781.053 940.77C781.053 953.769 722.702 981.942 695.779 981.942C669.768 981.942 671.996 960.021 699.648 943.909C727.391 927.758 781.053 925.687 781.053 940.77ZM1490.91 1164.29C1495.34 1171.45 1501.54 1177.32 1504.71 1177.32C1507.87 1177.32 1510.45 1171.45 1510.45 1164.29C1510.45 1157.13 1504.24 1151.27 1496.66 1151.27C1489.08 1151.27 1486.48 1157.13 1490.91 1164.29Z" stroke="white" stroke-width="26.0499" mask="url(#path-1-inside-1_1460_280)"/>
</svg>
