<svg width="2544" height="1983" viewBox="0 0 2544 1983" fill="none" xmlns="http://www.w3.org/2000/svg">
<mask id="path-1-inside-1_1460_279" fill="white">
<path fill-rule="evenodd" clip-rule="evenodd" d="M1046.37 15.3154C1026.67 25.8786 1010.55 40.193 1010.55 47.1223C1010.55 54.0515 1001.13 59.7304 989.631 59.7304C978.13 59.7304 946.505 77.3141 919.374 98.8052C892.244 120.296 865.021 137.958 858.887 138.036C839.688 138.323 789.125 227.153 789.125 260.588C789.125 309.627 812.883 362.26 830.193 351.567C838.477 346.448 841.915 347.646 837.851 354.224C815.956 389.652 813.834 543.411 834.27 613.694C846.109 654.409 853.976 688.86 851.762 690.254C834.218 701.247 690.696 721.683 684.131 714.116C655.893 681.553 426.277 320.502 418.774 296.875C405.71 255.73 389.559 261.395 380.064 310.46C375.558 333.749 339.609 402.143 300.182 462.461C211.561 598.038 184.573 684.289 193.17 804.431L199.526 893.326H150.383C107.661 893.326 102.126 889.926 108.052 867.276C116.153 836.329 111.36 835.625 54.3891 859.435C-2.7513 883.31 -12.9888 902.43 14.8846 933.221C30.788 950.805 53.8941 958.138 91.0542 957.421C120.386 956.861 137.071 953.436 128.11 949.828C96.0428 936.881 111.008 906.351 149.419 906.351C183.974 906.351 187.725 911.079 195.762 964.663C200.568 996.731 210.011 1026.36 216.732 1030.52C223.44 1034.67 248.526 1080.23 272.465 1131.76C296.405 1183.3 333.201 1243.04 354.223 1264.54C413.46 1325.08 606.776 1480.61 606.776 1467.74C606.776 1461.41 551.003 1411.38 482.844 1356.56C360.761 1258.36 315.63 1204.31 275.474 1108.24C251.456 1050.73 251.313 1049.62 267.998 1049.62C275.097 1049.62 297.695 1086.67 318.222 1131.94C345.783 1192.74 373.851 1229.36 425.573 1271.96C464.088 1303.7 523.547 1357.48 557.698 1391.49C591.863 1425.49 619.775 1448.93 619.736 1443.59C619.632 1426.57 540.961 1349.09 455.882 1282.24C394.769 1234.21 364.799 1199.02 339.583 1145.74C287.809 1036.29 293.188 1029.25 424.714 1034.46C486.309 1036.9 551.85 1032.39 572.924 1024.27C595.484 1015.56 640.394 1013.06 684.431 1018.04L758.139 1026.39L727.166 1145.46C652.389 1432.92 642.49 1465.89 632.787 1459.88C615.594 1449.26 608.652 1485.75 618.954 1532.71L628.71 1577.13L643.324 1525.03C651.36 1496.38 684.314 1370.83 716.563 1246.04C748.813 1121.26 782.73 1014.3 791.925 1008.36C831.469 982.833 847.646 1003.39 856.243 1090.12C860.906 1137.28 877.551 1201.69 893.233 1233.24C908.902 1264.77 935.786 1330.99 952.979 1380.38C992.926 1495.18 1036.83 1569.72 1094.17 1620.06C1119.23 1642.06 1147.91 1679.5 1157.93 1703.25C1205.75 1816.73 1343.45 1942.99 1456.25 1976.79C1530.66 1999.09 1660.91 1953.54 1758.35 1871.15C1823.03 1816.47 1840.04 1808.16 1875.52 1813.91C1899.19 1817.76 1938.43 1811.7 1966.84 1799.83C1994.23 1788.39 2036.14 1779.02 2059.98 1779.02C2083.8 1779.02 2150 1764.28 2207.06 1746.24L2310.81 1713.47L2354.86 1739.45C2379.08 1753.74 2411.99 1783.15 2428 1804.78C2444.01 1826.43 2462.71 1844.15 2469.56 1844.15C2476.43 1844.15 2497.54 1819.59 2516.49 1789.57C2547.83 1739.93 2549.48 1731 2534.88 1690.61C2511.5 1625.95 2446.4 1534.3 2417.31 1525.06C2403.49 1520.67 2380.39 1523.38 2366 1531.09C2345.89 1541.85 2320.87 1538.71 2258.05 1517.53C2151.87 1481.73 2052.6 1471.53 2013.57 1492.42C1987.52 1506.36 1980.49 1505.02 1962.59 1482.73C1937.48 1451.43 1732.19 1316.34 1672.22 1291.63C1648.57 1281.9 1595.51 1266.48 1554.3 1257.39C1460.9 1236.75 1410.36 1181.42 1416.8 1106.84L1420.83 1060.16L1524.04 1055.25C1580.81 1052.54 1630.63 1045.22 1634.76 1038.96C1638.88 1032.71 1658.38 1023.64 1678.08 1018.82C1697.77 1014 1713.89 1004.15 1713.89 996.952C1713.89 989.749 1728.55 978.287 1746.46 971.475C1766.12 963.999 1779.02 948.838 1779.02 933.182C1779.02 918.933 1790.74 900.997 1805.07 893.326C1819.4 885.654 1831.12 873.45 1831.12 866.195C1831.12 847.439 1896.62 789.126 1917.68 789.126C1927.39 789.126 1935.32 777.873 1935.32 764.105C1935.32 746.431 1947.73 736.44 1977.65 730.045C2032.71 718.271 2054.82 699.593 2046.12 672.189C2040.78 655.347 2051.42 646.412 2090.86 634.586C2153.72 615.765 2168.63 595.589 2136.89 572.379C2110.57 553.128 2111.02 552.034 2154.61 529.331C2171.33 520.617 2182.66 511.122 2179.76 508.231C2176.87 505.339 2151.78 514.561 2124.01 528.706C2096.24 542.864 2045.37 558.194 2010.94 562.753C1976.5 567.325 1948.34 575.413 1948.34 580.728C1948.34 586.042 1976.18 585.104 2010.21 578.644C2075.62 566.231 2130.69 573.017 2130.69 593.492C2130.69 607.025 2011.45 645.735 1968.77 646.047C1953.96 646.165 1933.04 651.987 1922.29 658.994C1908.9 667.721 1922.24 669.141 1964.62 663.527C2016.97 656.598 2026.49 658.682 2026.49 677.047C2026.49 703.045 2008.92 710.677 1918.92 723.819C1881.38 729.29 1863.5 734.513 1879.19 735.398C1914.8 737.43 1931.62 762.204 1907.68 777.352C1897.81 783.617 1870.35 788.814 1846.66 788.931C1805.41 789.113 1804.41 787.967 1822.89 761.579C1833.5 746.431 1839.39 726.789 1835.99 717.919C1832.59 709.062 1845.21 691.713 1864.05 679.365C1886.28 664.803 1895.53 649.734 1890.41 636.409C1885.78 624.348 1893.78 605.384 1909.76 590.496C1936.05 566.009 1936.18 564.199 1913.65 539.295C1891.58 514.913 1891.53 512.763 1912.8 500.859C1940.46 485.385 1942.53 426.382 1915.78 416.118C1862.73 395.76 1918.24 351.775 2050.78 309.145C2189.47 264.547 2188.13 275.606 2043.11 372.602C1947.97 436.242 1931.14 461.237 2015.98 412.914C2055.64 390.329 2208.84 363.289 2208.84 378.893C2208.84 396.203 2062.1 476.802 1995.16 496.274C1954.02 508.231 1923.21 520.852 1926.67 524.317C1930.15 527.794 1968.65 520.617 2012.24 508.387C2060.14 494.958 2114.72 488.772 2150.18 492.77C2194.74 497.785 2208.84 495.024 2208.84 481.282C2208.84 467.398 2196 465.105 2153.49 471.435L2098.13 479.68L2162.42 433.077C2240.92 376.171 2266.96 338.842 2220.28 350.069C2203.24 354.172 2165.86 361.244 2137.21 365.803L2085.11 374.087L2156.74 308.493C2196.14 272.427 2222.15 242.718 2214.55 242.496C2206.93 242.262 2148.68 259.663 2085.11 281.154C2021.53 302.645 1964.74 320.229 1958.92 320.229C1953.11 320.229 1948.34 305.576 1948.34 287.667C1948.34 269.757 1945.17 255.104 1941.27 255.104C1937.38 255.104 1903.15 278.549 1865.19 307.204C1787.97 365.517 1779.02 368.656 1779.02 337.5C1779.02 318.418 1775.36 318.966 1749.71 341.915C1733.59 356.347 1684.52 392.869 1640.67 423.061C1596.8 453.266 1550.11 498.058 1536.89 522.61C1521 552.099 1508.47 562.857 1499.93 554.326C1491.4 545.795 1497 534.411 1516.48 520.774C1532.68 509.429 1543.69 493.421 1540.95 485.216C1538.21 476.997 1549.64 459.544 1566.32 446.414C1583.02 433.285 1596.67 411.963 1596.67 399.03C1596.67 386.096 1605.59 368.109 1616.51 359.056C1627.41 350.004 1633.14 332.537 1629.23 320.229C1625.33 307.92 1631.06 290.454 1641.96 281.402C1667.1 260.536 1667.49 230.422 1642.75 220.927C1626.33 214.623 1626.63 209.139 1644.98 181.149C1666.59 148.157 1661.07 136.538 1616.21 120.674C1607.82 117.704 1608.26 109.512 1617.45 97.672C1625.29 87.5517 1635.35 69.0172 1639.82 56.4742C1654.05 16.6049 1614.33 30.7239 1538.46 92.5272L1466.21 151.374L1405.49 90.6646C1338.91 24.0682 1298.23 8.80296 1166.85 1.0922C1108.89 -2.3073 1070.89 2.17327 1046.37 15.3154ZM1183.13 21.5023C1195.67 21.372 1213.26 21.0334 1222.2 20.7468C1284.23 18.741 1335.27 42.9152 1397.85 103.937C1452.76 157.482 1466.08 178.843 1466.23 213.542C1466.36 241.819 1471.41 253.567 1480.91 247.693C1496.18 238.25 1517.99 263.427 1518.33 290.923C1518.43 299.884 1508.82 307.204 1496.96 307.204C1476.91 307.204 1476.91 308.858 1496.96 331.027C1523.85 360.736 1526.69 430.355 1500.61 420.339C1488.47 415.689 1482.7 423.569 1482.7 444.799C1482.7 479.472 1446.96 541.653 1427.05 541.653C1420.05 541.653 1413.45 525.541 1412.37 505.834L1410.41 470.016L1405 505.834C1399.71 540.728 1360.71 574.879 1344.57 558.741C1340.16 554.313 1354.45 519.393 1376.34 481.126C1399.98 439.811 1413.85 399.616 1410.49 382.162C1405.76 357.571 1404.55 358.783 1403.07 389.613C1402.04 411.065 1385.65 442.077 1363.81 463.92C1343.19 484.538 1329.37 504.467 1333.1 508.192C1341.49 516.567 1311.03 554.678 1295.96 554.678C1268.47 554.678 1258.91 504.818 1278.76 465.001C1289.84 442.794 1295.18 412.849 1290.61 398.47C1284.71 379.883 1288.21 372.329 1302.74 372.329C1313.96 372.329 1323.12 367.939 1323.1 362.56C1323 344.338 1269.69 265.147 1262.41 272.427C1258.44 276.4 1268.42 298.256 1284.61 320.971C1312.99 360.841 1313.09 362 1287.58 353.911C1263.1 346.135 1261.63 349.848 1267.7 403.771C1273.7 457.043 1270.54 465.431 1230.68 501.836C1181.75 546.524 1152.55 551.539 1121.57 520.565C1102.14 501.132 1102.32 497.407 1123.9 473.09C1146.8 447.261 1146.67 447.027 1118 462.07C1096.79 473.194 1081.51 473.597 1062.65 463.503C1030.53 446.31 1028.45 411.937 1059.39 409.893C1081.1 408.46 1081.1 408.095 1059.39 402.429C1046.85 399.147 1036.13 386.643 1035.57 374.634C1034.93 361.088 1032.05 358.978 1027.98 369.072C1015.55 399.85 984.538 386.304 983.196 349.535L981.907 313.716L972.933 345.901L963.959 378.099L941.673 346.266C914.191 307.035 913.357 260.445 939.224 210.833C961.354 168.41 957.694 152.989 932.66 183.155C908.981 211.679 900.579 311.164 918.945 345.471C927.502 361.453 954.542 382.905 979.029 393.142C1027.77 413.513 1039.43 450.478 997.107 450.478C981.829 450.478 965.652 438.092 958.853 421.172C952.38 405.047 946.701 399.199 946.245 408.147C945.112 430.68 925.301 428.492 899.824 403.015C885.835 389.027 881.172 370.596 886.395 349.822C892.335 326.142 890.146 320.659 877.799 328.291C839.532 351.932 815.579 342.15 807.608 299.637C798.894 253.19 810.043 203.005 829.073 203.005C835.754 203.005 841.225 194.07 841.225 183.142C841.225 172.227 855.878 157.717 873.787 150.905C891.696 144.093 906.35 132.514 906.35 125.181C906.35 117.835 915.324 111.83 926.291 111.83C937.271 111.83 949.618 103.038 953.734 92.2927C957.863 81.5472 972.06 72.7553 985.307 72.7553C998.54 72.7553 1024.63 57.4901 1043.29 38.8254C1070.97 11.1475 1084.87 6.44544 1118.77 13.3096C1141.63 17.9334 1170.59 21.6195 1183.13 21.5023ZM1101.72 64.3933C1101.72 74.6179 1093.74 86.0538 1084 89.7919C1063.63 97.6069 1046.08 150.905 1063.87 150.905C1070.36 150.905 1075.67 143.025 1075.67 133.386C1075.67 108.834 1123.25 68.418 1139.98 78.7598C1147.6 83.4618 1153.82 84.2433 1153.82 80.4921C1153.82 76.741 1142.1 67.4021 1127.77 59.7304C1107.38 48.8155 1101.72 49.8315 1101.72 64.3933ZM1605.1 94.3376C1551.37 196.088 1479.45 243.942 1479.45 177.945C1479.45 156.948 1609.03 41.6909 1620.14 52.8142C1622.62 55.2889 1615.84 73.9666 1605.1 94.3376ZM1342.59 138.167C1321.71 203.955 1380.2 300.835 1424.08 273.17C1435.77 265.785 1448.1 251.483 1451.46 241.376C1455.78 228.429 1451.08 229.51 1435.58 245.01C1423.47 257.123 1405.36 263.87 1395.32 260.015C1370.39 250.454 1347.75 180.745 1357.26 142.842C1366.72 105.174 1354.32 101.215 1342.59 138.167ZM1623.29 189.172C1599.77 222.216 1542.89 268.129 1525.49 268.129C1495.52 268.129 1562.95 166.444 1603.18 150.957C1644.04 135.236 1651.54 149.498 1623.29 189.172ZM1377.2 177.606C1375.31 209.621 1395.32 242.079 1416.93 242.079C1422.66 242.079 1427.35 236.218 1427.35 229.054C1427.35 221.891 1418.95 216.03 1408.67 216.03C1398.3 216.03 1387.59 200.1 1384.57 180.211C1379.22 144.861 1379.13 144.835 1377.2 177.606ZM1646.32 251.679C1643.93 264.118 1617.12 287.992 1586.76 304.755C1536.42 332.524 1531.55 333.15 1531.55 311.919C1531.55 299.116 1547.67 275.449 1567.36 259.324C1611.13 223.48 1652.52 219.481 1646.32 251.679ZM1915.65 338.19C1903.62 363.563 1868.08 407.991 1836.68 436.932C1770.89 497.576 1775.14 504.818 1847.19 454.881C1885.86 428.075 1900.75 423.725 1912.72 435.695C1937.66 460.638 1908.23 492.184 1829.9 524.46C1760.64 552.984 1756.86 567.403 1825.48 541.327C1866.87 525.58 1909.27 535.857 1909.27 561.607C1909.27 584.987 1877.25 601.502 1810.55 612.547C1739.06 624.374 1714.6 598.624 1748.37 547.058C1770.98 512.555 1770.87 511.174 1743.57 493.044C1716.1 474.822 1716.02 473.676 1739.01 435.864C1761.44 398.991 1921.2 275.71 1932.24 286.768C1935.16 289.672 1927.7 312.818 1915.65 338.19ZM1211.93 329.398C1212.28 354.133 1202.74 369.58 1179.87 381.303C1150.68 396.268 1150.08 398.014 1174.01 398.183C1188.7 398.287 1207.75 391.345 1216.34 382.749C1233.65 365.438 1237.95 294.179 1221.7 294.179C1216.03 294.179 1211.64 310.03 1211.93 329.398ZM375.909 409.111C354.848 449.775 312.517 529.93 281.83 587.24C226.891 689.889 226.162 692.95 232.83 792.383C239.603 893.222 226.527 929.548 211.144 852.623C186.253 728.196 213.189 623.15 307.802 475.603C350.146 409.554 388.778 343.179 393.636 328.096C399.315 310.447 404.551 306.826 408.341 317.937C411.572 327.419 396.984 368.447 375.909 409.111ZM1622.72 332.915C1622.72 344.234 1556.84 385.354 1538.71 385.354C1517.92 385.354 1535.74 343.752 1560.85 333.658C1600.25 317.819 1622.72 317.559 1622.72 332.915ZM552.983 542.551C618.381 643.351 671.901 730.683 671.901 736.649C671.901 758.765 574.644 803.792 487.064 822.21C437.335 832.669 385.235 847.335 371.286 854.811C357.336 862.274 325.425 864.541 300.391 859.852C246.259 849.692 234.784 820.021 246.572 720.589C251.86 675.94 272.322 624.1 309.131 562.115C339.205 511.461 375.987 445.372 390.875 415.259C405.749 385.132 421.549 360.228 425.99 359.903C430.419 359.577 487.572 441.765 552.983 542.551ZM940.071 445.386C965.261 457.342 998.761 468.492 1014.5 470.159C1030.23 471.839 1046.64 473.949 1050.95 474.861C1055.26 475.786 1077.18 494.112 1099.68 515.603C1145.76 559.64 1188.01 565.645 1214.26 531.884C1231.03 510.302 1233.01 510.432 1251.51 534.372C1281.73 573.473 1275.85 590.04 1208.14 656.689C1114.27 749.088 950.126 794.18 903.836 740.283C872.615 703.93 865.191 671.902 887.984 671.902C898.938 671.902 904.513 677.359 900.397 684.028C896.268 690.697 898.86 699.827 906.141 704.334C913.422 708.828 919.374 706.861 919.374 699.945C919.374 693.028 932.556 690.111 948.681 693.471C976.463 699.267 976.293 698.551 945.424 679.691C927.515 668.75 900.384 659.593 885.145 659.333C863.823 658.981 854.367 646.829 844.195 606.777C832.238 559.679 833.332 554.678 855.63 554.678C887.294 554.678 887.151 539.178 855.318 519.302C820.333 497.446 833.045 445.19 868.707 464.272C884.181 472.555 893.325 472.764 893.325 464.845C893.325 457.902 881.602 448.511 867.275 443.966C852.947 439.42 841.225 425.353 841.225 412.693C841.225 376.588 856.764 370.114 876.34 398.066C886.187 412.133 914.868 433.429 940.071 445.386ZM1752.97 380.951C1752.97 401.856 1668.07 519.133 1630.98 549.455C1608.52 567.82 1601.95 577.041 1616.35 569.969C1630.76 562.883 1653.65 544.831 1667.21 529.839C1696.08 497.954 1739.94 493.669 1739.94 522.741C1739.94 547.332 1679.72 605.279 1637.19 621.613C1620.09 628.177 1609.58 637.047 1613.85 641.319C1618.11 645.592 1643.23 636.318 1669.66 620.727C1702.04 601.619 1722.02 596.67 1730.89 605.54C1748.45 623.098 1722.36 653.667 1662.72 685.396L1616.21 710.156L1659.85 702.159C1697.59 695.256 1702.88 697.47 1698.82 718.466C1695.89 733.731 1674.82 748.593 1642.15 758.427C1613.55 767.049 1600.42 774.551 1612.95 775.098C1642.06 776.375 1643.18 822.561 1614.37 833.619C1602.62 838.126 1582.89 838.608 1570.53 834.687C1552.57 828.983 1549.26 833.841 1554.05 858.914C1562.49 903.081 1532.6 917.018 1504.32 882.098C1481.47 853.847 1481.31 853.847 1477.13 880.535C1469.96 926.396 1447.09 915.364 1442.85 863.994C1439.26 820.777 1443.03 813.522 1475.38 801.226C1557.17 770.123 1576.74 720.654 1537.38 644.55C1502.75 577.562 1542.41 506.251 1659.52 424.949C1733.09 373.879 1752.97 364.527 1752.97 380.951ZM1583.65 410.948C1583.65 422.11 1543.09 450.478 1527.1 450.478C1523.73 450.478 1524.03 438.756 1527.77 424.428C1534.53 398.587 1583.65 386.734 1583.65 410.948ZM1515.54 492.002C1512.7 500.507 1503.41 509.781 1494.91 512.62C1485.39 515.798 1482.48 509.833 1487.34 497.16C1496.43 473.48 1523.35 468.557 1515.54 492.002ZM1010.55 524.838C1021.29 528.797 1040.34 540.962 1052.88 551.877C1065.42 562.805 1075.67 566.14 1075.67 559.301C1075.67 537.784 1045.49 515.564 1017.71 516.632C998.931 517.348 996.808 519.797 1010.55 524.838ZM1488.71 570.959C1531.17 661.99 1546.34 710.912 1539.18 733.51C1530.7 760.224 1490.7 785.518 1446.88 791.862C1419.09 795.886 1416.9 781.22 1430.85 684.927C1434.48 659.854 1438.12 632.02 1438.91 623.059C1439.72 614.11 1448.81 606.777 1459.14 606.777C1469.47 606.777 1480.63 602.388 1483.95 597.009C1487.26 591.629 1464.17 589.298 1432.62 591.812C1367.95 596.957 1355.68 577.015 1411.07 556.788C1464.58 537.237 1473.77 538.917 1488.71 570.959ZM1222.5 580.441C1223.6 594.925 1229.11 606.777 1234.75 606.777C1249.15 606.777 1247.56 570.829 1232.77 561.672C1226.03 557.517 1221.42 565.957 1222.5 580.441ZM1345.26 588.256C1349.98 602.609 1285.58 638.675 1274.68 627.787C1271.37 624.478 1272.64 609.265 1277.49 593.974C1286.72 564.915 1336.21 560.734 1345.26 588.256ZM971.474 592.359C971.474 605.306 980.995 608.992 1005.83 605.67C1010.41 605.058 1018.39 611.401 1023.56 619.776C1030.2 630.535 1035.3 628.946 1040.88 614.384C1045.77 601.672 1041.87 593.752 1030.74 593.752C1020.81 593.752 1003.41 590.197 992.08 585.846C980.748 581.496 971.474 584.427 971.474 592.359ZM1420.43 619.151C1431.57 637.165 1383.75 658.916 1333.78 658.591L1290.58 658.304L1323.15 632.827C1357.82 605.709 1407.78 598.689 1420.43 619.151ZM880.3 633.114C880.3 647.076 931.162 658.395 938.742 646.113C942.246 640.447 930.537 633.023 912.706 629.61C894.888 626.197 880.3 627.774 880.3 633.114ZM1877.93 634.807C1892.86 658.955 1843.94 684.784 1779.79 686.646C1722.6 688.287 1722.07 688.652 1765.85 696.415C1794.66 701.521 1812.88 712.813 1815.66 727.297C1820.92 754.819 1790.34 768.742 1747.94 758.101C1723.87 752.057 1717.4 742.263 1719.05 714.363C1722.32 658.734 1742.38 635.393 1792.04 629.441C1817.12 626.432 1844.61 623.032 1853.14 621.886C1861.68 620.74 1872.83 626.549 1877.93 634.807ZM1313.52 671.902C1409.05 735.398 1452.81 892.049 1415.4 1036.6C1394.73 1116.47 1389.94 1220.76 1407.6 1206.09C1418.41 1197.13 1432.05 1202.75 1452.6 1224.61C1472.78 1246.09 1512.44 1262.75 1578.25 1277.39C1643.26 1291.85 1694.54 1313.24 1736.49 1343.4C1770.63 1367.93 1826.23 1402.73 1860.06 1420.73C1893.89 1438.74 1934.33 1470.73 1949.93 1491.83C1977.6 1529.25 1979.25 1529.7 2017.49 1509.93C2068.33 1483.64 2151.18 1494.23 2289.54 1544.73C2350.24 1566.88 2387.53 1575.4 2379.04 1565.16C2360.87 1543.26 2385.85 1530.92 2422.16 1543.87C2451.46 1554.31 2541.84 1717.95 2521.97 1724.58C2514.43 1727.09 2511.57 1734.5 2515.62 1741.05C2519.67 1747.6 2516.43 1752.97 2508.42 1752.97C2500.41 1752.97 2497.57 1758.98 2502.1 1766.32C2506.64 1773.65 2502.59 1778.06 2493.1 1776.09C2481.9 1773.76 2477.06 1783.46 2479.3 1803.78C2482.43 1832.06 2476.74 1829.41 2419.7 1776.06C2385.02 1743.63 2345.04 1713.4 2330.87 1708.91C2316.69 1704.41 2256.03 1715.41 2196.06 1733.36C2136.1 1751.3 2071.21 1766 2051.89 1766C2032.56 1766 1991.35 1774.96 1960.31 1785.91C1909.29 1803.91 1895.1 1803.78 1812.14 1784.56C1578.53 1730.44 1553.08 1721.95 1497.63 1679.63C1466.19 1655.62 1441.9 1643.25 1443.67 1652.14C1448.8 1677.95 1290.12 1694.23 1218.95 1675.2C1140.29 1654.18 1025.55 1538.06 993.33 1446.89C980.67 1411.07 958.071 1352.45 943.119 1316.64C890.694 1191.1 865.894 1111.21 869.828 1080.49C873.396 1052.59 879.271 1056.59 928.57 1120.53C989.605 1199.71 1052.78 1227.19 1145.17 1214.81C1203.42 1206.99 1312.05 1154.54 1320.13 1130.33C1323.15 1121.27 1303.84 1128.63 1277.25 1146.69C1158.34 1227.38 1038.31 1222.1 957.016 1132.63C900.736 1070.7 855.813 995.584 863.328 976.008C869.268 960.521 864.709 960.183 834.738 973.833C802.645 988.46 796.575 986.975 773.925 958.997C746.742 925.419 745.987 858.653 772.844 864.02C781.805 865.804 789.125 861.844 789.125 855.202C789.125 848.572 778.875 840.978 766.332 838.36C746.625 834.219 747.51 831.379 772.844 817.403C795.39 804.965 808.91 804.73 831.456 816.388C875.819 839.337 908.121 870.61 920.286 902.391C927.945 922.436 946.023 933.338 980.657 938.822C1007.84 943.12 1048 955.468 1069.88 966.252C1108.69 985.386 1110.85 984.735 1158.72 939.59C1185.7 914.153 1200.92 893.326 1192.53 893.326C1184.16 893.326 1161.49 910.245 1142.19 930.916C1110.54 964.78 1103.92 966.89 1075.1 952.159C1057.5 943.185 1020.86 931.814 993.669 926.904C959.126 920.665 939.915 908.513 929.938 886.605C907.418 837.188 820.58 785.87 776.035 795.652C746.273 802.19 735.788 798.126 723.558 775.281C704.685 740.009 719.598 728.378 799.232 716.343C848.271 708.919 858.717 711.993 886.539 742.002C910.491 767.857 930.758 776.101 970.367 776.101C1046.26 776.101 1154.98 730.97 1206.07 678.271C1230.47 653.081 1253.62 634.012 1257.49 635.901C1261.37 637.79 1286.57 653.993 1313.52 671.902ZM1407.86 693.015C1384.4 710.169 1362.22 706.327 1362.22 685.109C1362.22 671.707 1402.77 660.792 1419.54 669.675C1426.01 673.087 1420.76 683.585 1407.86 693.015ZM1414.32 724.002C1414.32 731.165 1408.11 737.027 1400.53 737.027C1392.95 737.027 1390.36 731.165 1394.78 724.002C1399.21 716.838 1405.41 710.977 1408.58 710.977C1411.74 710.977 1414.32 716.838 1414.32 724.002ZM731.92 838.934C727.999 845.29 658.667 854.603 577.861 859.63C497.054 864.645 416.287 872.108 398.377 876.211C374.906 881.59 369.566 879.623 379.244 869.204C386.629 861.258 434.209 846.905 484.98 837.292C535.764 827.693 602.986 804.652 634.376 786.105L691.438 752.357L715.248 789.869C728.351 810.5 735.853 832.59 731.92 838.934ZM1733.16 765.317C1788.72 790.637 1746.94 839.324 1683.35 823.356C1643.86 813.444 1637.93 783.708 1671.56 764.118C1700.02 747.538 1693.88 747.42 1733.16 765.317ZM1831.12 805.03L1863.68 810.526L1826.77 825.974C1781.9 844.743 1766.11 837.058 1775.54 801.031C1779.44 786.118 1786.22 779.67 1790.6 786.717C1794.98 793.763 1813.21 801.995 1831.12 805.03ZM1686.48 846.084C1705.22 868.67 1691.6 906.351 1664.69 906.351C1653.47 906.351 1632.74 896.1 1618.59 883.557C1593.64 861.441 1593.34 861.636 1608.26 890.069C1623.93 919.936 1609.07 971.475 1584.78 971.475C1555.63 971.475 1544.56 935.396 1562.88 900.086C1592.83 842.359 1659.28 813.327 1686.48 846.084ZM1792.04 853.092L1824.61 862.365L1796.16 877.839C1751.38 902.209 1713.89 897.402 1713.89 867.276C1713.89 839.832 1733.16 836.329 1792.04 853.092ZM93.6723 906.377C95.2223 949.932 69.3938 958.385 27.7791 927.946C4.94644 911.248 5.25912 909.49 34.6955 888.871C78.7588 858.002 92.0963 861.975 93.6723 906.377ZM290.648 875.143C286.324 879.467 275.083 879.936 265.693 876.172C255.299 872.017 258.386 868.93 273.56 868.305C287.288 867.745 294.973 870.819 290.648 875.143ZM745.648 929.144C753.645 963.165 757.865 993.5 755.026 996.535C748.995 1002.98 601.631 1010.94 421.353 1014.54C330.882 1016.33 292.758 1012.46 288.33 1001C284.904 992.12 271.736 988.369 258.854 992.602C246.051 996.822 253.149 987.965 274.641 972.934L313.715 945.595L277.128 945.517C253.827 945.451 243.758 950.622 249.398 959.753C255.611 969.821 250.037 969.678 230.629 959.297C215.429 951.156 203.472 937.389 204.032 928.688C204.801 916.757 206.677 916.875 211.626 929.144C215.247 938.105 223.57 945.425 230.134 945.425C236.699 945.425 240.606 938.105 238.822 929.144C236.712 918.594 251.626 912.863 281.153 912.863C306.226 912.863 329.892 908.656 333.761 903.524C341.406 893.339 543.957 871.887 659.175 869.047L731.099 867.276L745.648 929.144ZM1510.94 914.257C1534.58 923.335 1538.59 965.588 1517.06 978.886C1509.1 983.81 1497.69 979.928 1491.73 970.264C1485.75 960.599 1477.27 956.275 1472.89 960.665C1468.51 965.041 1482.85 981.4 1504.74 996.991C1548.92 1028.45 1556.11 1049.62 1522.61 1049.62C1494.84 1049.62 1440.37 999.244 1440.37 973.559C1440.37 962.866 1450.64 943.719 1463.17 931.007C1490.73 903.068 1486.05 904.709 1510.94 914.257ZM1765.99 925.12C1765.99 953.058 1744.2 961.459 1698.03 951.313C1659.27 942.807 1658.25 941.153 1681.31 924.299C1713.75 900.581 1765.99 901.076 1765.99 925.12ZM1680.84 962.983C1724.3 994.777 1670.93 1028.3 1624.08 998.645C1602.69 985.099 1614.09 945.425 1639.35 945.425C1648.97 945.425 1667.62 953.332 1680.84 962.983ZM1622.72 1023.91C1622.72 1042.4 1579.48 1039.43 1551.58 1019.04C1538.37 1009.38 1531.73 994.751 1536.81 986.519C1547.44 969.326 1622.72 1002.1 1622.72 1023.91ZM1098.55 1475.07C1107.55 1478.7 1111.6 1487.03 1107.55 1493.58C1103.49 1500.13 1106.4 1505.5 1113.98 1505.5C1121.56 1505.5 1127.77 1496.71 1127.77 1485.96C1127.77 1475.21 1117.52 1466.89 1104.98 1467.45C1091.23 1468.08 1088.67 1471.1 1098.55 1475.07ZM1349.2 1694.65C1470.81 1694.98 1493.94 1698.92 1558 1730.16C1597.62 1749.48 1670.04 1770.96 1718.94 1777.89C1767.83 1784.8 1810.29 1792.92 1813.29 1795.91C1816.28 1798.91 1786.83 1828.62 1747.84 1861.92C1667.54 1930.53 1532.44 1981.36 1470.17 1966.42C1380.69 1944.96 1268.94 1855.69 1203.81 1753.67C1161.1 1686.78 1157.2 1667.33 1189.64 1683.14C1202.18 1689.25 1273.98 1694.42 1349.2 1694.65Z"/>
</mask>
<path fill-rule="evenodd" clip-rule="evenodd" d="M1046.37 15.3154C1026.67 25.8786 1010.55 40.193 1010.55 47.1223C1010.55 54.0515 1001.13 59.7304 989.631 59.7304C978.13 59.7304 946.505 77.3141 919.374 98.8052C892.244 120.296 865.021 137.958 858.887 138.036C839.688 138.323 789.125 227.153 789.125 260.588C789.125 309.627 812.883 362.26 830.193 351.567C838.477 346.448 841.915 347.646 837.851 354.224C815.956 389.652 813.834 543.411 834.27 613.694C846.109 654.409 853.976 688.86 851.762 690.254C834.218 701.247 690.696 721.683 684.131 714.116C655.893 681.553 426.277 320.502 418.774 296.875C405.71 255.73 389.559 261.395 380.064 310.46C375.558 333.749 339.609 402.143 300.182 462.461C211.561 598.038 184.573 684.289 193.17 804.431L199.526 893.326H150.383C107.661 893.326 102.126 889.926 108.052 867.276C116.153 836.329 111.36 835.625 54.3891 859.435C-2.7513 883.31 -12.9888 902.43 14.8846 933.221C30.788 950.805 53.8941 958.138 91.0542 957.421C120.386 956.861 137.071 953.436 128.11 949.828C96.0428 936.881 111.008 906.351 149.419 906.351C183.974 906.351 187.725 911.079 195.762 964.663C200.568 996.731 210.011 1026.36 216.732 1030.52C223.44 1034.67 248.526 1080.23 272.465 1131.76C296.405 1183.3 333.201 1243.04 354.223 1264.54C413.46 1325.08 606.776 1480.61 606.776 1467.74C606.776 1461.41 551.003 1411.38 482.844 1356.56C360.761 1258.36 315.63 1204.31 275.474 1108.24C251.456 1050.73 251.313 1049.62 267.998 1049.62C275.097 1049.62 297.695 1086.67 318.222 1131.94C345.783 1192.74 373.851 1229.36 425.573 1271.96C464.088 1303.7 523.547 1357.48 557.698 1391.49C591.863 1425.49 619.775 1448.93 619.736 1443.59C619.632 1426.57 540.961 1349.09 455.882 1282.24C394.769 1234.21 364.799 1199.02 339.583 1145.74C287.809 1036.29 293.188 1029.25 424.714 1034.46C486.309 1036.9 551.85 1032.39 572.924 1024.27C595.484 1015.56 640.394 1013.06 684.431 1018.04L758.139 1026.39L727.166 1145.46C652.389 1432.92 642.49 1465.89 632.787 1459.88C615.594 1449.26 608.652 1485.75 618.954 1532.71L628.71 1577.13L643.324 1525.03C651.36 1496.38 684.314 1370.83 716.563 1246.04C748.813 1121.26 782.73 1014.3 791.925 1008.36C831.469 982.833 847.646 1003.39 856.243 1090.12C860.906 1137.28 877.551 1201.69 893.233 1233.24C908.902 1264.77 935.786 1330.99 952.979 1380.38C992.926 1495.18 1036.83 1569.72 1094.17 1620.06C1119.23 1642.06 1147.91 1679.5 1157.93 1703.25C1205.75 1816.73 1343.45 1942.99 1456.25 1976.79C1530.66 1999.09 1660.91 1953.54 1758.35 1871.15C1823.03 1816.47 1840.04 1808.16 1875.52 1813.91C1899.19 1817.76 1938.43 1811.7 1966.84 1799.83C1994.23 1788.39 2036.14 1779.02 2059.98 1779.02C2083.8 1779.02 2150 1764.28 2207.06 1746.24L2310.81 1713.47L2354.86 1739.45C2379.08 1753.74 2411.99 1783.15 2428 1804.78C2444.01 1826.43 2462.71 1844.15 2469.56 1844.15C2476.43 1844.15 2497.54 1819.59 2516.49 1789.57C2547.83 1739.93 2549.48 1731 2534.88 1690.61C2511.5 1625.95 2446.4 1534.3 2417.31 1525.06C2403.49 1520.67 2380.39 1523.38 2366 1531.09C2345.89 1541.85 2320.87 1538.71 2258.05 1517.53C2151.87 1481.73 2052.6 1471.53 2013.57 1492.42C1987.52 1506.36 1980.49 1505.02 1962.59 1482.73C1937.48 1451.43 1732.19 1316.34 1672.22 1291.63C1648.57 1281.9 1595.51 1266.48 1554.3 1257.39C1460.9 1236.75 1410.36 1181.42 1416.8 1106.84L1420.83 1060.16L1524.04 1055.25C1580.81 1052.54 1630.63 1045.22 1634.76 1038.96C1638.88 1032.71 1658.38 1023.64 1678.08 1018.82C1697.77 1014 1713.89 1004.15 1713.89 996.952C1713.89 989.749 1728.55 978.287 1746.46 971.475C1766.12 963.999 1779.02 948.838 1779.02 933.182C1779.02 918.933 1790.74 900.997 1805.07 893.326C1819.4 885.654 1831.12 873.45 1831.12 866.195C1831.12 847.439 1896.62 789.126 1917.68 789.126C1927.39 789.126 1935.32 777.873 1935.32 764.105C1935.32 746.431 1947.73 736.44 1977.65 730.045C2032.71 718.271 2054.82 699.593 2046.12 672.189C2040.78 655.347 2051.42 646.412 2090.86 634.586C2153.72 615.765 2168.63 595.589 2136.89 572.379C2110.57 553.128 2111.02 552.034 2154.61 529.331C2171.33 520.617 2182.66 511.122 2179.76 508.231C2176.87 505.339 2151.78 514.561 2124.01 528.706C2096.24 542.864 2045.37 558.194 2010.94 562.753C1976.5 567.325 1948.34 575.413 1948.34 580.728C1948.34 586.042 1976.18 585.104 2010.21 578.644C2075.62 566.231 2130.69 573.017 2130.69 593.492C2130.69 607.025 2011.45 645.735 1968.77 646.047C1953.96 646.165 1933.04 651.987 1922.29 658.994C1908.9 667.721 1922.24 669.141 1964.62 663.527C2016.97 656.598 2026.49 658.682 2026.49 677.047C2026.49 703.045 2008.92 710.677 1918.92 723.819C1881.38 729.29 1863.5 734.513 1879.19 735.398C1914.8 737.43 1931.62 762.204 1907.68 777.352C1897.81 783.617 1870.35 788.814 1846.66 788.931C1805.41 789.113 1804.41 787.967 1822.89 761.579C1833.5 746.431 1839.39 726.789 1835.99 717.919C1832.59 709.062 1845.21 691.713 1864.05 679.365C1886.28 664.803 1895.53 649.734 1890.41 636.409C1885.78 624.348 1893.78 605.384 1909.76 590.496C1936.05 566.009 1936.18 564.199 1913.65 539.295C1891.58 514.913 1891.53 512.763 1912.8 500.859C1940.46 485.385 1942.53 426.382 1915.78 416.118C1862.73 395.76 1918.24 351.775 2050.78 309.145C2189.47 264.547 2188.13 275.606 2043.11 372.602C1947.97 436.242 1931.14 461.237 2015.98 412.914C2055.64 390.329 2208.84 363.289 2208.84 378.893C2208.84 396.203 2062.1 476.802 1995.16 496.274C1954.02 508.231 1923.21 520.852 1926.67 524.317C1930.15 527.794 1968.65 520.617 2012.24 508.387C2060.14 494.958 2114.72 488.772 2150.18 492.77C2194.74 497.785 2208.84 495.024 2208.84 481.282C2208.84 467.398 2196 465.105 2153.49 471.435L2098.13 479.68L2162.42 433.077C2240.92 376.171 2266.96 338.842 2220.28 350.069C2203.24 354.172 2165.86 361.244 2137.21 365.803L2085.11 374.087L2156.74 308.493C2196.14 272.427 2222.15 242.718 2214.55 242.496C2206.93 242.262 2148.68 259.663 2085.11 281.154C2021.53 302.645 1964.74 320.229 1958.92 320.229C1953.11 320.229 1948.34 305.576 1948.34 287.667C1948.34 269.757 1945.17 255.104 1941.27 255.104C1937.38 255.104 1903.15 278.549 1865.19 307.204C1787.97 365.517 1779.02 368.656 1779.02 337.5C1779.02 318.418 1775.36 318.966 1749.71 341.915C1733.59 356.347 1684.52 392.869 1640.67 423.061C1596.8 453.266 1550.11 498.058 1536.89 522.61C1521 552.099 1508.47 562.857 1499.93 554.326C1491.4 545.795 1497 534.411 1516.48 520.774C1532.68 509.429 1543.69 493.421 1540.95 485.216C1538.21 476.997 1549.64 459.544 1566.32 446.414C1583.02 433.285 1596.67 411.963 1596.67 399.03C1596.67 386.096 1605.59 368.109 1616.51 359.056C1627.41 350.004 1633.14 332.537 1629.23 320.229C1625.33 307.92 1631.06 290.454 1641.96 281.402C1667.1 260.536 1667.49 230.422 1642.75 220.927C1626.33 214.623 1626.63 209.139 1644.98 181.149C1666.59 148.157 1661.07 136.538 1616.21 120.674C1607.82 117.704 1608.26 109.512 1617.45 97.672C1625.29 87.5517 1635.35 69.0172 1639.82 56.4742C1654.05 16.6049 1614.33 30.7239 1538.46 92.5272L1466.21 151.374L1405.49 90.6646C1338.91 24.0682 1298.23 8.80296 1166.85 1.0922C1108.89 -2.3073 1070.89 2.17327 1046.37 15.3154ZM1183.13 21.5023C1195.67 21.372 1213.26 21.0334 1222.2 20.7468C1284.23 18.741 1335.27 42.9152 1397.85 103.937C1452.76 157.482 1466.08 178.843 1466.23 213.542C1466.36 241.819 1471.41 253.567 1480.91 247.693C1496.18 238.25 1517.99 263.427 1518.33 290.923C1518.43 299.884 1508.82 307.204 1496.96 307.204C1476.91 307.204 1476.91 308.858 1496.96 331.027C1523.85 360.736 1526.69 430.355 1500.61 420.339C1488.47 415.689 1482.7 423.569 1482.7 444.799C1482.7 479.472 1446.96 541.653 1427.05 541.653C1420.05 541.653 1413.45 525.541 1412.37 505.834L1410.41 470.016L1405 505.834C1399.71 540.728 1360.71 574.879 1344.57 558.741C1340.16 554.313 1354.45 519.393 1376.34 481.126C1399.98 439.811 1413.85 399.616 1410.49 382.162C1405.76 357.571 1404.55 358.783 1403.07 389.613C1402.04 411.065 1385.65 442.077 1363.81 463.92C1343.19 484.538 1329.37 504.467 1333.1 508.192C1341.49 516.567 1311.03 554.678 1295.96 554.678C1268.47 554.678 1258.91 504.818 1278.76 465.001C1289.84 442.794 1295.18 412.849 1290.61 398.47C1284.71 379.883 1288.21 372.329 1302.74 372.329C1313.96 372.329 1323.12 367.939 1323.1 362.56C1323 344.338 1269.69 265.147 1262.41 272.427C1258.44 276.4 1268.42 298.256 1284.61 320.971C1312.99 360.841 1313.09 362 1287.58 353.911C1263.1 346.135 1261.63 349.848 1267.7 403.771C1273.7 457.043 1270.54 465.431 1230.68 501.836C1181.75 546.524 1152.55 551.539 1121.57 520.565C1102.14 501.132 1102.32 497.407 1123.9 473.09C1146.8 447.261 1146.67 447.027 1118 462.07C1096.79 473.194 1081.51 473.597 1062.65 463.503C1030.53 446.31 1028.45 411.937 1059.39 409.893C1081.1 408.46 1081.1 408.095 1059.39 402.429C1046.85 399.147 1036.13 386.643 1035.57 374.634C1034.93 361.088 1032.05 358.978 1027.98 369.072C1015.55 399.85 984.538 386.304 983.196 349.535L981.907 313.716L972.933 345.901L963.959 378.099L941.673 346.266C914.191 307.035 913.357 260.445 939.224 210.833C961.354 168.41 957.694 152.989 932.66 183.155C908.981 211.679 900.579 311.164 918.945 345.471C927.502 361.453 954.542 382.905 979.029 393.142C1027.77 413.513 1039.43 450.478 997.107 450.478C981.829 450.478 965.652 438.092 958.853 421.172C952.38 405.047 946.701 399.199 946.245 408.147C945.112 430.68 925.301 428.492 899.824 403.015C885.835 389.027 881.172 370.596 886.395 349.822C892.335 326.142 890.146 320.659 877.799 328.291C839.532 351.932 815.579 342.15 807.608 299.637C798.894 253.19 810.043 203.005 829.073 203.005C835.754 203.005 841.225 194.07 841.225 183.142C841.225 172.227 855.878 157.717 873.787 150.905C891.696 144.093 906.35 132.514 906.35 125.181C906.35 117.835 915.324 111.83 926.291 111.83C937.271 111.83 949.618 103.038 953.734 92.2927C957.863 81.5472 972.06 72.7553 985.307 72.7553C998.54 72.7553 1024.63 57.4901 1043.29 38.8254C1070.97 11.1475 1084.87 6.44544 1118.77 13.3096C1141.63 17.9334 1170.59 21.6195 1183.13 21.5023ZM1101.72 64.3933C1101.72 74.6179 1093.74 86.0538 1084 89.7919C1063.63 97.6069 1046.08 150.905 1063.87 150.905C1070.36 150.905 1075.67 143.025 1075.67 133.386C1075.67 108.834 1123.25 68.418 1139.98 78.7598C1147.6 83.4618 1153.82 84.2433 1153.82 80.4921C1153.82 76.741 1142.1 67.4021 1127.77 59.7304C1107.38 48.8155 1101.72 49.8315 1101.72 64.3933ZM1605.1 94.3376C1551.37 196.088 1479.45 243.942 1479.45 177.945C1479.45 156.948 1609.03 41.6909 1620.14 52.8142C1622.62 55.2889 1615.84 73.9666 1605.1 94.3376ZM1342.59 138.167C1321.71 203.955 1380.2 300.835 1424.08 273.17C1435.77 265.785 1448.1 251.483 1451.46 241.376C1455.78 228.429 1451.08 229.51 1435.58 245.01C1423.47 257.123 1405.36 263.87 1395.32 260.015C1370.39 250.454 1347.75 180.745 1357.26 142.842C1366.72 105.174 1354.32 101.215 1342.59 138.167ZM1623.29 189.172C1599.77 222.216 1542.89 268.129 1525.49 268.129C1495.52 268.129 1562.95 166.444 1603.18 150.957C1644.04 135.236 1651.54 149.498 1623.29 189.172ZM1377.2 177.606C1375.31 209.621 1395.32 242.079 1416.93 242.079C1422.66 242.079 1427.35 236.218 1427.35 229.054C1427.35 221.891 1418.95 216.03 1408.67 216.03C1398.3 216.03 1387.59 200.1 1384.57 180.211C1379.22 144.861 1379.13 144.835 1377.2 177.606ZM1646.32 251.679C1643.93 264.118 1617.12 287.992 1586.76 304.755C1536.42 332.524 1531.55 333.15 1531.55 311.919C1531.55 299.116 1547.67 275.449 1567.36 259.324C1611.13 223.48 1652.52 219.481 1646.32 251.679ZM1915.65 338.19C1903.62 363.563 1868.08 407.991 1836.68 436.932C1770.89 497.576 1775.14 504.818 1847.19 454.881C1885.86 428.075 1900.75 423.725 1912.72 435.695C1937.66 460.638 1908.23 492.184 1829.9 524.46C1760.64 552.984 1756.86 567.403 1825.48 541.327C1866.87 525.58 1909.27 535.857 1909.27 561.607C1909.27 584.987 1877.25 601.502 1810.55 612.547C1739.06 624.374 1714.6 598.624 1748.37 547.058C1770.98 512.555 1770.87 511.174 1743.57 493.044C1716.1 474.822 1716.02 473.676 1739.01 435.864C1761.44 398.991 1921.2 275.71 1932.24 286.768C1935.16 289.672 1927.7 312.818 1915.65 338.19ZM1211.93 329.398C1212.28 354.133 1202.74 369.58 1179.87 381.303C1150.68 396.268 1150.08 398.014 1174.01 398.183C1188.7 398.287 1207.75 391.345 1216.34 382.749C1233.65 365.438 1237.95 294.179 1221.7 294.179C1216.03 294.179 1211.64 310.03 1211.93 329.398ZM375.909 409.111C354.848 449.775 312.517 529.93 281.83 587.24C226.891 689.889 226.162 692.95 232.83 792.383C239.603 893.222 226.527 929.548 211.144 852.623C186.253 728.196 213.189 623.15 307.802 475.603C350.146 409.554 388.778 343.179 393.636 328.096C399.315 310.447 404.551 306.826 408.341 317.937C411.572 327.419 396.984 368.447 375.909 409.111ZM1622.72 332.915C1622.72 344.234 1556.84 385.354 1538.71 385.354C1517.92 385.354 1535.74 343.752 1560.85 333.658C1600.25 317.819 1622.72 317.559 1622.72 332.915ZM552.983 542.551C618.381 643.351 671.901 730.683 671.901 736.649C671.901 758.765 574.644 803.792 487.064 822.21C437.335 832.669 385.235 847.335 371.286 854.811C357.336 862.274 325.425 864.541 300.391 859.852C246.259 849.692 234.784 820.021 246.572 720.589C251.86 675.94 272.322 624.1 309.131 562.115C339.205 511.461 375.987 445.372 390.875 415.259C405.749 385.132 421.549 360.228 425.99 359.903C430.419 359.577 487.572 441.765 552.983 542.551ZM940.071 445.386C965.261 457.342 998.761 468.492 1014.5 470.159C1030.23 471.839 1046.64 473.949 1050.95 474.861C1055.26 475.786 1077.18 494.112 1099.68 515.603C1145.76 559.64 1188.01 565.645 1214.26 531.884C1231.03 510.302 1233.01 510.432 1251.51 534.372C1281.73 573.473 1275.85 590.04 1208.14 656.689C1114.27 749.088 950.126 794.18 903.836 740.283C872.615 703.93 865.191 671.902 887.984 671.902C898.938 671.902 904.513 677.359 900.397 684.028C896.268 690.697 898.86 699.827 906.141 704.334C913.422 708.828 919.374 706.861 919.374 699.945C919.374 693.028 932.556 690.111 948.681 693.471C976.463 699.267 976.293 698.551 945.424 679.691C927.515 668.75 900.384 659.593 885.145 659.333C863.823 658.981 854.367 646.829 844.195 606.777C832.238 559.679 833.332 554.678 855.63 554.678C887.294 554.678 887.151 539.178 855.318 519.302C820.333 497.446 833.045 445.19 868.707 464.272C884.181 472.555 893.325 472.764 893.325 464.845C893.325 457.902 881.602 448.511 867.275 443.966C852.947 439.42 841.225 425.353 841.225 412.693C841.225 376.588 856.764 370.114 876.34 398.066C886.187 412.133 914.868 433.429 940.071 445.386ZM1752.97 380.951C1752.97 401.856 1668.07 519.133 1630.98 549.455C1608.52 567.82 1601.95 577.041 1616.35 569.969C1630.76 562.883 1653.65 544.831 1667.21 529.839C1696.08 497.954 1739.94 493.669 1739.94 522.741C1739.94 547.332 1679.72 605.279 1637.19 621.613C1620.09 628.177 1609.58 637.047 1613.85 641.319C1618.11 645.592 1643.23 636.318 1669.66 620.727C1702.04 601.619 1722.02 596.67 1730.89 605.54C1748.45 623.098 1722.36 653.667 1662.72 685.396L1616.21 710.156L1659.85 702.159C1697.59 695.256 1702.88 697.47 1698.82 718.466C1695.89 733.731 1674.82 748.593 1642.15 758.427C1613.55 767.049 1600.42 774.551 1612.95 775.098C1642.06 776.375 1643.18 822.561 1614.37 833.619C1602.62 838.126 1582.89 838.608 1570.53 834.687C1552.57 828.983 1549.26 833.841 1554.05 858.914C1562.49 903.081 1532.6 917.018 1504.32 882.098C1481.47 853.847 1481.31 853.847 1477.13 880.535C1469.96 926.396 1447.09 915.364 1442.85 863.994C1439.26 820.777 1443.03 813.522 1475.38 801.226C1557.17 770.123 1576.74 720.654 1537.38 644.55C1502.75 577.562 1542.41 506.251 1659.52 424.949C1733.09 373.879 1752.97 364.527 1752.97 380.951ZM1583.65 410.948C1583.65 422.11 1543.09 450.478 1527.1 450.478C1523.73 450.478 1524.03 438.756 1527.77 424.428C1534.53 398.587 1583.65 386.734 1583.65 410.948ZM1515.54 492.002C1512.7 500.507 1503.41 509.781 1494.91 512.62C1485.39 515.798 1482.48 509.833 1487.34 497.16C1496.43 473.48 1523.35 468.557 1515.54 492.002ZM1010.55 524.838C1021.29 528.797 1040.34 540.962 1052.88 551.877C1065.42 562.805 1075.67 566.14 1075.67 559.301C1075.67 537.784 1045.49 515.564 1017.71 516.632C998.931 517.348 996.808 519.797 1010.55 524.838ZM1488.71 570.959C1531.17 661.99 1546.34 710.912 1539.18 733.51C1530.7 760.224 1490.7 785.518 1446.88 791.862C1419.09 795.886 1416.9 781.22 1430.85 684.927C1434.48 659.854 1438.12 632.02 1438.91 623.059C1439.72 614.11 1448.81 606.777 1459.14 606.777C1469.47 606.777 1480.63 602.388 1483.95 597.009C1487.26 591.629 1464.17 589.298 1432.62 591.812C1367.95 596.957 1355.68 577.015 1411.07 556.788C1464.58 537.237 1473.77 538.917 1488.71 570.959ZM1222.5 580.441C1223.6 594.925 1229.11 606.777 1234.75 606.777C1249.15 606.777 1247.56 570.829 1232.77 561.672C1226.03 557.517 1221.42 565.957 1222.5 580.441ZM1345.26 588.256C1349.98 602.609 1285.58 638.675 1274.68 627.787C1271.37 624.478 1272.64 609.265 1277.49 593.974C1286.72 564.915 1336.21 560.734 1345.26 588.256ZM971.474 592.359C971.474 605.306 980.995 608.992 1005.83 605.67C1010.41 605.058 1018.39 611.401 1023.56 619.776C1030.2 630.535 1035.3 628.946 1040.88 614.384C1045.77 601.672 1041.87 593.752 1030.74 593.752C1020.81 593.752 1003.41 590.197 992.08 585.846C980.748 581.496 971.474 584.427 971.474 592.359ZM1420.43 619.151C1431.57 637.165 1383.75 658.916 1333.78 658.591L1290.58 658.304L1323.15 632.827C1357.82 605.709 1407.78 598.689 1420.43 619.151ZM880.3 633.114C880.3 647.076 931.162 658.395 938.742 646.113C942.246 640.447 930.537 633.023 912.706 629.61C894.888 626.197 880.3 627.774 880.3 633.114ZM1877.93 634.807C1892.86 658.955 1843.94 684.784 1779.79 686.646C1722.6 688.287 1722.07 688.652 1765.85 696.415C1794.66 701.521 1812.88 712.813 1815.66 727.297C1820.92 754.819 1790.34 768.742 1747.94 758.101C1723.87 752.057 1717.4 742.263 1719.05 714.363C1722.32 658.734 1742.38 635.393 1792.04 629.441C1817.12 626.432 1844.61 623.032 1853.14 621.886C1861.68 620.74 1872.83 626.549 1877.93 634.807ZM1313.52 671.902C1409.05 735.398 1452.81 892.049 1415.4 1036.6C1394.73 1116.47 1389.94 1220.76 1407.6 1206.09C1418.41 1197.13 1432.05 1202.75 1452.6 1224.61C1472.78 1246.09 1512.44 1262.75 1578.25 1277.39C1643.26 1291.85 1694.54 1313.24 1736.49 1343.4C1770.63 1367.93 1826.23 1402.73 1860.06 1420.73C1893.89 1438.74 1934.33 1470.73 1949.93 1491.83C1977.6 1529.25 1979.25 1529.7 2017.49 1509.93C2068.33 1483.64 2151.18 1494.23 2289.54 1544.73C2350.24 1566.88 2387.53 1575.4 2379.04 1565.16C2360.87 1543.26 2385.85 1530.92 2422.16 1543.87C2451.46 1554.31 2541.84 1717.95 2521.97 1724.58C2514.43 1727.09 2511.57 1734.5 2515.62 1741.05C2519.67 1747.6 2516.43 1752.97 2508.42 1752.97C2500.41 1752.97 2497.57 1758.98 2502.1 1766.32C2506.64 1773.65 2502.59 1778.06 2493.1 1776.09C2481.9 1773.76 2477.06 1783.46 2479.3 1803.78C2482.43 1832.06 2476.74 1829.41 2419.7 1776.06C2385.02 1743.63 2345.04 1713.4 2330.87 1708.91C2316.69 1704.41 2256.03 1715.41 2196.06 1733.36C2136.1 1751.3 2071.21 1766 2051.89 1766C2032.56 1766 1991.35 1774.96 1960.31 1785.91C1909.29 1803.91 1895.1 1803.78 1812.14 1784.56C1578.53 1730.44 1553.08 1721.95 1497.63 1679.63C1466.19 1655.62 1441.9 1643.25 1443.67 1652.14C1448.8 1677.95 1290.12 1694.23 1218.95 1675.2C1140.29 1654.18 1025.55 1538.06 993.33 1446.89C980.67 1411.07 958.071 1352.45 943.119 1316.64C890.694 1191.1 865.894 1111.21 869.828 1080.49C873.396 1052.59 879.271 1056.59 928.57 1120.53C989.605 1199.71 1052.78 1227.19 1145.17 1214.81C1203.42 1206.99 1312.05 1154.54 1320.13 1130.33C1323.15 1121.27 1303.84 1128.63 1277.25 1146.69C1158.34 1227.38 1038.31 1222.1 957.016 1132.63C900.736 1070.7 855.813 995.584 863.328 976.008C869.268 960.521 864.709 960.183 834.738 973.833C802.645 988.46 796.575 986.975 773.925 958.997C746.742 925.419 745.987 858.653 772.844 864.02C781.805 865.804 789.125 861.844 789.125 855.202C789.125 848.572 778.875 840.978 766.332 838.36C746.625 834.219 747.51 831.379 772.844 817.403C795.39 804.965 808.91 804.73 831.456 816.388C875.819 839.337 908.121 870.61 920.286 902.391C927.945 922.436 946.023 933.338 980.657 938.822C1007.84 943.12 1048 955.468 1069.88 966.252C1108.69 985.386 1110.85 984.735 1158.72 939.59C1185.7 914.153 1200.92 893.326 1192.53 893.326C1184.16 893.326 1161.49 910.245 1142.19 930.916C1110.54 964.78 1103.92 966.89 1075.1 952.159C1057.5 943.185 1020.86 931.814 993.669 926.904C959.126 920.665 939.915 908.513 929.938 886.605C907.418 837.188 820.58 785.87 776.035 795.652C746.273 802.19 735.788 798.126 723.558 775.281C704.685 740.009 719.598 728.378 799.232 716.343C848.271 708.919 858.717 711.993 886.539 742.002C910.491 767.857 930.758 776.101 970.367 776.101C1046.26 776.101 1154.98 730.97 1206.07 678.271C1230.47 653.081 1253.62 634.012 1257.49 635.901C1261.37 637.79 1286.57 653.993 1313.52 671.902ZM1407.86 693.015C1384.4 710.169 1362.22 706.327 1362.22 685.109C1362.22 671.707 1402.77 660.792 1419.54 669.675C1426.01 673.087 1420.76 683.585 1407.86 693.015ZM1414.32 724.002C1414.32 731.165 1408.11 737.027 1400.53 737.027C1392.95 737.027 1390.36 731.165 1394.78 724.002C1399.21 716.838 1405.41 710.977 1408.58 710.977C1411.74 710.977 1414.32 716.838 1414.32 724.002ZM731.92 838.934C727.999 845.29 658.667 854.603 577.861 859.63C497.054 864.645 416.287 872.108 398.377 876.211C374.906 881.59 369.566 879.623 379.244 869.204C386.629 861.258 434.209 846.905 484.98 837.292C535.764 827.693 602.986 804.652 634.376 786.105L691.438 752.357L715.248 789.869C728.351 810.5 735.853 832.59 731.92 838.934ZM1733.16 765.317C1788.72 790.637 1746.94 839.324 1683.35 823.356C1643.86 813.444 1637.93 783.708 1671.56 764.118C1700.02 747.538 1693.88 747.42 1733.16 765.317ZM1831.12 805.03L1863.68 810.526L1826.77 825.974C1781.9 844.743 1766.11 837.058 1775.54 801.031C1779.44 786.118 1786.22 779.67 1790.6 786.717C1794.98 793.763 1813.21 801.995 1831.12 805.03ZM1686.48 846.084C1705.22 868.67 1691.6 906.351 1664.69 906.351C1653.47 906.351 1632.74 896.1 1618.59 883.557C1593.64 861.441 1593.34 861.636 1608.26 890.069C1623.93 919.936 1609.07 971.475 1584.78 971.475C1555.63 971.475 1544.56 935.396 1562.88 900.086C1592.83 842.359 1659.28 813.327 1686.48 846.084ZM1792.04 853.092L1824.61 862.365L1796.16 877.839C1751.38 902.209 1713.89 897.402 1713.89 867.276C1713.89 839.832 1733.16 836.329 1792.04 853.092ZM93.6723 906.377C95.2223 949.932 69.3938 958.385 27.7791 927.946C4.94644 911.248 5.25912 909.49 34.6955 888.871C78.7588 858.002 92.0963 861.975 93.6723 906.377ZM290.648 875.143C286.324 879.467 275.083 879.936 265.693 876.172C255.299 872.017 258.386 868.93 273.56 868.305C287.288 867.745 294.973 870.819 290.648 875.143ZM745.648 929.144C753.645 963.165 757.865 993.5 755.026 996.535C748.995 1002.98 601.631 1010.94 421.353 1014.54C330.882 1016.33 292.758 1012.46 288.33 1001C284.904 992.12 271.736 988.369 258.854 992.602C246.051 996.822 253.149 987.965 274.641 972.934L313.715 945.595L277.128 945.517C253.827 945.451 243.758 950.622 249.398 959.753C255.611 969.821 250.037 969.678 230.629 959.297C215.429 951.156 203.472 937.389 204.032 928.688C204.801 916.757 206.677 916.875 211.626 929.144C215.247 938.105 223.57 945.425 230.134 945.425C236.699 945.425 240.606 938.105 238.822 929.144C236.712 918.594 251.626 912.863 281.153 912.863C306.226 912.863 329.892 908.656 333.761 903.524C341.406 893.339 543.957 871.887 659.175 869.047L731.099 867.276L745.648 929.144ZM1510.94 914.257C1534.58 923.335 1538.59 965.588 1517.06 978.886C1509.1 983.81 1497.69 979.928 1491.73 970.264C1485.75 960.599 1477.27 956.275 1472.89 960.665C1468.51 965.041 1482.85 981.4 1504.74 996.991C1548.92 1028.45 1556.11 1049.62 1522.61 1049.62C1494.84 1049.62 1440.37 999.244 1440.37 973.559C1440.37 962.866 1450.64 943.719 1463.17 931.007C1490.73 903.068 1486.05 904.709 1510.94 914.257ZM1765.99 925.12C1765.99 953.058 1744.2 961.459 1698.03 951.313C1659.27 942.807 1658.25 941.153 1681.31 924.299C1713.75 900.581 1765.99 901.076 1765.99 925.12ZM1680.84 962.983C1724.3 994.777 1670.93 1028.3 1624.08 998.645C1602.69 985.099 1614.09 945.425 1639.35 945.425C1648.97 945.425 1667.62 953.332 1680.84 962.983ZM1622.72 1023.91C1622.72 1042.4 1579.48 1039.43 1551.58 1019.04C1538.37 1009.38 1531.73 994.751 1536.81 986.519C1547.44 969.326 1622.72 1002.1 1622.72 1023.91ZM1098.55 1475.07C1107.55 1478.7 1111.6 1487.03 1107.55 1493.58C1103.49 1500.13 1106.4 1505.5 1113.98 1505.5C1121.56 1505.5 1127.77 1496.71 1127.77 1485.96C1127.77 1475.21 1117.52 1466.89 1104.98 1467.45C1091.23 1468.08 1088.67 1471.1 1098.55 1475.07ZM1349.2 1694.65C1470.81 1694.98 1493.94 1698.92 1558 1730.16C1597.62 1749.48 1670.04 1770.96 1718.94 1777.89C1767.83 1784.8 1810.29 1792.92 1813.29 1795.91C1816.28 1798.91 1786.83 1828.62 1747.84 1861.92C1667.54 1930.53 1532.44 1981.36 1470.17 1966.42C1380.69 1944.96 1268.94 1855.69 1203.81 1753.67C1161.1 1686.78 1157.2 1667.33 1189.64 1683.14C1202.18 1689.25 1273.98 1694.42 1349.2 1694.65Z" stroke="white" stroke-width="26.0499" mask="url(#path-1-inside-1_1460_279)"/>
</svg>
