<svg width="2835" height="544" viewBox="0 0 2835 544" fill="none" xmlns="http://www.w3.org/2000/svg">
<path d="M30.3458 519.499C27.7023 519.499 22.4155 515.534 14.4852 507.604L0.607271 494.717C0.607271 474.231 6.22454 434.91 17.4591 376.755C24.0676 345.033 30.6762 314.634 37.2847 285.557C44.5541 256.479 52.154 228.723 60.0842 202.289C88.501 108.447 130.135 46.9878 184.986 17.9102C199.525 9.97992 214.063 6.01478 228.602 6.01478C249.75 6.01478 266.932 15.5972 280.149 34.762L284.114 40.7097C284.775 44.014 284.775 45.9965 284.114 46.6574C282.792 47.9791 281.14 47.9791 279.158 46.6574C277.175 46.6574 275.523 45.9965 274.201 44.6748C259.662 32.1186 241.489 26.1709 219.681 26.8317C177.386 27.4926 137.404 79.0393 99.7355 181.472C69.3362 266.061 48.8497 354.285 38.276 446.144C41.5803 433.588 45.8758 421.362 51.1627 409.467C56.4495 397.571 62.3972 385.676 69.0058 373.781C65.0406 363.868 63.0581 355.607 63.0581 348.999C63.0581 341.068 64.7102 337.103 68.0145 337.103C71.3188 337.103 74.9535 342.72 78.9186 353.955V354.946C88.1706 339.747 97.4225 325.869 106.675 313.312C116.587 300.095 126.831 288.53 137.404 278.618C168.464 248.218 201.838 233.019 237.524 233.019C256.028 233.019 268.254 238.305 274.201 248.879C276.184 252.183 275.853 254.166 273.21 254.827C270.567 256.809 268.254 256.148 266.271 252.844C264.288 249.54 260.323 247.888 254.376 247.888C232.567 247.888 202.829 264.74 165.16 298.443C136.083 324.217 111.301 350.981 90.814 378.737C106.014 406.493 128.483 433.919 158.221 461.014C188.621 489.43 215.716 506.282 239.506 511.569C240.828 511.569 241.489 511.899 241.489 512.56C241.489 517.186 228.933 519.499 203.82 519.499C194.568 519.499 187.629 518.508 183.003 516.525L167.143 509.586C163.178 508.265 160.534 507.273 159.212 506.613C150.621 501.987 141.369 493.065 131.457 479.848C111.631 454.735 94.1183 426.649 78.9186 395.589C55.1278 429.953 40.2586 466.961 34.3109 506.613V510.578C34.3109 516.525 32.9892 519.499 30.3458 519.499ZM257.38 520.491C236.233 517.186 225.659 502.317 225.659 475.883C225.659 435.571 244.163 390.963 281.171 342.06C319.501 290.513 359.152 264.74 400.125 264.74C414.003 264.74 426.559 268.044 437.794 274.652C449.689 280.6 455.637 290.183 455.637 303.4C455.637 318.599 449.359 327.19 436.803 329.173C440.768 322.564 442.75 315.956 442.75 309.347C442.75 294.808 434.49 287.539 417.968 287.539C402.108 287.539 384.925 295.469 366.422 311.33C320.823 350.32 287.449 395.589 266.302 447.136C259.693 462.996 256.389 476.213 256.389 486.787C256.389 495.378 259.363 499.674 265.311 499.674C271.919 499.674 283.484 492.074 300.006 476.874C311.24 466.3 335.692 434.249 373.361 380.72C383.273 366.842 391.204 359.903 397.151 359.903C402.438 359.903 405.082 373.781 405.082 401.537V457.048C411.029 486.126 421.273 500.665 435.811 500.665C443.742 500.665 453.324 498.021 464.559 492.735C476.454 486.787 488.019 477.535 499.253 464.979L517.097 446.144C519.079 445.483 521.392 446.805 524.035 450.109C521.392 457.379 509.827 469.605 489.341 486.787C463.567 508.595 439.776 519.499 417.968 519.499C412.021 519.499 406.073 518.508 400.125 516.525C382.943 510.578 371.708 492.074 366.422 461.014C365.1 452.422 363.778 445.153 362.456 439.205C361.796 433.258 361.465 428.301 361.465 424.336C361.465 422.354 361.465 420.701 361.465 419.38C357.5 427.31 345.935 443.831 326.77 468.944C298.353 505.952 275.224 523.134 257.38 520.491ZM492.864 518.508C486.256 518.508 483.282 515.204 483.943 508.595C485.925 500.004 488.238 487.117 490.882 469.935C493.525 452.092 496.499 429.293 499.803 401.537C501.125 388.98 502.447 377.746 503.768 367.833C505.09 357.259 506.081 347.677 506.742 339.086L509.716 302.408C510.377 295.139 514.672 288.861 522.603 283.574C531.194 278.287 539.785 275.644 548.376 275.644C560.271 275.644 564.567 280.6 561.263 290.513L547.385 342.06C544.081 351.312 541.107 360.894 538.463 370.807C535.82 380.72 532.846 390.963 529.542 401.537C546.063 373.12 565.889 346.355 589.019 321.243C614.792 294.808 633.957 281.591 646.513 281.591C662.374 281.591 673.608 290.513 680.217 308.356C687.486 325.538 687.817 334.129 681.208 334.129C679.886 334.129 677.573 331.486 674.269 326.199C668.321 314.304 660.061 308.356 649.487 308.356C623.053 308.356 590.34 337.764 551.35 396.58C529.542 429.623 513.02 467.622 501.786 510.578C500.464 515.865 497.49 518.508 492.864 518.508ZM709.994 521.482C676.951 521.482 660.43 498.352 660.43 452.092C660.43 432.927 663.404 408.806 669.351 379.728H666.377C661.751 379.728 659.438 378.076 659.438 374.772C659.438 369.485 665.386 360.233 677.282 347.016C716.272 182.463 768.48 72.7612 833.904 17.9102C848.443 6.0148 863.643 0.0671006 879.503 0.0671006C901.311 0.0671006 912.216 11.3016 912.216 33.7707C912.216 82.674 888.755 138.186 841.834 200.306C815.4 233.349 773.106 278.948 714.95 337.103C699.751 388.65 692.151 429.623 692.151 460.022C692.151 489.1 702.064 503.639 721.889 503.639C737.089 503.639 755.262 497.691 776.41 485.796C797.557 473.9 814.079 460.353 825.974 445.153C830.6 439.205 834.235 436.231 836.878 436.231C838.2 436.231 838.861 437.553 838.861 440.197C838.861 447.466 836.878 453.414 832.913 458.04C821.018 471.918 802.844 485.465 778.392 498.682C749.976 513.882 727.176 521.482 709.994 521.482ZM717.924 315.295C753.61 282.252 789.627 240.618 825.974 190.393C872.234 126.29 896.025 76.7263 897.346 41.701V38.7271C897.346 22.8666 892.72 14.9363 883.468 14.9363C872.234 14.9363 859.347 24.1883 844.808 42.6923C835.556 53.9268 824.983 70.1177 813.087 91.2651C801.192 111.752 787.975 137.855 773.436 169.576C760.219 198.654 748.984 225.419 739.732 249.87C730.48 273.661 723.211 295.469 717.924 315.295ZM851.763 520.491C830.615 517.186 820.042 502.317 820.042 475.883C820.042 435.571 838.546 390.963 875.554 342.06C913.883 290.513 953.534 264.74 994.508 264.74C1008.39 264.74 1020.94 268.044 1032.18 274.652C1044.07 280.6 1050.02 290.183 1050.02 303.4C1050.02 318.599 1043.74 327.19 1031.18 329.173C1035.15 322.564 1037.13 315.956 1037.13 309.347C1037.13 294.808 1028.87 287.539 1012.35 287.539C996.49 287.539 979.308 295.469 960.804 311.33C915.205 350.32 881.832 395.589 860.684 447.136C854.076 462.996 850.772 476.213 850.772 486.787C850.772 495.378 853.745 499.674 859.693 499.674C866.302 499.674 877.867 492.074 894.388 476.874C905.622 466.3 930.074 434.249 967.743 380.72C977.656 366.842 985.586 359.903 991.534 359.903C996.821 359.903 999.464 373.781 999.464 401.537V457.048C1005.41 486.126 1015.65 500.665 1030.19 500.665C1038.12 500.665 1047.71 498.021 1058.94 492.735C1070.84 486.787 1082.4 477.535 1093.64 464.979L1111.48 446.144C1113.46 445.483 1115.77 446.805 1118.42 450.109C1115.77 457.379 1104.21 469.605 1083.72 486.787C1057.95 508.595 1034.16 519.499 1012.35 519.499C1006.4 519.499 1000.46 518.508 994.508 516.525C977.325 510.578 966.091 492.074 960.804 461.014C959.482 452.422 958.16 445.153 956.839 439.205C956.178 433.258 955.847 428.301 955.847 424.336C955.847 422.354 955.847 420.701 955.847 419.38C951.882 427.31 940.317 443.831 921.153 468.944C892.736 505.952 869.606 523.134 851.763 520.491ZM1422.89 482.822C1414.96 482.822 1411.65 479.187 1412.98 471.918L1435.78 382.702C1406.04 384.024 1374.98 386.007 1342.59 388.65C1337.97 388.65 1335.66 384.024 1335.66 374.772C1335.66 362.877 1340.61 356.929 1350.53 356.929H1369.36C1376.63 356.929 1385.55 357.259 1396.12 357.92L1423.88 358.911H1442.71L1465.51 262.757C1467.5 253.505 1472.12 248.879 1479.39 248.879C1484.68 248.879 1486.33 252.514 1484.35 259.783C1481.7 269.035 1478.73 282.252 1475.43 299.434C1472.12 315.956 1468.49 335.782 1464.52 358.911H1549.77C1557.7 358.911 1561.67 362.216 1561.67 368.824C1561.67 375.433 1546.47 379.068 1516.07 379.728C1506.82 380.389 1497.57 380.72 1488.31 380.72H1460.56C1457.91 391.954 1455.6 405.171 1453.62 420.371L1444.7 471.918C1443.38 479.187 1436.11 482.822 1422.89 482.822ZM1833.56 253.835C1828.27 253.835 1822.65 252.844 1816.71 250.862C1811.42 248.218 1808.78 245.905 1808.78 243.923C1808.78 242.601 1809.11 241.61 1809.77 240.949C1832.9 221.784 1852.06 212.202 1867.26 212.202C1871.23 212.202 1873.21 213.523 1873.21 216.167C1873.21 220.132 1868.91 226.74 1860.32 235.992C1851.73 245.244 1844.79 250.862 1839.51 252.844C1838.85 252.844 1837.85 253.175 1836.53 253.835C1835.87 253.835 1834.88 253.835 1833.56 253.835ZM1786.97 515.534C1765.82 515.534 1755.25 497.03 1755.25 460.022V448.127C1755.25 444.162 1755.58 439.866 1756.24 435.24C1757.56 426.649 1759.54 416.075 1762.19 403.519C1764.83 390.963 1768.46 376.094 1773.09 358.911L1788.95 302.408C1789.61 297.782 1796.22 295.469 1808.78 295.469C1823.98 295.469 1831.58 299.104 1831.58 306.373C1831.58 314.965 1829.26 324.217 1824.64 334.129C1819.35 348.007 1813.4 355.277 1806.79 355.938C1803.49 357.259 1798.53 385.676 1791.92 441.188C1790.6 450.44 1789.94 457.709 1789.94 462.996C1789.94 483.483 1795.23 493.726 1805.8 493.726C1813.73 493.726 1824.31 488.109 1837.52 476.874L1897.99 426.319C1900.64 424.336 1902.62 424.006 1903.94 425.327C1905.92 425.988 1906.25 427.971 1904.93 431.275C1893.7 448.457 1872.88 468.283 1842.48 490.752C1820.01 507.273 1801.51 515.534 1786.97 515.534ZM1886.69 543.29C1861.58 543.29 1849.02 538.003 1849.02 527.43C1849.02 514.873 1859.6 507.934 1880.75 506.613C1908.5 505.291 1942.87 501.987 1983.84 496.7C1989.13 488.109 1991.77 480.509 1991.77 473.9C1991.77 463.327 1984.17 451.431 1968.97 438.214C1932.62 406.493 1914.45 376.094 1914.45 347.016C1914.45 337.103 1916.76 327.851 1921.39 319.26C1943.86 280.931 1971.61 261.766 2004.66 261.766C2018.53 261.766 2030.43 265.4 2040.34 272.67C2050.25 279.939 2055.21 287.87 2055.21 296.461C2055.21 299.104 2054.55 301.747 2053.23 304.391C2052.57 306.373 2051.58 307.365 2050.25 307.365C2048.93 307.365 2047.28 305.382 2045.3 301.417C2043.98 290.183 2037.7 284.565 2026.46 284.565C2009.94 284.565 1992.76 293.487 1974.92 311.33C1957.73 329.834 1949.14 347.346 1949.14 363.868C1949.14 378.407 1958.73 397.241 1977.89 420.371C1997.06 442.84 2006.64 459.692 2006.64 470.926C2006.64 476.213 2004.99 482.822 2001.68 490.752C2010.27 486.787 2020.85 481.17 2033.4 473.9C2046.62 466.631 2062.15 457.709 2079.99 447.136C2081.98 448.457 2074.38 456.718 2057.19 471.918L1993.75 509.586C1988.46 518.838 1974.59 526.769 1952.12 533.377C1931.63 539.986 1909.82 543.29 1886.69 543.29ZM2120.88 520.491C2099.73 517.186 2089.15 502.317 2089.15 475.883C2089.15 435.571 2107.66 390.963 2144.67 342.06C2183 290.513 2222.65 264.74 2263.62 264.74C2277.5 264.74 2290.05 268.044 2301.29 274.652C2313.18 280.6 2319.13 290.183 2319.13 303.4C2319.13 318.599 2312.85 327.19 2300.3 329.173C2304.26 322.564 2306.25 315.956 2306.25 309.347C2306.25 294.808 2297.98 287.539 2281.46 287.539C2265.6 287.539 2248.42 295.469 2229.92 311.33C2184.32 350.32 2150.94 395.589 2129.8 447.136C2123.19 462.996 2119.88 476.213 2119.88 486.787C2119.88 495.378 2122.86 499.674 2128.81 499.674C2135.41 499.674 2146.98 492.074 2163.5 476.874C2174.74 466.3 2199.19 434.249 2236.86 380.72C2246.77 366.842 2254.7 359.903 2260.65 359.903C2265.93 359.903 2268.58 373.781 2268.58 401.537V457.048C2274.52 486.126 2284.77 500.665 2299.31 500.665C2307.24 500.665 2316.82 498.021 2328.05 492.735C2339.95 486.787 2351.51 477.535 2362.75 464.979L2380.59 446.144C2382.57 445.483 2384.89 446.805 2387.53 450.109C2384.89 457.379 2373.32 469.605 2352.84 486.787C2327.06 508.595 2303.27 519.499 2281.46 519.499C2275.52 519.499 2269.57 518.508 2263.62 516.525C2246.44 510.578 2235.2 492.074 2229.92 461.014C2228.59 452.422 2227.27 445.153 2225.95 439.205C2225.29 433.258 2224.96 428.301 2224.96 424.336C2224.96 422.354 2224.96 420.701 2224.96 419.38C2221 427.31 2209.43 443.831 2190.27 468.944C2161.85 505.952 2138.72 523.134 2120.88 520.491ZM2418.81 528.421C2398.98 528.421 2382.46 522.473 2369.25 510.578C2356.03 498.021 2349.42 476.874 2349.42 447.136C2349.42 439.205 2350.08 430.614 2351.4 421.362C2357.35 387.659 2371.23 355.607 2393.04 325.208C2420.13 288.2 2448.22 269.696 2477.3 269.696C2492.5 269.696 2506.7 273.992 2519.92 282.583C2533.14 290.513 2539.75 302.408 2539.75 318.269C2539.75 336.112 2532.48 354.616 2517.94 373.781H2537.76C2541.07 373.781 2543.05 374.111 2543.71 374.772C2543.71 378.737 2531.49 383.033 2507.03 387.659C2492.5 404.18 2481.59 412.441 2474.32 412.441C2473 412.441 2472.34 411.78 2472.34 410.458C2472.34 411.119 2477.3 404.51 2487.21 390.632C2478.62 390.632 2467.05 391.293 2452.51 392.615C2438.64 393.276 2421.78 394.928 2401.96 397.571C2394.69 417.397 2391.05 435.901 2391.05 453.083C2391.05 474.892 2397 490.752 2408.9 500.665C2416.17 507.273 2425.09 510.578 2435.66 510.578C2437.64 510.578 2439.63 510.578 2441.61 510.578C2443.59 510.578 2445.58 510.247 2447.56 509.586C2489.85 502.317 2530.83 477.865 2570.48 436.231C2573.78 431.606 2576.42 430.945 2578.41 434.249C2579.07 434.91 2579.4 435.901 2579.4 437.223C2579.4 439.866 2577.42 443.17 2573.45 447.136C2559.57 464.979 2537.76 482.491 2508.03 499.674C2474.98 518.838 2445.24 528.421 2418.81 528.421ZM2411.87 376.755C2421.12 376.094 2433.02 375.763 2447.56 375.763L2497.12 374.772C2504.39 360.233 2509.02 348.668 2511 340.077C2512.98 331.486 2513.97 324.547 2513.97 319.26C2513.97 305.382 2508.69 298.443 2498.11 298.443C2484.9 298.443 2470.36 306.373 2454.5 322.234C2445.24 331.486 2436.98 340.738 2429.71 349.99C2422.45 358.581 2416.5 367.503 2411.87 376.755ZM2632.54 521.482C2599.5 521.482 2582.98 498.352 2582.98 452.092C2582.98 432.927 2585.95 408.806 2591.9 379.728H2588.92C2584.3 379.728 2581.98 378.076 2581.98 374.772C2581.98 369.485 2587.93 360.233 2599.83 347.016C2638.82 182.463 2691.03 72.7612 2756.45 17.9102C2770.99 6.0148 2786.19 0.0671006 2802.05 0.0671006C2823.86 0.0671006 2834.76 11.3016 2834.76 33.7707C2834.76 82.674 2811.3 138.186 2764.38 200.306C2737.95 233.349 2695.65 278.948 2637.5 337.103C2622.3 388.65 2614.7 429.623 2614.7 460.022C2614.7 489.1 2624.61 503.639 2644.44 503.639C2659.64 503.639 2677.81 497.691 2698.96 485.796C2720.1 473.9 2736.62 460.353 2748.52 445.153C2753.15 439.205 2756.78 436.231 2759.42 436.231C2760.75 436.231 2761.41 437.553 2761.41 440.197C2761.41 447.466 2759.42 453.414 2755.46 458.04C2743.56 471.918 2725.39 485.465 2700.94 498.682C2672.52 513.882 2649.72 521.482 2632.54 521.482ZM2640.47 315.295C2676.16 282.252 2712.17 240.618 2748.52 190.393C2794.78 126.29 2818.57 76.7263 2819.89 41.701V38.7271C2819.89 22.8666 2815.27 14.9363 2806.01 14.9363C2794.78 14.9363 2781.89 24.1883 2767.35 42.6923C2758.1 53.9268 2747.53 70.1177 2735.63 91.2651C2723.74 111.752 2710.52 137.855 2695.98 169.576C2682.77 198.654 2671.53 225.419 2662.28 249.87C2653.03 273.661 2645.76 295.469 2640.47 315.295Z" fill="white"/>
</svg>
